SplineFontDB: 3.0
FontName: ElaineSans-Black
FullName: Elaine Sans Black
FamilyName: Elaine Sans Black
Weight: Black
Copyright: Copyright (c) 2015 by Wei Huang. All rights reserved.
Version: 1.030;PS 001.030;hotconv 1.0.70;makeotf.lib2.5.58329
ItalicAngle: 0
UnderlinePosition: -250
UnderlineWidth: 50
Ascent: 760
Descent: 240
InvalidEm: 0
sfntRevision: 0x000107ae
LayerCount: 2
Layer: 0 1 "Back" 1
Layer: 1 1 "Fore" 0
XUID: [1021 288 1899785369 15319]
StyleMap: 0x0040
FSType: 4
OS2Version: 3
OS2_WeightWidthSlopeOnly: 0
OS2_UseTypoMetrics: 0
CreationTime: 1436215496
ModificationTime: 1543787228
PfmFamily: 81
TTFWeight: 900
TTFWidth: 5
LineGap: 0
VLineGap: 0
Panose: 0 0 10 0 0 0 0 0 0 0
OS2TypoAscent: 760
OS2TypoAOffset: 0
OS2TypoDescent: -240
OS2TypoDOffset: 0
OS2TypoLinegap: 173
OS2WinAscent: 930
OS2WinAOffset: 0
OS2WinDescent: 243
OS2WinDOffset: 0
HheadAscent: 930
HheadAOffset: 0
HheadDescent: -243
HheadDOffset: 0
OS2SubXSize: 650
OS2SubYSize: 600
OS2SubXOff: 0
OS2SubYOff: 75
OS2SupXSize: 650
OS2SupYSize: 600
OS2SupXOff: 0
OS2SupYOff: 350
OS2StrikeYSize: 50
OS2StrikeYPos: 300
OS2CapHeight: 660
OS2XHeight: 500
OS2Vendor: 'UKWN'
OS2CodePages: 20000093.00000000
OS2UnicodeRanges: 00000007.00000001.00000000.00000000
Lookup: 1 0 0 "'aalt' Access All Alternates lookup 0" { "'aalt' Access All Alternates lookup 0 subtable"  } ['aalt' ('DFLT' <'dflt' > 'grek' <'dflt' > 'latn' <'CAT ' 'MOL ' 'NLD ' 'ROM ' 'TRK ' 'dflt' > ) ]
Lookup: 3 0 0 "'aalt' Access All Alternates lookup 1" { "'aalt' Access All Alternates lookup 1 subtable"  } ['aalt' ('DFLT' <'dflt' > 'grek' <'dflt' > 'latn' <'CAT ' 'MOL ' 'NLD ' 'ROM ' 'TRK ' 'dflt' > ) ]
Lookup: 1 0 0 "'locl' Localized Forms in Latin lookup 2" { "'locl' Localized Forms in Latin lookup 2 subtable"  } ['locl' ('latn' <'TRK ' > ) ]
Lookup: 1 0 0 "'locl' Localized Forms in Latin lookup 3" { "'locl' Localized Forms in Latin lookup 3 subtable"  } ['locl' ('latn' <'TAT ' > ) ]

StartChar: .notdef
Encoding: 65536 -1 0
Width: 500
Flags: W
LayerCount: 2
Fore
SplineSet
50 0 m 1,0,-1
 50 660 l 1,1,-1
 450 660 l 1,2,-1
 450 0 l 1,3,-1
 50 0 l 1,0,-1
130 80 m 1,4,-1
 370 80 l 1,5,-1
 370 580 l 1,6,-1
 130 580 l 1,7,-1
 130 80 l 1,4,-1
EndSplineSet
EndChar

StartChar: exclam
Encoding: 33 33 4
Width: 321
GlyphClass: 2
Flags: W
LayerCount: 2
Fore
SplineSet
280 660 m 1,0,-1
 280 496 l 1,1,-1
 256 220 l 1,2,-1
 64 220 l 1,3,-1
 40 496 l 1,4,-1
 40 660 l 1,5,-1
 280 660 l 1,0,-1
160 185 m 128,-1,7
 216 185 216 185 246.5 160 c 128,-1,8
 277 135 277 135 277 89 c 128,-1,9
 277 43 277 43 246.5 18 c 128,-1,10
 216 -7 216 -7 160 -7 c 128,-1,11
 104 -7 104 -7 73.5 18 c 128,-1,12
 43 43 43 43 43 89 c 128,-1,13
 43 135 43 135 73.5 160 c 128,-1,6
 104 185 104 185 160 185 c 128,-1,7
EndSplineSet
Substitution2: "'smcp' Lowercase to Small Capitals lookup 12 subtable" exclam.sc
Substitution2: "'c2sc' Capitals to Small Capitals lookup 11 subtable" exclam.sc
Substitution2: "'aalt' Access All Alternates lookup 0 subtable" exclam.sc
EndChar

StartChar: quotedbl
Encoding: 34 34 5
Width: 477
GlyphClass: 2
Flags: W
LayerCount: 2
Fore
SplineSet
229 670 m 1,0,-1
 197 373 l 1,1,-1
 50 373 l 1,2,-1
 50 670 l 1,3,-1
 229 670 l 1,0,-1
446 670 m 1,4,-1
 414 373 l 1,5,-1
 267 373 l 1,6,-1
 267 670 l 1,7,-1
 446 670 l 1,4,-1
EndSplineSet
Substitution2: "'smcp' Lowercase to Small Capitals lookup 12 subtable" quotedbl.sc
Substitution2: "'c2sc' Capitals to Small Capitals lookup 11 subtable" quotedbl.sc
Substitution2: "'aalt' Access All Alternates lookup 0 subtable" quotedbl.sc
EndChar

StartChar: numbersign
Encoding: 35 35 6
Width: 604
GlyphClass: 2
Flags: W
LayerCount: 2
Fore
SplineSet
592 389 m 1,0,-1
 491 389 l 1,1,-1
 473 271 l 1,2,-1
 570 271 l 1,3,-1
 570 142 l 1,4,-1
 452 142 l 1,5,-1
 430 0 l 1,6,-1
 312 0 l 1,7,-1
 334 142 l 1,8,-1
 214 142 l 1,9,-1
 192 0 l 1,10,-1
 74 0 l 1,11,-1
 96 142 l 1,12,-1
 11 142 l 1,13,-1
 11 271 l 1,14,-1
 117 271 l 1,15,-1
 135 389 l 1,16,-1
 33 389 l 1,17,-1
 33 518 l 1,18,-1
 156 518 l 1,19,-1
 178 660 l 1,20,-1
 296 660 l 1,21,-1
 274 518 l 1,22,-1
 394 518 l 1,23,-1
 416 660 l 1,24,-1
 534 660 l 1,25,-1
 512 518 l 1,26,-1
 592 518 l 1,27,-1
 592 389 l 1,0,-1
355 271 m 1,28,-1
 373 389 l 1,29,-1
 253 389 l 1,30,-1
 235 271 l 1,31,-1
 355 271 l 1,28,-1
EndSplineSet
Substitution2: "'tnum' Tabular Numbers lookup 26 subtable" numbersign.tf
Substitution2: "'aalt' Access All Alternates lookup 0 subtable" numbersign.tf
EndChar

StartChar: dollar
Encoding: 36 36 7
Width: 604
GlyphClass: 2
Flags: W
LayerCount: 2
Fore
SplineSet
339 407 m 1,0,1
 379 399 379 399 405 392 c 128,-1,2
 431 385 431 385 467 369 c 128,-1,3
 503 353 503 353 524.5 332.5 c 128,-1,4
 546 312 546 312 562 277 c 128,-1,5
 578 242 578 242 578 197 c 0,6,7
 578 111 578 111 511.5 59.5 c 128,-1,8
 445 8 445 8 339 1 c 1,9,-1
 339 -80 l 1,10,-1
 281 -80 l 1,11,-1
 281 0 l 1,12,13
 186 3 186 3 125 26.5 c 128,-1,14
 64 50 64 50 12 96 c 1,15,-1
 115 235 l 1,16,17
 138 197 138 197 184 175 c 128,-1,18
 230 153 230 153 281 149 c 1,19,-1
 281 246 l 1,20,21
 251 252 251 252 234 256 c 128,-1,22
 217 260 217 260 188 268.5 c 128,-1,23
 159 277 159 277 141 286.5 c 128,-1,24
 123 296 123 296 101.5 311.5 c 128,-1,25
 80 327 80 327 68 346 c 128,-1,26
 56 365 56 365 47.5 391.5 c 128,-1,27
 39 418 39 418 39 450 c 0,28,29
 39 538 39 538 103 595 c 128,-1,30
 167 652 167 652 281 659 c 1,31,-1
 281 740 l 1,32,-1
 339 740 l 1,33,-1
 339 660 l 1,34,35
 400 657 400 657 448.5 640 c 128,-1,36
 497 623 497 623 521 606.5 c 128,-1,37
 545 590 545 590 591 552 c 1,38,-1
 490 425 l 1,39,40
 446 504 446 504 339 511 c 1,41,-1
 339 407 l 1,0,1
219 464 m 0,42,43
 219 435 219 435 281 420 c 1,44,-1
 281 510 l 1,45,46
 219 500 219 500 219 464 c 0,42,43
339 150 m 1,47,48
 399 155 399 155 399 188 c 0,49,50
 399 218 399 218 339 233 c 1,51,-1
 339 150 l 1,47,48
EndSplineSet
Substitution2: "'tnum' Tabular Numbers lookup 26 subtable" dollar.tf
Substitution2: "'aalt' Access All Alternates lookup 0 subtable" dollar.tf
EndChar

StartChar: percent
Encoding: 37 37 8
Width: 992
GlyphClass: 2
Flags: W
LayerCount: 2
Fore
SplineSet
228 670 m 128,-1,1
 320 670 320 670 376 617.5 c 128,-1,2
 432 565 432 565 432 478 c 128,-1,3
 432 391 432 391 376 338.5 c 128,-1,4
 320 286 320 286 228 286 c 128,-1,5
 136 286 136 286 80 338.5 c 128,-1,6
 24 391 24 391 24 478 c 128,-1,7
 24 565 24 565 80 617.5 c 128,-1,0
 136 670 136 670 228 670 c 128,-1,1
171 0 m 1,8,-1
 657 661 l 1,9,-1
 823 661 l 1,10,-1
 337 0 l 1,11,-1
 171 0 l 1,8,-1
228 522 m 128,-1,13
 187 522 187 522 187 478 c 128,-1,14
 187 434 187 434 228 434 c 128,-1,15
 269 434 269 434 269 478 c 128,-1,12
 269 522 269 522 228 522 c 128,-1,13
764 374 m 128,-1,17
 856 374 856 374 912 321.5 c 128,-1,18
 968 269 968 269 968 182 c 128,-1,19
 968 95 968 95 912 42.5 c 128,-1,20
 856 -10 856 -10 764 -10 c 128,-1,21
 672 -10 672 -10 616 42.5 c 128,-1,22
 560 95 560 95 560 182 c 128,-1,23
 560 269 560 269 616 321.5 c 128,-1,16
 672 374 672 374 764 374 c 128,-1,17
764 226 m 128,-1,25
 723 226 723 226 723 182 c 128,-1,26
 723 138 723 138 764 138 c 128,-1,27
 805 138 805 138 805 182 c 128,-1,24
 805 226 805 226 764 226 c 128,-1,25
EndSplineSet
EndChar

StartChar: ampersand
Encoding: 38 38 9
Width: 662
GlyphClass: 2
Flags: W
LayerCount: 2
Fore
SplineSet
652 149 m 1,0,-1
 640 -10 l 1,1,2
 574 -10 574 -10 531.5 0.5 c 128,-1,3
 489 11 489 11 442 43 c 1,4,5
 372 -10 372 -10 257 -10 c 0,6,7
 144 -10 144 -10 77.5 36 c 128,-1,8
 11 82 11 82 10 175 c 0,9,10
 9 223 9 223 35.5 269 c 128,-1,11
 62 315 62 315 125 339 c 1,12,13
 90 382 90 382 78.5 413.5 c 128,-1,14
 67 445 67 445 67 487 c 0,15,16
 67 562 67 562 126 616 c 128,-1,17
 185 670 185 670 299 670 c 0,18,19
 415 670 415 670 470 619.5 c 128,-1,20
 525 569 525 569 525 500 c 0,21,22
 525 439 525 439 487.5 391.5 c 128,-1,23
 450 344 450 344 380 320 c 1,24,-1
 409 292 l 2,25,26
 419 283 419 283 437.5 264.5 c 128,-1,27
 456 246 456 246 465 238 c 1,28,29
 478 279 478 279 478 329 c 1,30,-1
 624 329 l 1,31,32
 619 224 619 224 564 158 c 1,33,34
 603 139 603 139 652 149 c 1,0,-1
305 529 m 0,35,36
 259 529 259 529 259 477 c 0,37,38
 259 448 259 448 302 400 c 1,39,40
 348 439 348 439 348 486 c 0,41,42
 348 506 348 506 336 517.5 c 128,-1,43
 324 529 324 529 305 529 c 0,35,36
287 133 m 0,44,45
 308 133 308 133 328 136 c 1,46,-1
 307 156 l 2,47,48
 239 220 239 220 218 241 c 1,49,50
 203 222 203 222 203 191 c 0,51,52
 203 164 203 164 225 148.5 c 128,-1,53
 247 133 247 133 287 133 c 0,44,45
EndSplineSet
Substitution2: "'smcp' Lowercase to Small Capitals lookup 12 subtable" ampersand.sc
Substitution2: "'c2sc' Capitals to Small Capitals lookup 11 subtable" ampersand.sc
Substitution2: "'aalt' Access All Alternates lookup 0 subtable" ampersand.sc
EndChar

StartChar: quotesingle
Encoding: 39 39 10
Width: 260
GlyphClass: 2
Flags: W
LayerCount: 2
Fore
SplineSet
229 670 m 1,0,-1
 197 373 l 1,1,-1
 50 373 l 1,2,-1
 50 670 l 1,3,-1
 229 670 l 1,0,-1
EndSplineSet
Substitution2: "'smcp' Lowercase to Small Capitals lookup 12 subtable" quotesingle.sc
Substitution2: "'c2sc' Capitals to Small Capitals lookup 11 subtable" quotesingle.sc
Substitution2: "'aalt' Access All Alternates lookup 0 subtable" quotesingle.sc
EndChar

StartChar: parenleft
Encoding: 40 40 11
Width: 418
GlyphClass: 2
Flags: W
LayerCount: 2
Fore
SplineSet
318 726 m 1,0,-1
 421 626 l 1,1,2
 343 557 343 557 307.5 474.5 c 128,-1,3
 272 392 272 392 272 267 c 0,4,5
 272 141 272 141 307.5 58.5 c 128,-1,6
 343 -24 343 -24 421 -93 c 1,7,-1
 318 -193 l 1,8,9
 71 -54 71 -54 71 267 c 0,10,11
 71 589 71 589 318 726 c 1,0,-1
EndSplineSet
Substitution2: "'case' Case-Sensitive Forms lookup 29 subtable" parenleft.case
Substitution2: "'sups' Superscript lookup 15 subtable" uni207D
Substitution2: "'subs' Subscript lookup 14 subtable" uni208D
Substitution2: "'sinf' Scientific Inferiors lookup 13 subtable" uni208D
AlternateSubs2: "'aalt' Access All Alternates lookup 1 subtable" uni208D uni207D parenleft.case
EndChar

StartChar: parenright
Encoding: 41 41 12
Width: 418
GlyphClass: 2
Flags: W
LayerCount: 2
Fore
SplineSet
100 726 m 1,0,1
 347 589 347 589 347 267 c 0,2,3
 347 -54 347 -54 100 -193 c 1,4,-1
 -3 -93 l 1,5,6
 75 -24 75 -24 110.5 58.5 c 128,-1,7
 146 141 146 141 146 267 c 0,8,9
 146 392 146 392 110.5 474.5 c 128,-1,10
 75 557 75 557 -3 626 c 1,11,-1
 100 726 l 1,0,1
EndSplineSet
Substitution2: "'case' Case-Sensitive Forms lookup 29 subtable" parenright.case
Substitution2: "'sups' Superscript lookup 15 subtable" uni207E
Substitution2: "'subs' Subscript lookup 14 subtable" uni208E
Substitution2: "'sinf' Scientific Inferiors lookup 13 subtable" uni208E
AlternateSubs2: "'aalt' Access All Alternates lookup 1 subtable" uni208E uni207E parenright.case
EndChar

StartChar: asterisk
Encoding: 42 42 13
Width: 599
GlyphClass: 2
Flags: W
LayerCount: 2
Fore
SplineSet
412 435 m 1,0,-1
 424 425 l 1,1,-1
 515 309 l 1,2,-1
 387 216 l 1,3,-1
 305 339 l 1,4,-1
 299 354 l 1,5,-1
 293 339 l 1,6,-1
 211 216 l 1,7,-1
 83 309 l 1,8,-1
 175 425 l 1,9,-1
 187 435 l 1,10,-1
 171 436 l 1,11,-1
 29 476 l 1,12,-1
 78 627 l 1,13,-1
 216 575 l 1,14,-1
 230 566 l 1,15,-1
 226 583 l 1,16,-1
 220 730 l 1,17,-1
 378 730 l 1,18,-1
 372 583 l 1,19,-1
 368 566 l 1,20,-1
 382 575 l 1,21,-1
 521 627 l 1,22,-1
 570 476 l 1,23,-1
 427 436 l 1,24,-1
 412 435 l 1,0,-1
EndSplineSet
EndChar

StartChar: plus
Encoding: 43 43 14
Width: 604
GlyphClass: 2
Flags: W
LayerCount: 2
Fore
SplineSet
559 407 m 1,0,-1
 559 254 l 1,1,-1
 390 254 l 1,2,-1
 390 55 l 1,3,-1
 215 55 l 1,4,-1
 215 254 l 1,5,-1
 45 254 l 1,6,-1
 45 407 l 1,7,-1
 215 407 l 1,8,-1
 215 606 l 1,9,-1
 390 606 l 1,10,-1
 390 407 l 1,11,-1
 559 407 l 1,0,-1
EndSplineSet
Substitution2: "'sups' Superscript lookup 15 subtable" uni207A
Substitution2: "'subs' Subscript lookup 14 subtable" uni208A
Substitution2: "'sinf' Scientific Inferiors lookup 13 subtable" uni208A
AlternateSubs2: "'aalt' Access All Alternates lookup 1 subtable" uni208A uni207A
EndChar

StartChar: comma
Encoding: 44 44 15
Width: 306
GlyphClass: 2
Flags: W
LayerCount: 2
Fore
SplineSet
151 206 m 0,0,1
 216 206 216 206 248.5 164 c 128,-1,2
 281 122 281 122 281 57 c 0,3,4
 281 -17 281 -17 240 -76 c 128,-1,5
 199 -135 199 -135 122 -166 c 1,6,-1
 25 -104 l 1,7,8
 139 -57 139 -57 167 6 c 1,9,-1
 162 10 l 1,10,11
 149 -4 149 -4 130 -4 c 0,12,13
 89 -4 89 -4 58.5 21.5 c 128,-1,14
 28 47 28 47 28 95 c 0,15,16
 28 151 28 151 60.5 178.5 c 128,-1,17
 93 206 93 206 151 206 c 0,0,1
EndSplineSet
Substitution2: "'tnum' Tabular Numbers lookup 26 subtable" comma.tf
Substitution2: "'sups' Superscript lookup 15 subtable" commasuperior
Substitution2: "'subs' Subscript lookup 14 subtable" commainferior
Substitution2: "'sinf' Scientific Inferiors lookup 13 subtable" commainferior
AlternateSubs2: "'aalt' Access All Alternates lookup 1 subtable" commainferior commasuperior comma.tf
EndChar

StartChar: hyphen
Encoding: 45 45 16
Width: 540
GlyphClass: 2
Flags: W
LayerCount: 2
Fore
SplineSet
465 359 m 1,0,-1
 465 184 l 1,1,-1
 75 184 l 1,2,-1
 75 359 l 1,3,-1
 465 359 l 1,0,-1
EndSplineSet
Substitution2: "'case' Case-Sensitive Forms lookup 29 subtable" hyphen.case
Substitution2: "'sups' Superscript lookup 15 subtable" hyphensuperior
Substitution2: "'subs' Subscript lookup 14 subtable" hypheninferior
Substitution2: "'sinf' Scientific Inferiors lookup 13 subtable" hypheninferior
AlternateSubs2: "'aalt' Access All Alternates lookup 1 subtable" hypheninferior hyphensuperior hyphen.case
EndChar

StartChar: period
Encoding: 46 46 17
Width: 302
GlyphClass: 2
Flags: W
LayerCount: 2
Fore
SplineSet
151 206 m 128,-1,1
 210 206 210 206 242 178 c 128,-1,2
 274 150 274 150 274 99 c 128,-1,3
 274 48 274 48 242 20 c 128,-1,4
 210 -8 210 -8 151 -8 c 128,-1,5
 92 -8 92 -8 60 20 c 128,-1,6
 28 48 28 48 28 99 c 128,-1,7
 28 150 28 150 60 178 c 128,-1,0
 92 206 92 206 151 206 c 128,-1,1
EndSplineSet
Substitution2: "'tnum' Tabular Numbers lookup 26 subtable" period.tf
Substitution2: "'sups' Superscript lookup 15 subtable" periodsuperior
Substitution2: "'subs' Subscript lookup 14 subtable" periodinferior
Substitution2: "'sinf' Scientific Inferiors lookup 13 subtable" periodinferior
AlternateSubs2: "'aalt' Access All Alternates lookup 1 subtable" periodinferior periodsuperior period.tf
EndChar

StartChar: slash
Encoding: 47 47 18
Width: 488
GlyphClass: 2
Flags: W
LayerCount: 2
Fore
SplineSet
482 700 m 1,0,-1
 219 -70 l 1,1,-1
 6 -70 l 1,2,-1
 269 700 l 1,3,-1
 482 700 l 1,0,-1
EndSplineSet
Substitution2: "'frac' Diagonal Fractions lookup 18 subtable" fraction
Substitution2: "'aalt' Access All Alternates lookup 0 subtable" fraction
EndChar

StartChar: zero
Encoding: 48 48 19
Width: 604
GlyphClass: 2
Flags: W
LayerCount: 2
Fore
SplineSet
302 -10 m 128,-1,1
 24 -10 24 -10 24 330 c 128,-1,2
 24 670 24 670 302 670 c 128,-1,3
 580 670 580 670 580 330 c 128,-1,0
 580 -10 580 -10 302 -10 c 128,-1,1
302 165 m 128,-1,5
 334 165 334 165 345 198 c 128,-1,6
 356 231 356 231 356 330 c 128,-1,7
 356 429 356 429 345 462 c 128,-1,8
 334 495 334 495 302 495 c 128,-1,9
 270 495 270 495 259 462 c 128,-1,10
 248 429 248 429 248 330 c 128,-1,11
 248 231 248 231 259 198 c 128,-1,4
 270 165 270 165 302 165 c 128,-1,5
EndSplineSet
Substitution2: "'zero' Slashed Zero lookup 28 subtable" zero.zero
Substitution2: "'onum' Oldstyle Figures lookup 27 subtable" zero.osf
Substitution2: "'tnum' Tabular Numbers lookup 26 subtable" zero.tf
Substitution2: "'frac' Diagonal Fractions lookup 19 subtable" zero.numr
Substitution2: "'dnom' Denominators lookup 17 subtable" zero.dnom
Substitution2: "'numr' Numerators lookup 16 subtable" zero.numr
Substitution2: "'sups' Superscript lookup 15 subtable" uni2070
Substitution2: "'subs' Subscript lookup 14 subtable" uni2080
Substitution2: "'sinf' Scientific Inferiors lookup 13 subtable" uni2080
Substitution2: "'smcp' Lowercase to Small Capitals lookup 12 subtable" zero.sc
Substitution2: "'c2sc' Capitals to Small Capitals lookup 11 subtable" zero.sc
AlternateSubs2: "'aalt' Access All Alternates lookup 1 subtable" zero.sc uni2080 uni2070 zero.numr zero.dnom zero.tf zero.osf zero.zero
EndChar

StartChar: one
Encoding: 49 49 20
Width: 604
GlyphClass: 2
Flags: W
LayerCount: 2
Fore
SplineSet
433 169 m 1,0,-1
 574 169 l 1,1,-1
 574 0 l 1,2,-1
 58 0 l 1,3,-1
 58 169 l 1,4,-1
 223 169 l 1,5,-1
 223 454 l 1,6,7
 146 385 146 385 67 380 c 1,8,-1
 54 554 l 1,9,10
 116 560 116 560 171.5 591.5 c 128,-1,11
 227 623 227 623 252 660 c 1,12,-1
 433 660 l 1,13,-1
 433 169 l 1,0,-1
EndSplineSet
Substitution2: "'onum' Oldstyle Figures lookup 27 subtable" one.osf
Substitution2: "'tnum' Tabular Numbers lookup 26 subtable" one.tf
Substitution2: "'nalt' Alternate Annotation Forms lookup 23 subtable" uni2780
Substitution2: "'frac' Diagonal Fractions lookup 19 subtable" one.numr
Substitution2: "'dnom' Denominators lookup 17 subtable" one.dnom
Substitution2: "'numr' Numerators lookup 16 subtable" one.numr
Substitution2: "'sups' Superscript lookup 15 subtable" uni00B9
Substitution2: "'subs' Subscript lookup 14 subtable" uni2081
Substitution2: "'sinf' Scientific Inferiors lookup 13 subtable" uni2081
Substitution2: "'smcp' Lowercase to Small Capitals lookup 12 subtable" one.sc
Substitution2: "'c2sc' Capitals to Small Capitals lookup 11 subtable" one.sc
AlternateSubs2: "'aalt' Access All Alternates lookup 1 subtable" one.sc uni2081 uni00B9 one.numr one.dnom uni2780 one.tf one.osf
EndChar

StartChar: two
Encoding: 50 50 21
Width: 604
GlyphClass: 2
Flags: W
LayerCount: 2
Fore
SplineSet
41 0 m 1,0,-1
 41 140 l 1,1,2
 185 216 185 216 260.5 295 c 128,-1,3
 336 374 336 374 336 435 c 0,4,5
 336 495 336 495 282 495 c 0,6,7
 214 495 214 495 218 378 c 1,8,-1
 19 426 l 1,9,10
 17 507 17 507 54.5 563 c 128,-1,11
 92 619 92 619 154.5 644.5 c 128,-1,12
 217 670 217 670 298 670 c 0,13,14
 370 670 370 670 424 649.5 c 128,-1,15
 478 629 478 629 507.5 596 c 128,-1,16
 537 563 537 563 551 527 c 128,-1,17
 565 491 565 491 565 455 c 0,18,19
 565 286 565 286 309 165 c 1,20,-1
 309 163 l 1,21,22
 371 169 371 169 466 169 c 2,23,-1
 569 169 l 1,24,-1
 569 0 l 1,25,-1
 41 0 l 1,0,-1
EndSplineSet
Substitution2: "'onum' Oldstyle Figures lookup 27 subtable" two.osf
Substitution2: "'tnum' Tabular Numbers lookup 26 subtable" two.tf
Substitution2: "'nalt' Alternate Annotation Forms lookup 23 subtable" uni2781
Substitution2: "'frac' Diagonal Fractions lookup 19 subtable" two.numr
Substitution2: "'dnom' Denominators lookup 17 subtable" two.dnom
Substitution2: "'numr' Numerators lookup 16 subtable" two.numr
Substitution2: "'sups' Superscript lookup 15 subtable" uni00B2
Substitution2: "'subs' Subscript lookup 14 subtable" uni2082
Substitution2: "'sinf' Scientific Inferiors lookup 13 subtable" uni2082
Substitution2: "'smcp' Lowercase to Small Capitals lookup 12 subtable" two.sc
Substitution2: "'c2sc' Capitals to Small Capitals lookup 11 subtable" two.sc
AlternateSubs2: "'aalt' Access All Alternates lookup 1 subtable" two.sc uni2082 uni00B2 two.numr two.dnom uni2781 two.tf two.osf
EndChar

StartChar: three
Encoding: 51 51 22
Width: 604
GlyphClass: 2
Flags: W
LayerCount: 2
Fore
SplineSet
309 670 m 0,0,1
 428 670 428 670 493.5 620 c 128,-1,2
 559 570 559 570 559 476 c 0,3,4
 559 434 559 434 543 403 c 128,-1,5
 527 372 527 372 503.5 358 c 128,-1,6
 480 344 480 344 463 338 c 128,-1,7
 446 332 446 332 435 332 c 1,8,-1
 435 328 l 1,9,10
 445 328 445 328 457.5 326.5 c 128,-1,11
 470 325 470 325 491.5 316.5 c 128,-1,12
 513 308 513 308 529.5 293.5 c 128,-1,13
 546 279 546 279 558.5 250 c 128,-1,14
 571 221 571 221 571 182 c 0,15,16
 571 95 571 95 495 42.5 c 128,-1,17
 419 -10 419 -10 304 -10 c 0,18,19
 183 -10 183 -10 115 28.5 c 128,-1,20
 47 67 47 67 22 158 c 1,21,-1
 227 243 l 1,22,23
 225 194 225 194 243 177.5 c 128,-1,24
 261 161 261 161 293 161 c 0,25,26
 317 161 317 161 333.5 175 c 128,-1,27
 350 189 350 189 349 215 c 0,28,29
 348 260 348 260 291 260 c 2,30,-1
 247 260 l 1,31,-1
 247 392 l 1,32,-1
 279 392 l 2,33,34
 336 392 336 392 336 446 c 0,35,36
 336 470 336 470 322.5 484.5 c 128,-1,37
 309 499 309 499 289 499 c 0,38,39
 224 499 224 499 229 417 c 1,40,-1
 31 479 l 1,41,42
 52 670 52 670 309 670 c 0,0,1
EndSplineSet
Substitution2: "'onum' Oldstyle Figures lookup 27 subtable" three.osf
Substitution2: "'tnum' Tabular Numbers lookup 26 subtable" three.tf
Substitution2: "'nalt' Alternate Annotation Forms lookup 23 subtable" uni2782
Substitution2: "'frac' Diagonal Fractions lookup 19 subtable" three.numr
Substitution2: "'dnom' Denominators lookup 17 subtable" three.dnom
Substitution2: "'numr' Numerators lookup 16 subtable" three.numr
Substitution2: "'sups' Superscript lookup 15 subtable" uni00B3
Substitution2: "'subs' Subscript lookup 14 subtable" uni2083
Substitution2: "'sinf' Scientific Inferiors lookup 13 subtable" uni2083
Substitution2: "'smcp' Lowercase to Small Capitals lookup 12 subtable" three.sc
Substitution2: "'c2sc' Capitals to Small Capitals lookup 11 subtable" three.sc
AlternateSubs2: "'aalt' Access All Alternates lookup 1 subtable" three.sc uni2083 uni00B3 three.numr three.dnom uni2782 three.tf three.osf
EndChar

StartChar: four
Encoding: 52 52 23
Width: 604
GlyphClass: 2
Flags: W
LayerCount: 2
Fore
SplineSet
304 0 m 1,0,-1
 304 126 l 1,1,-1
 25 126 l 1,2,-1
 25 222 l 1,3,-1
 240 660 l 1,4,-1
 504 660 l 1,5,-1
 504 277 l 1,6,-1
 595 277 l 1,7,-1
 595 126 l 1,8,-1
 504 126 l 1,9,-1
 504 0 l 1,10,-1
 304 0 l 1,0,-1
211 277 m 1,11,-1
 313 277 l 1,12,-1
 313 338 l 2,13,14
 313 398 313 398 317 514 c 1,15,-1
 314 514 l 1,16,17
 308 492 308 492 288 444 c 2,18,-1
 211 277 l 1,11,-1
EndSplineSet
Substitution2: "'onum' Oldstyle Figures lookup 27 subtable" four.osf
Substitution2: "'tnum' Tabular Numbers lookup 26 subtable" four.tf
Substitution2: "'nalt' Alternate Annotation Forms lookup 23 subtable" uni2783
Substitution2: "'frac' Diagonal Fractions lookup 19 subtable" four.numr
Substitution2: "'dnom' Denominators lookup 17 subtable" four.dnom
Substitution2: "'numr' Numerators lookup 16 subtable" four.numr
Substitution2: "'sups' Superscript lookup 15 subtable" uni2074
Substitution2: "'subs' Subscript lookup 14 subtable" uni2084
Substitution2: "'sinf' Scientific Inferiors lookup 13 subtable" uni2084
Substitution2: "'smcp' Lowercase to Small Capitals lookup 12 subtable" four.sc
Substitution2: "'c2sc' Capitals to Small Capitals lookup 11 subtable" four.sc
AlternateSubs2: "'aalt' Access All Alternates lookup 1 subtable" four.sc uni2084 uni2074 four.numr four.dnom uni2783 four.tf four.osf
EndChar

StartChar: five
Encoding: 53 53 24
Width: 604
GlyphClass: 2
Flags: W
LayerCount: 2
Fore
SplineSet
366 428 m 0,0,1
 463 428 463 428 517.5 374.5 c 128,-1,2
 572 321 572 321 572 236 c 128,-1,3
 572 151 572 151 531 94 c 128,-1,4
 490 37 490 37 429.5 13.5 c 128,-1,5
 369 -10 369 -10 295 -10 c 0,6,7
 201 -10 201 -10 134.5 15.5 c 128,-1,8
 68 41 68 41 18 109 c 1,9,-1
 218 225 l 1,10,11
 223 189 223 189 240 172.5 c 128,-1,12
 257 156 257 156 298 156 c 0,13,14
 369 156 369 156 369 220 c 0,15,16
 369 280 369 280 295 280 c 0,17,18
 244 280 244 280 218 257 c 1,19,-1
 48 289 l 1,20,-1
 92 660 l 1,21,-1
 531 660 l 1,22,-1
 531 489 l 1,23,-1
 255 489 l 1,24,-1
 246 421 l 2,25,26
 244 405 244 405 239 386 c 1,27,-1
 240 386 l 1,28,29
 275 428 275 428 366 428 c 0,0,1
EndSplineSet
Substitution2: "'onum' Oldstyle Figures lookup 27 subtable" five.osf
Substitution2: "'tnum' Tabular Numbers lookup 26 subtable" five.tf
Substitution2: "'nalt' Alternate Annotation Forms lookup 23 subtable" uni2784
Substitution2: "'frac' Diagonal Fractions lookup 19 subtable" five.numr
Substitution2: "'dnom' Denominators lookup 17 subtable" five.dnom
Substitution2: "'numr' Numerators lookup 16 subtable" five.numr
Substitution2: "'sups' Superscript lookup 15 subtable" uni2075
Substitution2: "'subs' Subscript lookup 14 subtable" uni2085
Substitution2: "'sinf' Scientific Inferiors lookup 13 subtable" uni2085
Substitution2: "'smcp' Lowercase to Small Capitals lookup 12 subtable" five.sc
Substitution2: "'c2sc' Capitals to Small Capitals lookup 11 subtable" five.sc
AlternateSubs2: "'aalt' Access All Alternates lookup 1 subtable" five.sc uni2085 uni2075 five.numr five.dnom uni2784 five.tf five.osf
EndChar

StartChar: six
Encoding: 54 54 25
Width: 604
GlyphClass: 2
Flags: W
LayerCount: 2
Fore
SplineSet
334 670 m 0,0,1
 526 670 526 670 579 519 c 1,2,-1
 393 432 l 1,3,4
 382 493 382 493 321 493 c 0,5,6
 285 493 285 493 264 460 c 128,-1,7
 243 427 243 427 243 359 c 2,8,-1
 243 342 l 1,9,-1
 245 342 l 1,10,11
 278 406 278 406 391 406 c 0,12,13
 477 406 477 406 531 351.5 c 128,-1,14
 585 297 585 297 585 207 c 0,15,16
 585 107 585 107 517 48.5 c 128,-1,17
 449 -10 449 -10 330 -10 c 0,18,19
 186 -10 186 -10 111 75 c 128,-1,20
 36 160 36 160 36 330 c 0,21,22
 36 504 36 504 117 587 c 128,-1,23
 198 670 198 670 334 670 c 0,0,1
325 265 m 128,-1,25
 269 265 269 265 269 209 c 128,-1,26
 269 153 269 153 325 153 c 128,-1,27
 381 153 381 153 381 209 c 128,-1,24
 381 265 381 265 325 265 c 128,-1,25
EndSplineSet
Substitution2: "'onum' Oldstyle Figures lookup 27 subtable" six.osf
Substitution2: "'tnum' Tabular Numbers lookup 26 subtable" six.tf
Substitution2: "'nalt' Alternate Annotation Forms lookup 23 subtable" uni2785
Substitution2: "'frac' Diagonal Fractions lookup 19 subtable" six.numr
Substitution2: "'dnom' Denominators lookup 17 subtable" six.dnom
Substitution2: "'numr' Numerators lookup 16 subtable" six.numr
Substitution2: "'sups' Superscript lookup 15 subtable" uni2076
Substitution2: "'subs' Subscript lookup 14 subtable" uni2086
Substitution2: "'sinf' Scientific Inferiors lookup 13 subtable" uni2086
Substitution2: "'smcp' Lowercase to Small Capitals lookup 12 subtable" six.sc
Substitution2: "'c2sc' Capitals to Small Capitals lookup 11 subtable" six.sc
AlternateSubs2: "'aalt' Access All Alternates lookup 1 subtable" six.sc uni2086 uni2076 six.numr six.dnom uni2785 six.tf six.osf
EndChar

StartChar: seven
Encoding: 55 55 26
Width: 604
GlyphClass: 2
Flags: W
LayerCount: 2
Fore
SplineSet
28 660 m 1,0,-1
 573 660 l 1,1,-1
 573 506 l 1,2,3
 462 387 462 387 426 286.5 c 128,-1,4
 390 186 390 186 390 0 c 1,5,-1
 159 0 l 1,6,7
 159 155 159 155 208 268 c 128,-1,8
 257 381 257 381 363 485 c 1,9,-1
 28 485 l 1,10,-1
 28 660 l 1,0,-1
EndSplineSet
Substitution2: "'onum' Oldstyle Figures lookup 27 subtable" seven.osf
Substitution2: "'tnum' Tabular Numbers lookup 26 subtable" seven.tf
Substitution2: "'nalt' Alternate Annotation Forms lookup 23 subtable" uni2786
Substitution2: "'frac' Diagonal Fractions lookup 19 subtable" seven.numr
Substitution2: "'dnom' Denominators lookup 17 subtable" seven.dnom
Substitution2: "'numr' Numerators lookup 16 subtable" seven.numr
Substitution2: "'sups' Superscript lookup 15 subtable" uni2077
Substitution2: "'subs' Subscript lookup 14 subtable" uni2087
Substitution2: "'sinf' Scientific Inferiors lookup 13 subtable" uni2087
Substitution2: "'smcp' Lowercase to Small Capitals lookup 12 subtable" seven.sc
Substitution2: "'c2sc' Capitals to Small Capitals lookup 11 subtable" seven.sc
AlternateSubs2: "'aalt' Access All Alternates lookup 1 subtable" seven.sc uni2087 uni2077 seven.numr seven.dnom uni2786 seven.tf seven.osf
EndChar

StartChar: eight
Encoding: 56 56 27
Width: 604
GlyphClass: 2
Flags: W
LayerCount: 2
Fore
SplineSet
302 667 m 128,-1,1
 423 667 423 667 492 615.5 c 128,-1,2
 561 564 561 564 561 474 c 0,3,4
 561 373 561 373 454 331 c 1,5,-1
 454 330 l 1,6,7
 573 290 573 290 573 183 c 0,8,9
 573 91 573 91 502 40.5 c 128,-1,10
 431 -10 431 -10 302 -10 c 128,-1,11
 173 -10 173 -10 102 40.5 c 128,-1,12
 31 91 31 91 31 183 c 0,13,14
 31 290 31 290 150 330 c 1,15,-1
 150 331 l 1,16,17
 100 350 100 350 71.5 387 c 128,-1,18
 43 424 43 424 43 474 c 0,19,20
 43 564 43 564 112 615.5 c 128,-1,0
 181 667 181 667 302 667 c 128,-1,1
302 511 m 128,-1,22
 242 511 242 511 242 455 c 128,-1,23
 242 399 242 399 302 399 c 128,-1,24
 362 399 362 399 362 455 c 128,-1,21
 362 511 362 511 302 511 c 128,-1,22
303 146 m 128,-1,26
 363 146 363 146 363 202 c 128,-1,27
 363 258 363 258 303 258 c 128,-1,28
 243 258 243 258 243 202 c 128,-1,25
 243 146 243 146 303 146 c 128,-1,26
EndSplineSet
Substitution2: "'onum' Oldstyle Figures lookup 27 subtable" eight.osf
Substitution2: "'tnum' Tabular Numbers lookup 26 subtable" eight.tf
Substitution2: "'nalt' Alternate Annotation Forms lookup 23 subtable" uni2787
Substitution2: "'frac' Diagonal Fractions lookup 19 subtable" eight.numr
Substitution2: "'dnom' Denominators lookup 17 subtable" eight.dnom
Substitution2: "'numr' Numerators lookup 16 subtable" eight.numr
Substitution2: "'sups' Superscript lookup 15 subtable" uni2078
Substitution2: "'subs' Subscript lookup 14 subtable" uni2088
Substitution2: "'sinf' Scientific Inferiors lookup 13 subtable" uni2088
Substitution2: "'smcp' Lowercase to Small Capitals lookup 12 subtable" eight.sc
Substitution2: "'c2sc' Capitals to Small Capitals lookup 11 subtable" eight.sc
AlternateSubs2: "'aalt' Access All Alternates lookup 1 subtable" eight.sc uni2088 uni2078 eight.numr eight.dnom uni2787 eight.tf eight.osf
EndChar

StartChar: nine
Encoding: 57 57 28
Width: 604
GlyphClass: 2
Flags: W
LayerCount: 2
Fore
SplineSet
292 670 m 0,0,1
 574 670 574 670 574 324 c 0,2,3
 574 145 574 145 502 67.5 c 128,-1,4
 430 -10 430 -10 286 -10 c 0,5,6
 91 -10 91 -10 33 131 c 1,7,-1
 241 204 l 1,8,9
 249 157 249 157 298 157 c 0,10,11
 369 157 369 157 369 274 c 2,12,-1
 369 295 l 1,13,-1
 366 295 l 1,14,15
 336 236 336 236 234 232 c 0,16,17
 142 228 142 228 83 284 c 128,-1,18
 24 340 24 340 24 440 c 0,19,20
 24 547 24 547 94.5 608.5 c 128,-1,21
 165 670 165 670 292 670 c 0,0,1
287 497 m 128,-1,23
 231 497 231 497 231 441 c 128,-1,24
 231 385 231 385 287 385 c 128,-1,25
 343 385 343 385 343 441 c 128,-1,22
 343 497 343 497 287 497 c 128,-1,23
EndSplineSet
Substitution2: "'onum' Oldstyle Figures lookup 27 subtable" nine.osf
Substitution2: "'tnum' Tabular Numbers lookup 26 subtable" nine.tf
Substitution2: "'nalt' Alternate Annotation Forms lookup 23 subtable" uni2788
Substitution2: "'frac' Diagonal Fractions lookup 19 subtable" nine.numr
Substitution2: "'dnom' Denominators lookup 17 subtable" nine.dnom
Substitution2: "'numr' Numerators lookup 16 subtable" nine.numr
Substitution2: "'sups' Superscript lookup 15 subtable" uni2079
Substitution2: "'subs' Subscript lookup 14 subtable" uni2089
Substitution2: "'sinf' Scientific Inferiors lookup 13 subtable" uni2089
Substitution2: "'smcp' Lowercase to Small Capitals lookup 12 subtable" nine.sc
Substitution2: "'c2sc' Capitals to Small Capitals lookup 11 subtable" nine.sc
AlternateSubs2: "'aalt' Access All Alternates lookup 1 subtable" nine.sc uni2089 uni2079 nine.numr nine.dnom uni2788 nine.tf nine.osf
EndChar

StartChar: colon
Encoding: 58 58 29
Width: 302
GlyphClass: 2
Flags: W
LayerCount: 2
Fore
SplineSet
151 510 m 128,-1,1
 210 510 210 510 242 482 c 128,-1,2
 274 454 274 454 274 403 c 128,-1,3
 274 352 274 352 242 324 c 128,-1,4
 210 296 210 296 151 296 c 128,-1,5
 92 296 92 296 60 324 c 128,-1,6
 28 352 28 352 28 403 c 128,-1,7
 28 454 28 454 60 482 c 128,-1,0
 92 510 92 510 151 510 c 128,-1,1
151 206 m 128,-1,9
 210 206 210 206 242 178 c 128,-1,10
 274 150 274 150 274 99 c 128,-1,11
 274 48 274 48 242 20 c 128,-1,12
 210 -8 210 -8 151 -8 c 128,-1,13
 92 -8 92 -8 60 20 c 128,-1,14
 28 48 28 48 28 99 c 128,-1,15
 28 150 28 150 60 178 c 128,-1,8
 92 206 92 206 151 206 c 128,-1,9
EndSplineSet
Substitution2: "'tnum' Tabular Numbers lookup 26 subtable" colon.tf
Substitution2: "'sups' Superscript lookup 15 subtable" colonsuperior
Substitution2: "'subs' Subscript lookup 14 subtable" coloninferior
Substitution2: "'sinf' Scientific Inferiors lookup 13 subtable" coloninferior
AlternateSubs2: "'aalt' Access All Alternates lookup 1 subtable" coloninferior colonsuperior colon.tf
EndChar

StartChar: semicolon
Encoding: 59 59 30
Width: 302
GlyphClass: 2
Flags: W
LayerCount: 2
Fore
SplineSet
152 296 m 128,-1,1
 93 296 93 296 61 324 c 128,-1,2
 29 352 29 352 29 403 c 128,-1,3
 29 454 29 454 61 482 c 128,-1,4
 93 510 93 510 152 510 c 128,-1,5
 211 510 211 510 243 482 c 128,-1,6
 275 454 275 454 275 403 c 128,-1,7
 275 352 275 352 243 324 c 128,-1,0
 211 296 211 296 152 296 c 128,-1,1
149 206 m 0,8,9
 214 206 214 206 246.5 164 c 128,-1,10
 279 122 279 122 279 57 c 0,11,12
 279 -17 279 -17 238 -76 c 128,-1,13
 197 -135 197 -135 120 -166 c 1,14,-1
 23 -104 l 1,15,16
 137 -57 137 -57 165 6 c 1,17,-1
 160 10 l 1,18,19
 147 -4 147 -4 128 -4 c 0,20,21
 87 -4 87 -4 56.5 21.5 c 128,-1,22
 26 47 26 47 26 95 c 0,23,24
 26 151 26 151 58.5 178.5 c 128,-1,25
 91 206 91 206 149 206 c 0,8,9
EndSplineSet
Substitution2: "'tnum' Tabular Numbers lookup 26 subtable" semicolon.tf
Substitution2: "'aalt' Access All Alternates lookup 0 subtable" semicolon.tf
EndChar

StartChar: less
Encoding: 60 60 31
Width: 604
GlyphClass: 2
Flags: W
LayerCount: 2
Fore
SplineSet
557 599 m 1,0,-1
 557 386 l 1,1,-1
 235 295 l 1,2,-1
 557 203 l 1,3,-1
 557 -10 l 1,4,-1
 57 203 l 1,5,-1
 57 386 l 1,6,-1
 557 599 l 1,0,-1
EndSplineSet
EndChar

StartChar: equal
Encoding: 61 61 32
Width: 604
GlyphClass: 2
Flags: W
LayerCount: 2
Fore
SplineSet
539 511 m 1,0,-1
 539 366 l 1,1,-1
 65 366 l 1,2,-1
 65 511 l 1,3,-1
 539 511 l 1,0,-1
539 284 m 1,4,-1
 539 139 l 1,5,-1
 65 139 l 1,6,-1
 65 284 l 1,7,-1
 539 284 l 1,4,-1
EndSplineSet
Substitution2: "'sups' Superscript lookup 15 subtable" uni207C
Substitution2: "'subs' Subscript lookup 14 subtable" uni208C
Substitution2: "'sinf' Scientific Inferiors lookup 13 subtable" uni208C
AlternateSubs2: "'aalt' Access All Alternates lookup 1 subtable" uni208C uni207C
EndChar

StartChar: greater
Encoding: 62 62 33
Width: 604
GlyphClass: 2
Flags: W
LayerCount: 2
Fore
SplineSet
47 599 m 1,0,-1
 547 386 l 1,1,-1
 547 203 l 1,2,-1
 47 -10 l 1,3,-1
 47 203 l 1,4,-1
 369 295 l 1,5,-1
 47 386 l 1,6,-1
 47 599 l 1,0,-1
EndSplineSet
EndChar

StartChar: question
Encoding: 63 63 34
Width: 651
GlyphClass: 2
Flags: W
LayerCount: 2
Fore
SplineSet
331 670 m 0,0,1
 614 670 614 670 614 481 c 0,2,3
 614 387 614 387 563.5 343.5 c 128,-1,4
 513 300 513 300 422 290 c 1,5,-1
 405 218 l 1,6,-1
 218 218 l 1,7,-1
 202 372 l 1,8,9
 364 376 364 376 364 445 c 0,10,11
 364 490 364 490 316 490 c 0,12,13
 255 490 255 490 254 413 c 1,14,-1
 28 490 l 1,15,16
 35 571 35 571 107 620.5 c 128,-1,17
 179 670 179 670 331 670 c 0,0,1
313 185 m 128,-1,19
 369 185 369 185 399.5 160 c 128,-1,20
 430 135 430 135 430 89 c 128,-1,21
 430 43 430 43 399.5 18 c 128,-1,22
 369 -7 369 -7 313 -7 c 128,-1,23
 257 -7 257 -7 226.5 18 c 128,-1,24
 196 43 196 43 196 89 c 128,-1,25
 196 135 196 135 226.5 160 c 128,-1,18
 257 185 257 185 313 185 c 128,-1,19
EndSplineSet
Substitution2: "'smcp' Lowercase to Small Capitals lookup 12 subtable" question.sc
Substitution2: "'c2sc' Capitals to Small Capitals lookup 11 subtable" question.sc
Substitution2: "'aalt' Access All Alternates lookup 0 subtable" question.sc
EndChar

StartChar: at
Encoding: 64 64 35
Width: 920
GlyphClass: 2
Flags: W
LayerCount: 2
Fore
SplineSet
484 660 m 0,0,1
 662 660 662 660 771.5 557.5 c 128,-1,2
 881 455 881 455 881 260 c 0,3,4
 881 191 881 191 861 139 c 128,-1,5
 841 87 841 87 807 59 c 128,-1,6
 773 31 773 31 735 17.5 c 128,-1,7
 697 4 697 4 655 4 c 0,8,9
 543 4 543 4 500 84 c 1,10,11
 448 4 448 4 362 4 c 0,12,13
 288 4 288 4 247 54.5 c 128,-1,14
 206 105 206 105 206 183 c 0,15,16
 206 324 206 324 269.5 396.5 c 128,-1,17
 333 469 333 469 436 469 c 0,18,19
 477 469 477 469 498.5 446 c 128,-1,20
 520 423 520 423 523 398 c 1,21,-1
 544 457 l 1,22,-1
 713 457 l 1,23,-1
 665 187 l 2,24,25
 658 143 658 143 667.5 126 c 128,-1,26
 677 109 677 109 709 109 c 0,27,28
 744 109 744 109 768.5 148.5 c 128,-1,29
 793 188 793 188 793 260 c 0,30,31
 793 419 793 419 709.5 496.5 c 128,-1,32
 626 574 626 574 484 574 c 0,33,34
 328 574 328 574 231.5 481 c 128,-1,35
 135 388 135 388 135 223 c 0,36,37
 135 73 135 73 225.5 -9.5 c 128,-1,38
 316 -92 316 -92 440 -92 c 0,39,40
 515 -92 515 -92 556.5 -79.5 c 128,-1,41
 598 -67 598 -67 632 -41 c 1,42,-1
 680 -110 l 1,43,44
 632 -144 632 -144 579 -160 c 128,-1,45
 526 -176 526 -176 435 -176 c 0,46,47
 262 -176 262 -176 150 -71 c 128,-1,48
 38 34 38 34 38 223 c 0,49,50
 38 420 38 420 164 540 c 128,-1,51
 290 660 290 660 484 660 c 0,0,1
463 325 m 0,52,53
 440 325 440 325 420.5 293.5 c 128,-1,54
 401 262 401 262 401 214 c 0,55,56
 401 157 401 157 434 157 c 0,57,58
 463 157 463 157 467 185 c 2,59,-1
 482 287 l 2,60,61
 485 308 485 308 480.5 316.5 c 128,-1,62
 476 325 476 325 463 325 c 0,52,53
EndSplineSet
Substitution2: "'case' Case-Sensitive Forms lookup 29 subtable" at.case
Substitution2: "'aalt' Access All Alternates lookup 0 subtable" at.case
EndChar

StartChar: A
Encoding: 65 65 36
Width: 689
GlyphClass: 2
Flags: W
LayerCount: 2
Fore
SplineSet
461 0 m 1,0,-1
 431 126 l 1,1,-1
 253 126 l 1,2,-1
 222 0 l 1,3,-1
 -10 0 l 1,4,-1
 204 660 l 1,5,-1
 484 660 l 1,6,-1
 699 0 l 1,7,-1
 461 0 l 1,0,-1
288 271 m 1,8,-1
 397 271 l 1,9,-1
 344 491 l 1,10,-1
 341 491 l 1,11,-1
 315 379 l 1,12,-1
 288 271 l 1,8,-1
EndSplineSet
Substitution2: "Single Substitution lookup 56 subtable" A.swsh
Substitution2: "Single Substitution lookup 55 subtable" ordfeminine
Substitution2: "'swsh' Swash lookup 32 subtable" A.swsh
Substitution2: "'c2sc' Capitals to Small Capitals lookup 11 subtable" a.sc
AlternateSubs2: "'aalt' Access All Alternates lookup 1 subtable" a.sc ordfeminine A.swsh
EndChar

StartChar: B
Encoding: 66 66 37
Width: 704
GlyphClass: 2
Flags: W
LayerCount: 2
Fore
SplineSet
50 0 m 1,0,-1
 50 660 l 1,1,-1
 428 660 l 2,2,3
 675 659 675 659 675 484 c 0,4,5
 675 423 675 423 637.5 382.5 c 128,-1,6
 600 342 600 342 526 332 c 1,7,-1
 526 331 l 1,8,9
 610 322 610 322 651 281 c 128,-1,10
 692 240 692 240 692 174 c 0,11,12
 692 0 692 0 454 0 c 2,13,-1
 50 0 l 1,0,-1
273 404 m 1,14,-1
 375 404 l 2,15,16
 437 404 437 404 437 452 c 128,-1,17
 437 500 437 500 375 500 c 2,18,-1
 273 500 l 1,19,-1
 273 404 l 1,14,-1
273 152 m 1,20,-1
 392 152 l 2,21,22
 454 152 454 152 454 201 c 0,23,24
 454 248 454 248 392 248 c 2,25,-1
 273 248 l 1,26,-1
 273 152 l 1,20,-1
EndSplineSet
Substitution2: "'c2sc' Capitals to Small Capitals lookup 11 subtable" b.sc
Substitution2: "'aalt' Access All Alternates lookup 0 subtable" b.sc
EndChar

StartChar: C
Encoding: 67 67 38
Width: 677
GlyphClass: 2
Flags: W
LayerCount: 2
Fore
SplineSet
670 202 m 1,0,1
 619 -10 619 -10 365 -10 c 0,2,3
 207 -10 207 -10 118 79.5 c 128,-1,4
 29 169 29 169 29 330 c 128,-1,5
 29 491 29 491 118 580.5 c 128,-1,6
 207 670 207 670 365 670 c 0,7,8
 481 670 481 670 563 620.5 c 128,-1,9
 645 571 645 571 665 470 c 1,10,-1
 465 392 l 1,11,12
 457 453 457 453 436 474 c 128,-1,13
 415 495 415 495 371 495 c 0,14,15
 267 495 267 495 267 330 c 0,16,17
 267 245 267 245 292 205 c 128,-1,18
 317 165 317 165 369 165 c 0,19,20
 416 165 416 165 437 186 c 128,-1,21
 458 207 458 207 464 255 c 1,22,-1
 670 202 l 1,0,1
EndSplineSet
Substitution2: "'c2sc' Capitals to Small Capitals lookup 11 subtable" c.sc
Substitution2: "'aalt' Access All Alternates lookup 0 subtable" c.sc
EndChar

StartChar: D
Encoding: 68 68 39
Width: 716
GlyphClass: 2
Flags: W
LayerCount: 2
Fore
SplineSet
374 660 m 2,0,1
 528 660 528 660 607.5 574.5 c 128,-1,2
 687 489 687 489 687 330 c 128,-1,3
 687 171 687 171 607.5 85.5 c 128,-1,4
 528 0 528 0 374 0 c 2,5,-1
 50 0 l 1,6,-1
 50 660 l 1,7,-1
 374 660 l 2,0,1
341 166 m 2,8,9
 403 166 403 166 426 204 c 128,-1,10
 449 242 449 242 449 330 c 128,-1,11
 449 418 449 418 426 456 c 128,-1,12
 403 494 403 494 341 494 c 2,13,-1
 283 494 l 1,14,-1
 283 166 l 1,15,-1
 341 166 l 2,8,9
EndSplineSet
Substitution2: "'c2sc' Capitals to Small Capitals lookup 11 subtable" d.sc
Substitution2: "'aalt' Access All Alternates lookup 0 subtable" d.sc
EndChar

StartChar: E
Encoding: 69 69 40
Width: 626
GlyphClass: 2
Flags: W
AnchorPoint: "Anchor-0" 329 0 basechar 0
LayerCount: 2
Fore
SplineSet
283 171 m 1,0,-1
 610 171 l 1,1,-1
 610 0 l 1,2,-1
 50 0 l 1,3,-1
 50 660 l 1,4,-1
 598 660 l 1,5,-1
 598 489 l 1,6,-1
 283 489 l 1,7,-1
 283 407 l 1,8,-1
 537 407 l 1,9,-1
 537 249 l 1,10,-1
 283 249 l 1,11,-1
 283 171 l 1,0,-1
EndSplineSet
Substitution2: "Single Substitution lookup 57 subtable" E.swsh.001
Substitution2: "Single Substitution lookup 56 subtable" E.swsh
AlternateSubs2: "'swsh' Swash lookup 33 subtable" E.swsh E.swsh.001
Substitution2: "'c2sc' Capitals to Small Capitals lookup 11 subtable" e.sc
AlternateSubs2: "'aalt' Access All Alternates lookup 1 subtable" e.sc E.swsh E.swsh.001
EndChar

StartChar: F
Encoding: 70 70 41
Width: 614
GlyphClass: 2
Flags: W
LayerCount: 2
Fore
SplineSet
597 489 m 1,0,-1
 283 489 l 1,1,-1
 283 397 l 1,2,-1
 537 397 l 1,3,-1
 537 226 l 1,4,-1
 283 226 l 1,5,-1
 283 0 l 1,6,-1
 50 0 l 1,7,-1
 50 660 l 1,8,-1
 597 660 l 1,9,-1
 597 489 l 1,0,-1
EndSplineSet
Substitution2: "Single Substitution lookup 56 subtable" F.swsh
Substitution2: "'swsh' Swash lookup 34 subtable" F.swsh
Substitution2: "'c2sc' Capitals to Small Capitals lookup 11 subtable" f.sc
AlternateSubs2: "'aalt' Access All Alternates lookup 1 subtable" f.sc F.swsh
EndChar

StartChar: G
Encoding: 71 71 42
Width: 722
GlyphClass: 2
Flags: W
AnchorPoint: "Anchor-0" 379 0 basechar 0
LayerCount: 2
Fore
SplineSet
371 229 m 1,0,-1
 371 372 l 1,1,-1
 677 372 l 1,2,-1
 677 0 l 1,3,-1
 523 0 l 1,4,-1
 515 75 l 1,5,6
 464 -10 464 -10 336 -10 c 0,7,8
 201 -10 201 -10 115 78 c 128,-1,9
 29 166 29 166 29 328 c 128,-1,10
 29 490 29 490 119.5 580 c 128,-1,11
 210 670 210 670 371 670 c 0,12,13
 494 670 494 670 566.5 628 c 128,-1,14
 639 586 639 586 679 489 c 1,15,-1
 462 411 l 1,16,17
 449 495 449 495 379 495 c 0,18,19
 321 495 321 495 294 455.5 c 128,-1,20
 267 416 267 416 267 330 c 0,21,22
 267 238 267 238 296 198.5 c 128,-1,23
 325 159 325 159 387 159 c 0,24,25
 431 159 431 159 456.5 176.5 c 128,-1,26
 482 194 482 194 482 228 c 2,27,-1
 482 229 l 1,28,-1
 371 229 l 1,0,-1
EndSplineSet
Substitution2: "'ss04' Style Set 4 lookup 50 subtable" G.ss04
Substitution2: "'salt' Stylistic Alternatives lookup 42 subtable" G.ss04
Substitution2: "'c2sc' Capitals to Small Capitals lookup 11 subtable" g.sc
AlternateSubs2: "'aalt' Access All Alternates lookup 1 subtable" g.sc G.ss04
EndChar

StartChar: H
Encoding: 72 72 43
Width: 747
GlyphClass: 2
Flags: W
LayerCount: 2
Fore
SplineSet
464 660 m 1,0,-1
 697 660 l 1,1,-1
 697 0 l 1,2,-1
 464 0 l 1,3,-1
 464 246 l 1,4,-1
 283 246 l 1,5,-1
 283 0 l 1,6,-1
 50 0 l 1,7,-1
 50 660 l 1,8,-1
 283 660 l 1,9,-1
 283 417 l 1,10,-1
 464 417 l 1,11,-1
 464 660 l 1,0,-1
EndSplineSet
Substitution2: "'sups' Superscript lookup 15 subtable" Hsuperior
Substitution2: "'subs' Subscript lookup 14 subtable" Hinferior
Substitution2: "'sinf' Scientific Inferiors lookup 13 subtable" Hinferior
Substitution2: "'c2sc' Capitals to Small Capitals lookup 11 subtable" h.sc
AlternateSubs2: "'aalt' Access All Alternates lookup 1 subtable" h.sc Hinferior Hsuperior
EndChar

StartChar: I
Encoding: 73 73 44
Width: 333
GlyphClass: 2
Flags: W
LayerCount: 2
Fore
SplineSet
283 660 m 1,0,-1
 283 0 l 1,1,-1
 50 0 l 1,2,-1
 50 660 l 1,3,-1
 283 660 l 1,0,-1
EndSplineSet
Substitution2: "'c2sc' Capitals to Small Capitals lookup 11 subtable" i.sc
Substitution2: "'aalt' Access All Alternates lookup 0 subtable" i.sc
EndChar

StartChar: J
Encoding: 74 74 45
Width: 657
GlyphClass: 2
Flags: W
LayerCount: 2
Fore
SplineSet
622 660 m 1,0,-1
 622 272 l 2,1,2
 622 137 622 137 540 63.5 c 128,-1,3
 458 -10 458 -10 308 -10 c 0,4,5
 142 -10 142 -10 73.5 72 c 128,-1,6
 5 154 5 154 29 290 c 1,7,-1
 262 329 l 1,8,9
 250 238 250 238 265 201.5 c 128,-1,10
 280 165 280 165 323 165 c 0,11,12
 357 165 357 165 373 194.5 c 128,-1,13
 389 224 389 224 389 289 c 2,14,-1
 389 660 l 1,15,-1
 622 660 l 1,0,-1
EndSplineSet
Substitution2: "'c2sc' Capitals to Small Capitals lookup 11 subtable" j.sc
Substitution2: "'aalt' Access All Alternates lookup 0 subtable" j.sc
EndChar

StartChar: K
Encoding: 75 75 46
Width: 717
GlyphClass: 2
Flags: W
AnchorPoint: "Anchor-0" 356 0 basechar 0
LayerCount: 2
Fore
SplineSet
460 0 m 1,0,-1
 337 247 l 1,1,-1
 283 173 l 1,2,-1
 283 0 l 1,3,-1
 50 0 l 1,4,-1
 50 660 l 1,5,-1
 283 660 l 1,6,-1
 283 414 l 1,7,-1
 455 660 l 1,8,-1
 703 660 l 1,9,-1
 501 398 l 1,10,-1
 721 0 l 1,11,-1
 460 0 l 1,0,-1
EndSplineSet
Substitution2: "'c2sc' Capitals to Small Capitals lookup 11 subtable" k.sc
Substitution2: "'aalt' Access All Alternates lookup 0 subtable" k.sc
EndChar

StartChar: L
Encoding: 76 76 47
Width: 605
GlyphClass: 2
Flags: W
AnchorPoint: "Anchor-0" 318 0 basechar 0
LayerCount: 2
Fore
SplineSet
283 171 m 1,0,-1
 582 171 l 1,1,-1
 582 0 l 1,2,-1
 50 0 l 1,3,-1
 50 660 l 1,4,-1
 283 660 l 1,5,-1
 283 171 l 1,0,-1
EndSplineSet
Substitution2: "Single Substitution lookup 57 subtable" L.swsh
Substitution2: "'swsh' Swash lookup 34 subtable" L.swsh
Substitution2: "'c2sc' Capitals to Small Capitals lookup 11 subtable" l.sc
AlternateSubs2: "'aalt' Access All Alternates lookup 1 subtable" l.sc L.swsh
Position2: "Single Positioning lookup 6 subtable" dx=0 dy=0 dh=-152 dv=0
EndChar

StartChar: M
Encoding: 77 77 48
Width: 948
GlyphClass: 2
Flags: W
LayerCount: 2
Fore
SplineSet
898 660 m 1,0,-1
 898 0 l 1,1,-1
 695 0 l 1,2,-1
 695 229 l 1,3,-1
 698 451 l 1,4,-1
 695 451 l 1,5,-1
 567 0 l 1,6,-1
 381 0 l 1,7,-1
 255 451 l 1,8,-1
 251 451 l 1,9,-1
 254 229 l 1,10,-1
 254 0 l 1,11,-1
 50 0 l 1,12,-1
 50 660 l 1,13,-1
 376 660 l 1,14,-1
 452 367 l 1,15,-1
 481 244 l 1,16,-1
 483 244 l 1,17,-1
 512 367 l 1,18,-1
 588 660 l 1,19,-1
 898 660 l 1,0,-1
EndSplineSet
Substitution2: "Single Substitution lookup 56 subtable" M.swsh
AlternateSubs2: "'swsh' Swash lookup 35 subtable" M.swsh M.swsh.001
Substitution2: "'c2sc' Capitals to Small Capitals lookup 11 subtable" m.sc
AlternateSubs2: "'aalt' Access All Alternates lookup 1 subtable" m.sc M.swsh M.swsh.001
EndChar

StartChar: N
Encoding: 78 78 49
Width: 746
GlyphClass: 2
Flags: W
AnchorPoint: "Anchor-0" 374 0 basechar 0
LayerCount: 2
Fore
SplineSet
696 660 m 1,0,-1
 696 0 l 1,1,-1
 444 0 l 1,2,-1
 286 300 l 1,3,-1
 250 381 l 1,4,-1
 248 381 l 1,5,-1
 252 245 l 1,6,-1
 252 0 l 1,7,-1
 50 0 l 1,8,-1
 50 660 l 1,9,-1
 302 660 l 1,10,-1
 460 359 l 1,11,-1
 496 279 l 1,12,-1
 498 279 l 1,13,-1
 494 415 l 1,14,-1
 494 660 l 1,15,-1
 696 660 l 1,0,-1
EndSplineSet
Substitution2: "Single Substitution lookup 57 subtable" N.swsh
Substitution2: "'swsh' Swash lookup 36 subtable" N.swsh
Substitution2: "'c2sc' Capitals to Small Capitals lookup 11 subtable" n.sc
AlternateSubs2: "'aalt' Access All Alternates lookup 1 subtable" n.sc N.swsh
EndChar

StartChar: O
Encoding: 79 79 50
Width: 729
GlyphClass: 2
Flags: W
LayerCount: 2
Fore
SplineSet
365 670 m 128,-1,1
 523 670 523 670 611.5 580.5 c 128,-1,2
 700 491 700 491 700 330 c 128,-1,3
 700 169 700 169 611.5 79.5 c 128,-1,4
 523 -10 523 -10 365 -10 c 128,-1,5
 207 -10 207 -10 118 79.5 c 128,-1,6
 29 169 29 169 29 330 c 128,-1,7
 29 491 29 491 118 580.5 c 128,-1,0
 207 670 207 670 365 670 c 128,-1,1
365 495 m 128,-1,9
 314 495 314 495 290.5 455.5 c 128,-1,10
 267 416 267 416 267 330 c 128,-1,11
 267 244 267 244 290.5 204.5 c 128,-1,12
 314 165 314 165 365 165 c 128,-1,13
 416 165 416 165 439 204.5 c 128,-1,14
 462 244 462 244 462 330 c 128,-1,15
 462 416 462 416 439 455.5 c 128,-1,8
 416 495 416 495 365 495 c 128,-1,9
EndSplineSet
Substitution2: "Single Substitution lookup 55 subtable" ordmasculine
Substitution2: "'nalt' Alternate Annotation Forms lookup 23 subtable" indexring
Substitution2: "'sups' Superscript lookup 15 subtable" Osuperior
Substitution2: "'subs' Subscript lookup 14 subtable" Oinferior
Substitution2: "'sinf' Scientific Inferiors lookup 13 subtable" Oinferior
Substitution2: "'c2sc' Capitals to Small Capitals lookup 11 subtable" o.sc
AlternateSubs2: "'aalt' Access All Alternates lookup 1 subtable" o.sc Oinferior Osuperior ordmasculine indexring
EndChar

StartChar: P
Encoding: 80 80 51
Width: 706
GlyphClass: 2
Flags: W
LayerCount: 2
Fore
SplineSet
400 660 m 2,0,1
 677 660 677 660 677 429 c 0,2,3
 677 322 677 322 607 266 c 128,-1,4
 537 210 537 210 400 210 c 2,5,-1
 283 210 l 1,6,-1
 283 0 l 1,7,-1
 50 0 l 1,8,-1
 50 660 l 1,9,-1
 400 660 l 2,0,1
362 370 m 2,10,11
 405 370 405 370 424.5 385 c 128,-1,12
 444 400 444 400 444 432 c 128,-1,13
 444 464 444 464 424.5 479 c 128,-1,14
 405 494 405 494 362 494 c 2,15,-1
 283 494 l 1,16,-1
 283 370 l 1,17,-1
 362 370 l 2,10,11
EndSplineSet
Substitution2: "'c2sc' Capitals to Small Capitals lookup 11 subtable" p.sc
Substitution2: "'aalt' Access All Alternates lookup 0 subtable" p.sc
EndChar

StartChar: Q
Encoding: 81 81 52
Width: 729
GlyphClass: 2
Flags: W
LayerCount: 2
Fore
SplineSet
525 -53 m 0,0,1
 604 -53 604 -53 648 -14 c 1,2,-1
 700 -155 l 1,3,4
 643 -209 643 -209 507 -209 c 0,5,6
 388 -209 388 -209 336 -151 c 128,-1,7
 284 -93 284 -93 300 -6 c 1,8,9
 171 12 171 12 100 99 c 128,-1,10
 29 186 29 186 29 330 c 0,11,12
 29 491 29 491 118 580.5 c 128,-1,13
 207 670 207 670 365 670 c 128,-1,14
 523 670 523 670 611.5 580.5 c 128,-1,15
 700 491 700 491 700 330 c 0,16,17
 700 184 700 184 626.5 96 c 128,-1,18
 553 8 553 8 420 -7 c 1,19,20
 425 -53 425 -53 525 -53 c 0,0,1
365 495 m 128,-1,22
 314 495 314 495 290.5 455.5 c 128,-1,23
 267 416 267 416 267 330 c 128,-1,24
 267 244 267 244 290.5 204.5 c 128,-1,25
 314 165 314 165 365 165 c 128,-1,26
 416 165 416 165 439 204.5 c 128,-1,27
 462 244 462 244 462 330 c 128,-1,28
 462 416 462 416 439 455.5 c 128,-1,21
 416 495 416 495 365 495 c 128,-1,22
EndSplineSet
Substitution2: "'c2sc' Capitals to Small Capitals lookup 11 subtable" q.sc
Substitution2: "'aalt' Access All Alternates lookup 0 subtable" q.sc
EndChar

StartChar: R
Encoding: 82 82 53
Width: 705
GlyphClass: 2
Flags: W
AnchorPoint: "Anchor-0" 362 0 basechar 0
LayerCount: 2
Fore
SplineSet
50 0 m 1,0,-1
 50 660 l 1,1,-1
 408 660 l 2,2,3
 540 660 540 660 607.5 606 c 128,-1,4
 675 552 675 552 675 449 c 0,5,6
 675 317 675 317 551 279 c 1,7,-1
 551 277 l 1,8,9
 628 256 628 256 643 175 c 0,10,11
 646 160 646 160 652 124.5 c 128,-1,12
 658 89 658 89 660.5 75 c 128,-1,13
 663 61 663 61 669.5 40.5 c 128,-1,14
 676 20 676 20 685 5 c 1,15,-1
 685 0 l 1,16,-1
 442 0 l 1,17,18
 432 24 432 24 426 75.5 c 128,-1,19
 420 127 420 127 415 153 c 0,20,21
 407 190 407 190 387.5 204.5 c 128,-1,22
 368 219 368 219 330 219 c 2,23,-1
 278 219 l 1,24,-1
 278 0 l 1,25,-1
 50 0 l 1,0,-1
278 372 m 1,26,-1
 361 372 l 2,27,28
 405 372 405 372 423.5 385.5 c 128,-1,29
 442 399 442 399 442 433 c 0,30,31
 442 466 442 466 423.5 480 c 128,-1,32
 405 494 405 494 361 494 c 2,33,-1
 278 494 l 1,34,-1
 278 372 l 1,26,-1
EndSplineSet
Substitution2: "Single Substitution lookup 57 subtable" R.swsh.001
Substitution2: "Single Substitution lookup 56 subtable" R.swsh
Substitution2: "'ss03' Style Set 3 lookup 49 subtable" R.ss03
Substitution2: "'salt' Stylistic Alternatives lookup 42 subtable" R.ss03
AlternateSubs2: "'swsh' Swash lookup 37 subtable" R.swsh R.swsh.001
Substitution2: "'c2sc' Capitals to Small Capitals lookup 11 subtable" r.sc
AlternateSubs2: "'aalt' Access All Alternates lookup 1 subtable" r.sc R.swsh R.swsh.001 R.ss03
EndChar

StartChar: S
Encoding: 83 83 54
Width: 646
GlyphClass: 2
Flags: W
AnchorPoint: "Anchor-0" 338 0 basechar 0
LayerCount: 2
Fore
SplineSet
337 670 m 0,0,1
 435 670 435 670 504 647 c 128,-1,2
 573 624 573 624 641 565 c 1,3,-1
 539 420 l 1,4,5
 453 499 453 499 344 499 c 0,6,7
 309 499 309 499 288 488.5 c 128,-1,8
 267 478 267 478 267 461 c 0,9,10
 267 448 267 448 288 439 c 128,-1,11
 309 430 309 430 363 421 c 0,12,13
 503 399 503 399 566 348 c 128,-1,14
 629 297 629 297 629 203 c 0,15,16
 629 102 629 102 545 46 c 128,-1,17
 461 -10 461 -10 334 -10 c 0,18,19
 217 -10 217 -10 147 12 c 128,-1,20
 77 34 77 34 10 83 c 1,21,-1
 112 244 l 1,22,23
 189 161 189 161 317 161 c 0,24,25
 390 161 390 161 390 191 c 0,26,27
 390 205 390 205 368 214 c 128,-1,28
 346 223 346 223 288 233 c 0,29,30
 149 255 149 255 88.5 304.5 c 128,-1,31
 28 354 28 354 28 443 c 0,32,33
 28 546 28 546 109 608 c 128,-1,34
 190 670 190 670 337 670 c 0,0,1
EndSplineSet
Substitution2: "Single Substitution lookup 57 subtable" S.swsh
Substitution2: "Single Substitution lookup 56 subtable" S.swsh
Substitution2: "'swsh' Swash lookup 38 subtable" S.swsh
Substitution2: "'c2sc' Capitals to Small Capitals lookup 11 subtable" s.sc
AlternateSubs2: "'aalt' Access All Alternates lookup 1 subtable" s.sc S.swsh
EndChar

StartChar: T
Encoding: 84 84 55
Width: 686
GlyphClass: 2
Flags: W
AnchorPoint: "Anchor-0" 326 0 basechar 0
LayerCount: 2
Fore
SplineSet
666 660 m 1,0,-1
 666 489 l 1,1,-1
 460 489 l 1,2,-1
 460 0 l 1,3,-1
 227 0 l 1,4,-1
 227 489 l 1,5,-1
 20 489 l 1,6,-1
 20 660 l 1,7,-1
 666 660 l 1,0,-1
EndSplineSet
Substitution2: "Single Substitution lookup 56 subtable" T.swsh
Substitution2: "'swsh' Swash lookup 38 subtable" T.swsh
Substitution2: "'c2sc' Capitals to Small Capitals lookup 11 subtable" t.sc
AlternateSubs2: "'aalt' Access All Alternates lookup 1 subtable" t.sc T.swsh
EndChar

StartChar: U
Encoding: 85 85 56
Width: 708
GlyphClass: 2
Flags: W
LayerCount: 2
Fore
SplineSet
673 660 m 1,0,-1
 673 284 l 2,1,2
 673 -10 673 -10 354 -10 c 128,-1,3
 35 -10 35 -10 35 284 c 2,4,-1
 35 660 l 1,5,-1
 269 660 l 1,6,-1
 269 266 l 2,7,8
 269 165 269 165 354 165 c 0,9,10
 440 165 440 165 440 266 c 2,11,-1
 440 660 l 1,12,-1
 673 660 l 1,0,-1
EndSplineSet
Substitution2: "'c2sc' Capitals to Small Capitals lookup 11 subtable" u.sc
Substitution2: "'aalt' Access All Alternates lookup 0 subtable" u.sc
EndChar

StartChar: V
Encoding: 86 86 57
Width: 707
GlyphClass: 2
Flags: W
LayerCount: 2
Fore
SplineSet
715 660 m 1,0,-1
 492 0 l 1,1,-1
 215 0 l 1,2,-1
 -8 660 l 1,3,-1
 235 660 l 1,4,-1
 326 299 l 1,5,-1
 358 170 l 1,6,-1
 388 297 l 1,7,-1
 481 660 l 1,8,-1
 715 660 l 1,0,-1
EndSplineSet
Substitution2: "'c2sc' Capitals to Small Capitals lookup 11 subtable" v.sc
Substitution2: "'aalt' Access All Alternates lookup 0 subtable" v.sc
EndChar

StartChar: W
Encoding: 87 87 58
Width: 1021
GlyphClass: 2
Flags: W
LayerCount: 2
Fore
SplineSet
486 248 m 1,0,-1
 435 0 l 1,1,-1
 179 0 l 1,2,-1
 -8 660 l 1,3,-1
 243 660 l 1,4,-1
 320 183 l 1,5,-1
 413 660 l 1,6,-1
 613 660 l 1,7,-1
 711 186 l 1,8,-1
 786 660 l 1,9,-1
 1028 660 l 1,10,-1
 840 0 l 1,11,-1
 593 0 l 1,12,-1
 541 248 l 1,13,-1
 515 417 l 1,14,-1
 512 417 l 1,15,-1
 486 248 l 1,0,-1
EndSplineSet
Substitution2: "Single Substitution lookup 56 subtable" W.swsh
Substitution2: "'swsh' Swash lookup 38 subtable" W.swsh
Substitution2: "'c2sc' Capitals to Small Capitals lookup 11 subtable" w.sc
AlternateSubs2: "'aalt' Access All Alternates lookup 1 subtable" w.sc W.swsh
EndChar

StartChar: X
Encoding: 88 88 59
Width: 704
GlyphClass: 2
Flags: W
LayerCount: 2
Fore
SplineSet
713 0 m 1,0,-1
 432 0 l 1,1,-1
 345 171 l 1,2,-1
 265 0 l 1,3,-1
 2 0 l 1,4,-1
 221 329 l 1,5,-1
 10 660 l 1,6,-1
 285 660 l 1,7,-1
 362 495 l 1,8,-1
 440 660 l 1,9,-1
 694 660 l 1,10,-1
 484 335 l 1,11,-1
 713 0 l 1,0,-1
EndSplineSet
Substitution2: "'c2sc' Capitals to Small Capitals lookup 11 subtable" x.sc
Substitution2: "'aalt' Access All Alternates lookup 0 subtable" x.sc
EndChar

StartChar: Y
Encoding: 89 89 60
Width: 713
GlyphClass: 2
Flags: W
LayerCount: 2
Fore
SplineSet
704 660 m 1,0,-1
 473 229 l 1,1,-1
 473 0 l 1,2,-1
 240 0 l 1,3,-1
 240 229 l 1,4,-1
 9 660 l 1,5,-1
 241 660 l 1,6,-1
 311 509 l 1,7,-1
 358 389 l 1,8,-1
 405 509 l 1,9,-1
 475 660 l 1,10,-1
 704 660 l 1,0,-1
EndSplineSet
Substitution2: "'c2sc' Capitals to Small Capitals lookup 11 subtable" y.sc
Substitution2: "'aalt' Access All Alternates lookup 0 subtable" y.sc
EndChar

StartChar: Z
Encoding: 90 90 61
Width: 637
GlyphClass: 2
Flags: W
LayerCount: 2
Fore
SplineSet
278 166 m 1,0,-1
 622 166 l 1,1,-1
 622 0 l 1,2,-1
 25 0 l 1,3,-1
 25 159 l 1,4,-1
 360 494 l 1,5,-1
 29 494 l 1,6,-1
 29 660 l 1,7,-1
 611 660 l 1,8,-1
 611 501 l 1,9,-1
 278 166 l 1,0,-1
EndSplineSet
Substitution2: "'c2sc' Capitals to Small Capitals lookup 11 subtable" z.sc
Substitution2: "'aalt' Access All Alternates lookup 0 subtable" z.sc
EndChar

StartChar: bracketleft
Encoding: 91 91 62
Width: 420
GlyphClass: 2
Flags: W
LayerCount: 2
Fore
SplineSet
399 550 m 1,0,-1
 279 550 l 1,1,-1
 279 -17 l 1,2,-1
 399 -17 l 1,3,-1
 399 -168 l 1,4,-1
 84 -168 l 1,5,-1
 84 701 l 1,6,-1
 399 701 l 1,7,-1
 399 550 l 1,0,-1
EndSplineSet
Substitution2: "'case' Case-Sensitive Forms lookup 29 subtable" bracketleft.case
Substitution2: "'sups' Superscript lookup 15 subtable" bracketleftsuperior
Substitution2: "'subs' Subscript lookup 14 subtable" bracketleftinferior
Substitution2: "'sinf' Scientific Inferiors lookup 13 subtable" bracketleftinferior
AlternateSubs2: "'aalt' Access All Alternates lookup 1 subtable" bracketleftinferior bracketleftsuperior bracketleft.case
EndChar

StartChar: backslash
Encoding: 92 92 63
Width: 488
GlyphClass: 2
Flags: W
LayerCount: 2
Fore
SplineSet
6 700 m 1,0,-1
 219 700 l 1,1,-1
 482 -70 l 1,2,-1
 269 -70 l 1,3,-1
 6 700 l 1,0,-1
EndSplineSet
EndChar

StartChar: bracketright
Encoding: 93 93 64
Width: 420
GlyphClass: 2
Flags: W
LayerCount: 2
Fore
SplineSet
336 701 m 1,0,-1
 336 -168 l 1,1,-1
 21 -168 l 1,2,-1
 21 -17 l 1,3,-1
 141 -17 l 1,4,-1
 141 550 l 1,5,-1
 21 550 l 1,6,-1
 21 701 l 1,7,-1
 336 701 l 1,0,-1
EndSplineSet
Substitution2: "'case' Case-Sensitive Forms lookup 29 subtable" bracketright.case
Substitution2: "'sups' Superscript lookup 15 subtable" bracketrightsuperior
Substitution2: "'subs' Subscript lookup 14 subtable" bracketrightinferior
Substitution2: "'sinf' Scientific Inferiors lookup 13 subtable" bracketrightinferior
AlternateSubs2: "'aalt' Access All Alternates lookup 1 subtable" bracketrightinferior bracketrightsuperior bracketright.case
EndChar

StartChar: asciicircum
Encoding: 94 94 65
Width: 647
GlyphClass: 2
Flags: W
LayerCount: 2
Fore
SplineSet
624 355 m 1,0,-1
 428 355 l 1,1,-1
 324 578 l 1,2,-1
 219 355 l 1,3,-1
 23 355 l 1,4,-1
 229 720 l 1,5,-1
 418 720 l 1,6,-1
 624 355 l 1,0,-1
EndSplineSet
EndChar

StartChar: underscore
Encoding: 95 95 66
Width: 539
GlyphClass: 2
Flags: W
LayerCount: 2
Fore
SplineSet
539 -45 m 1,0,-1
 539 -220 l 1,1,-1
 0 -220 l 1,2,-1
 0 -45 l 1,3,-1
 539 -45 l 1,0,-1
EndSplineSet
EndChar

StartChar: grave
Encoding: 96 96 67
Width: 500
GlyphClass: 2
Flags: W
LayerCount: 2
Fore
SplineSet
273 730 m 1,0,-1
 333 553 l 1,1,-1
 171 553 l 1,2,-1
 68 730 l 1,3,-1
 273 730 l 1,0,-1
EndSplineSet
EndChar

StartChar: a
Encoding: 97 97 68
Width: 588
GlyphClass: 2
Flags: W
LayerCount: 2
Fore
SplineSet
572 123 m 0,0,1
 589 123 589 123 597 127 c 1,2,-1
 579 10 l 1,3,4
 545 -10 545 -10 505 -10 c 0,5,6
 377 -10 377 -10 348 74 c 1,7,8
 298 -10 298 -10 170 -10 c 0,9,10
 16 -10 16 -10 16 109 c 0,11,12
 16 172 16 172 61 209.5 c 128,-1,13
 106 247 106 247 211 270 c 2,14,-1
 310 292 l 1,15,-1
 310 312 l 2,16,17
 310 361 310 361 265 361 c 0,18,19
 214 361 214 361 212 300 c 1,20,-1
 22 329 l 1,21,22
 30 415 30 415 94 462.5 c 128,-1,23
 158 510 158 510 278 510 c 0,24,25
 411 510 411 510 474.5 459 c 128,-1,26
 538 408 538 408 538 304 c 2,27,-1
 538 164 l 2,28,29
 538 123 538 123 572 123 c 0,0,1
267 115 m 0,30,31
 286 115 286 115 298 127.5 c 128,-1,32
 310 140 310 140 310 164 c 2,33,-1
 310 212 l 1,34,-1
 277 202 l 2,35,36
 232 189 232 189 232 150 c 0,37,38
 232 133 232 133 242 124 c 128,-1,39
 252 115 252 115 267 115 c 0,30,31
EndSplineSet
Substitution2: "Single Substitution lookup 55 subtable" ordfeminine
Substitution2: "'smcp' Lowercase to Small Capitals lookup 12 subtable" a.sc
AlternateSubs2: "'aalt' Access All Alternates lookup 1 subtable" a.sc ordfeminine
EndChar

StartChar: b
Encoding: 98 98 69
Width: 627
GlyphClass: 2
Flags: W
LayerCount: 2
Fore
SplineSet
410 510 m 0,0,1
 501 510 501 510 551.5 441 c 128,-1,2
 602 372 602 372 602 247 c 0,3,4
 602 124 602 124 552.5 57 c 128,-1,5
 503 -10 503 -10 411 -10 c 0,6,7
 351 -10 351 -10 308.5 24 c 128,-1,8
 266 58 266 58 247 117 c 1,9,-1
 241 0 l 1,10,-1
 39 0 l 1,11,-1
 39 700 l 1,12,-1
 269 700 l 1,13,-1
 269 416 l 1,14,15
 310 510 310 510 410 510 c 0,0,1
318 151 m 0,16,17
 344 151 344 151 357 172.5 c 128,-1,18
 370 194 370 194 370 250 c 128,-1,19
 370 306 370 306 357 327 c 128,-1,20
 344 348 344 348 318 348 c 0,21,22
 269 348 269 348 269 254 c 2,23,-1
 269 246 l 2,24,25
 269 151 269 151 318 151 c 0,16,17
EndSplineSet
Substitution2: "'smcp' Lowercase to Small Capitals lookup 12 subtable" b.sc
Substitution2: "'aalt' Access All Alternates lookup 0 subtable" b.sc
EndChar

StartChar: c
Encoding: 99 99 70
Width: 576
GlyphClass: 2
Flags: W
LayerCount: 2
Fore
SplineSet
297 510 m 0,0,1
 436 510 436 510 497.5 460.5 c 128,-1,2
 559 411 559 411 561 340 c 1,3,-1
 349 278 l 1,4,5
 352 355 352 355 309 355 c 0,6,7
 278 355 278 355 264.5 331.5 c 128,-1,8
 251 308 251 308 251 247 c 0,9,10
 251 187 251 187 265.5 166 c 128,-1,11
 280 145 280 145 308 145 c 0,12,13
 348 145 348 145 353 211 c 1,14,-1
 559 147 l 1,15,16
 559 81 559 81 492.5 35.5 c 128,-1,17
 426 -10 426 -10 309 -10 c 0,18,19
 167 -10 167 -10 93.5 57 c 128,-1,20
 20 124 20 124 20 250 c 0,21,22
 20 374 20 374 92.5 442 c 128,-1,23
 165 510 165 510 297 510 c 0,0,1
EndSplineSet
Substitution2: "'smcp' Lowercase to Small Capitals lookup 12 subtable" c.sc
Substitution2: "'aalt' Access All Alternates lookup 0 subtable" c.sc
EndChar

StartChar: d
Encoding: 100 100 71
Width: 627
GlyphClass: 2
Flags: W
LayerCount: 2
Fore
SplineSet
358 700 m 1,0,-1
 588 700 l 1,1,-1
 588 0 l 1,2,-1
 381 0 l 1,3,-1
 374 99 l 1,4,5
 328 -10 328 -10 216 -10 c 0,6,7
 124 -10 124 -10 74.5 57 c 128,-1,8
 25 124 25 124 25 247 c 0,9,10
 25 372 25 372 75.5 441 c 128,-1,11
 126 510 126 510 217 510 c 0,12,13
 317 510 317 510 358 416 c 1,14,-1
 358 700 l 1,0,-1
309 151 m 0,15,16
 358 151 358 151 358 246 c 2,17,-1
 358 254 l 2,18,19
 358 348 358 348 309 348 c 0,20,21
 283 348 283 348 270 327 c 128,-1,22
 257 306 257 306 257 250 c 128,-1,23
 257 194 257 194 270 172.5 c 128,-1,24
 283 151 283 151 309 151 c 0,15,16
EndSplineSet
Substitution2: "'smcp' Lowercase to Small Capitals lookup 12 subtable" d.sc
Substitution2: "'aalt' Access All Alternates lookup 0 subtable" d.sc
EndChar

StartChar: e
Encoding: 101 101 72
Width: 583
GlyphClass: 2
Flags: W
AnchorPoint: "Anchor-0" 294 0 basechar 0
LayerCount: 2
Fore
SplineSet
563 266 m 0,0,1
 563 228 563 228 558 206 c 1,2,-1
 240 206 l 1,3,4
 245 169 245 169 261 156 c 128,-1,5
 277 143 277 143 309 143 c 0,6,7
 358 143 358 143 369 186 c 1,8,-1
 554 136 l 1,9,10
 537 64 537 64 470.5 27 c 128,-1,11
 404 -10 404 -10 309 -10 c 0,12,13
 167 -10 167 -10 93.5 57 c 128,-1,14
 20 124 20 124 20 250 c 0,15,16
 20 374 20 374 92.5 442 c 128,-1,17
 165 510 165 510 297 510 c 0,18,19
 426 510 426 510 494.5 444 c 128,-1,20
 563 378 563 378 563 266 c 0,0,1
298 358 m 0,21,22
 272 358 272 358 258 343 c 128,-1,23
 244 328 244 328 240 291 c 1,24,-1
 348 291 l 1,25,26
 342 358 342 358 298 358 c 0,21,22
EndSplineSet
Substitution2: "'smcp' Lowercase to Small Capitals lookup 12 subtable" e.sc
Substitution2: "'aalt' Access All Alternates lookup 0 subtable" e.sc
EndChar

StartChar: f
Encoding: 102 102 73
Width: 430
GlyphClass: 2
Flags: W
LayerCount: 2
Fore
SplineSet
284 508 m 2,0,-1
 284 500 l 1,1,-1
 426 500 l 1,2,-1
 426 345 l 1,3,-1
 300 345 l 1,4,-1
 300 0 l 1,5,-1
 70 0 l 1,6,-1
 70 345 l 1,7,-1
 3 345 l 1,8,-1
 3 500 l 1,9,-1
 70 500 l 1,10,-1
 70 520 l 2,11,12
 70 625 70 625 135 672.5 c 128,-1,13
 200 720 200 720 298 720 c 0,14,15
 390 720 390 720 433 687 c 1,16,-1
 418 554 l 1,17,18
 398 570 398 570 361 570 c 0,19,20
 284 570 284 570 284 508 c 2,0,-1
EndSplineSet
Substitution2: "'smcp' Lowercase to Small Capitals lookup 12 subtable" f.sc
Substitution2: "'aalt' Access All Alternates lookup 0 subtable" f.sc
EndChar

StartChar: g
Encoding: 103 103 74
Width: 627
GlyphClass: 2
Flags: W
LayerCount: 2
Fore
SplineSet
380 500 m 1,0,-1
 588 500 l 1,1,-1
 588 40 l 2,2,3
 588 -215 588 -215 290 -215 c 0,4,5
 180 -215 180 -215 116 -180.5 c 128,-1,6
 52 -146 52 -146 39 -54 c 1,7,-1
 260 -4 l 1,8,9
 257 -83 257 -83 310 -83 c 0,10,11
 358 -83 358 -83 358 -15 c 2,12,-1
 358 97 l 1,13,14
 309 23 309 23 216 23 c 0,15,16
 124 23 124 23 74.5 86 c 128,-1,17
 25 149 25 149 25 264 c 0,18,19
 25 381 25 381 75.5 445.5 c 128,-1,20
 126 510 126 510 217 510 c 0,21,22
 282 510 282 510 321 473.5 c 128,-1,23
 360 437 360 437 374 373 c 1,24,-1
 377 374 l 1,25,-1
 380 500 l 1,0,-1
309 184 m 0,26,27
 358 184 358 184 358 263 c 2,28,-1
 358 270 l 2,29,30
 358 348 358 348 309 348 c 0,31,32
 283 348 283 348 270 330.5 c 128,-1,33
 257 313 257 313 257 266 c 128,-1,34
 257 219 257 219 270 201.5 c 128,-1,35
 283 184 283 184 309 184 c 0,26,27
EndSplineSet
Substitution2: "'ss01' Style Set 1 lookup 47 subtable" g.ss01
Substitution2: "'salt' Stylistic Alternatives lookup 42 subtable" g.ss01
Substitution2: "'smcp' Lowercase to Small Capitals lookup 12 subtable" g.sc
AlternateSubs2: "'aalt' Access All Alternates lookup 1 subtable" g.sc g.ss01
EndChar

StartChar: h
Encoding: 104 104 75
Width: 620
GlyphClass: 2
Flags: W
LayerCount: 2
Fore
SplineSet
425 510 m 0,0,1
 499 510 499 510 540.5 466 c 128,-1,2
 582 422 582 422 582 342 c 2,3,-1
 582 0 l 1,4,-1
 352 0 l 1,5,-1
 352 282 l 2,6,7
 352 315 352 315 344 328 c 128,-1,8
 336 341 336 341 317 341 c 0,9,10
 269 341 269 341 269 262 c 2,11,-1
 269 0 l 1,12,-1
 39 0 l 1,13,-1
 39 700 l 1,14,-1
 269 700 l 1,15,-1
 269 398 l 1,16,17
 311 510 311 510 425 510 c 0,0,1
EndSplineSet
Substitution2: "'smcp' Lowercase to Small Capitals lookup 12 subtable" h.sc
Substitution2: "'aalt' Access All Alternates lookup 0 subtable" h.sc
EndChar

StartChar: i
Encoding: 105 105 76
Width: 308
GlyphClass: 2
Flags: W
LayerCount: 2
Fore
SplineSet
154 532 m 128,-1,1
 86 532 86 532 57.5 554 c 128,-1,2
 29 576 29 576 29 628 c 128,-1,3
 29 680 29 680 57.5 702 c 128,-1,4
 86 724 86 724 154 724 c 128,-1,5
 222 724 222 724 250.5 702 c 128,-1,6
 279 680 279 680 279 628 c 128,-1,7
 279 576 279 576 250.5 554 c 128,-1,0
 222 532 222 532 154 532 c 128,-1,1
269 500 m 1,8,-1
 269 0 l 1,9,-1
 39 0 l 1,10,-1
 39 500 l 1,11,-1
 269 500 l 1,8,-1
EndSplineSet
Substitution2: "'smcp' Lowercase to Small Capitals lookup 12 subtable" i.sc
Substitution2: "'locl' Localized Forms in Latin lookup 6 subtable" i.loclTRK
Substitution2: "'locl' Localized Forms in Latin lookup 5 subtable" i.loclTRK
Substitution2: "'locl' Localized Forms in Latin lookup 4 subtable" i.loclTRK
Substitution2: "'locl' Localized Forms in Latin lookup 3 subtable" i.loclTRK
Substitution2: "'locl' Localized Forms in Latin lookup 2 subtable" i.loclTRK
Substitution2: "'aalt' Access All Alternates lookup 0 subtable" i.sc
EndChar

StartChar: j
Encoding: 106 106 77
Width: 306
GlyphClass: 2
Flags: W
LayerCount: 2
Fore
SplineSet
153 724 m 0,0,1
 223 724 223 724 251 702.5 c 128,-1,2
 279 681 279 681 279 628 c 128,-1,3
 279 575 279 575 251 553.5 c 128,-1,4
 223 532 223 532 153 532 c 0,5,6
 85 532 85 532 57 553.5 c 128,-1,7
 29 575 29 575 29 628 c 128,-1,8
 29 681 29 681 57 702.5 c 128,-1,9
 85 724 85 724 153 724 c 0,0,1
269 500 m 1,10,-1
 269 -13 l 2,11,12
 269 -119 269 -119 216.5 -167 c 128,-1,13
 164 -215 164 -215 48 -215 c 0,14,15
 -46 -215 -46 -215 -104 -184 c 1,16,-1
 -76 -51 l 1,17,18
 -58 -64 -58 -64 -25 -64 c 0,19,20
 39 -64 39 -64 39 7 c 2,21,-1
 39 500 l 1,22,-1
 269 500 l 1,10,-1
EndSplineSet
Substitution2: "'smcp' Lowercase to Small Capitals lookup 12 subtable" j.sc
Substitution2: "'aalt' Access All Alternates lookup 0 subtable" j.sc
EndChar

StartChar: k
Encoding: 107 107 78
Width: 658
GlyphClass: 2
Flags: W
AnchorPoint: "Anchor-0" 337 0 basechar 0
LayerCount: 2
Fore
SplineSet
423 0 m 1,0,-1
 333 175 l 1,1,-1
 269 97 l 1,2,-1
 269 0 l 1,3,-1
 39 0 l 1,4,-1
 39 700 l 1,5,-1
 269 700 l 1,6,-1
 269 323 l 1,7,-1
 415 500 l 1,8,-1
 662 500 l 1,9,-1
 484 304 l 1,10,-1
 673 0 l 1,11,-1
 423 0 l 1,0,-1
EndSplineSet
Substitution2: "'smcp' Lowercase to Small Capitals lookup 12 subtable" k.sc
Substitution2: "'aalt' Access All Alternates lookup 0 subtable" k.sc
EndChar

StartChar: l
Encoding: 108 108 79
Width: 341
GlyphClass: 2
Flags: W
AnchorPoint: "Anchor-0" 174 0 basechar 0
LayerCount: 2
Fore
SplineSet
269 700 m 1,0,-1
 269 199 l 2,1,2
 269 168 269 168 278 154.5 c 128,-1,3
 287 141 287 141 310 141 c 0,4,5
 328 141 328 141 346 146 c 1,6,-1
 336 22 l 1,7,8
 318 8 318 8 282 -1 c 128,-1,9
 246 -10 246 -10 212 -10 c 0,10,11
 119 -10 119 -10 79 30 c 128,-1,12
 39 70 39 70 39 164 c 2,13,-1
 39 700 l 1,14,-1
 269 700 l 1,0,-1
EndSplineSet
Substitution2: "'ss02' Style Set 2 lookup 48 subtable" l.ss02
Substitution2: "'salt' Stylistic Alternatives lookup 42 subtable" l.ss02
Substitution2: "'smcp' Lowercase to Small Capitals lookup 12 subtable" l.sc
AlternateSubs2: "'aalt' Access All Alternates lookup 1 subtable" l.sc l.ss02
Position2: "Single Positioning lookup 6 subtable" dx=0 dy=0 dh=-40 dv=0
EndChar

StartChar: m
Encoding: 109 109 80
Width: 933
GlyphClass: 2
Flags: W
LayerCount: 2
Fore
SplineSet
738 510 m 0,0,1
 812 510 812 510 853.5 466 c 128,-1,2
 895 422 895 422 895 342 c 2,3,-1
 895 0 l 1,4,-1
 665 0 l 1,5,-1
 665 282 l 2,6,7
 665 315 665 315 657 327.5 c 128,-1,8
 649 340 649 340 630 340 c 0,9,10
 582 340 582 340 582 262 c 2,11,-1
 582 0 l 1,12,-1
 352 0 l 1,13,-1
 352 282 l 2,14,15
 352 315 352 315 344 327.5 c 128,-1,16
 336 340 336 340 317 340 c 0,17,18
 269 340 269 340 269 262 c 2,19,-1
 269 0 l 1,20,-1
 39 0 l 1,21,-1
 39 500 l 1,22,-1
 246 500 l 1,23,-1
 251 391 l 1,24,25
 296 510 296 510 425 510 c 0,26,27
 540 510 540 510 573 410 c 1,28,29
 621 510 621 510 738 510 c 0,0,1
EndSplineSet
Substitution2: "'smcp' Lowercase to Small Capitals lookup 12 subtable" m.sc
Substitution2: "'aalt' Access All Alternates lookup 0 subtable" m.sc
EndChar

StartChar: n
Encoding: 110 110 81
Width: 620
GlyphClass: 2
Flags: W
AnchorPoint: "Anchor-0" 303 0 basechar 0
LayerCount: 2
Fore
SplineSet
425 510 m 0,0,1
 499 510 499 510 540.5 466 c 128,-1,2
 582 422 582 422 582 342 c 2,3,-1
 582 0 l 1,4,-1
 352 0 l 1,5,-1
 352 282 l 2,6,7
 352 315 352 315 344 327.5 c 128,-1,8
 336 340 336 340 317 340 c 0,9,10
 269 340 269 340 269 262 c 2,11,-1
 269 0 l 1,12,-1
 39 0 l 1,13,-1
 39 500 l 1,14,-1
 246 500 l 1,15,-1
 251 391 l 1,16,17
 296 510 296 510 425 510 c 0,0,1
EndSplineSet
Substitution2: "Single Substitution lookup 57 subtable" n.swsh
Substitution2: "'swsh' Swash lookup 38 subtable" n.swsh
Substitution2: "'smcp' Lowercase to Small Capitals lookup 12 subtable" n.sc
AlternateSubs2: "'aalt' Access All Alternates lookup 1 subtable" n.sc n.swsh
EndChar

StartChar: o
Encoding: 111 111 82
Width: 598
GlyphClass: 2
Flags: W
LayerCount: 2
Fore
SplineSet
299 510 m 128,-1,1
 432 510 432 510 505 442 c 128,-1,2
 578 374 578 374 578 250 c 128,-1,3
 578 126 578 126 505 58 c 128,-1,4
 432 -10 432 -10 299 -10 c 128,-1,5
 166 -10 166 -10 93 58 c 128,-1,6
 20 126 20 126 20 250 c 128,-1,7
 20 374 20 374 93 442 c 128,-1,0
 166 510 166 510 299 510 c 128,-1,1
299 355 m 128,-1,9
 270 355 270 355 260.5 334 c 128,-1,10
 251 313 251 313 251 250 c 128,-1,11
 251 187 251 187 260.5 166 c 128,-1,12
 270 145 270 145 299 145 c 128,-1,13
 328 145 328 145 337.5 166 c 128,-1,14
 347 187 347 187 347 250 c 128,-1,15
 347 313 347 313 337.5 334 c 128,-1,8
 328 355 328 355 299 355 c 128,-1,9
EndSplineSet
Substitution2: "Single Substitution lookup 55 subtable" ordmasculine
Substitution2: "'smcp' Lowercase to Small Capitals lookup 12 subtable" o.sc
AlternateSubs2: "'aalt' Access All Alternates lookup 1 subtable" o.sc ordmasculine
EndChar

StartChar: p
Encoding: 112 112 83
Width: 627
GlyphClass: 2
Flags: W
LayerCount: 2
Fore
SplineSet
411 510 m 0,0,1
 503 510 503 510 552.5 443 c 128,-1,2
 602 376 602 376 602 253 c 0,3,4
 602 128 602 128 551.5 59 c 128,-1,5
 501 -10 501 -10 410 -10 c 0,6,7
 310 -10 310 -10 269 84 c 1,8,-1
 269 -210 l 1,9,-1
 39 -210 l 1,10,-1
 39 500 l 1,11,-1
 241 500 l 1,12,-1
 247 383 l 1,13,14
 266 442 266 442 308.5 476 c 128,-1,15
 351 510 351 510 411 510 c 0,0,1
318 152 m 0,16,17
 344 152 344 152 357 173 c 128,-1,18
 370 194 370 194 370 250 c 128,-1,19
 370 306 370 306 357 327.5 c 128,-1,20
 344 349 344 349 318 349 c 0,21,22
 269 349 269 349 269 254 c 2,23,-1
 269 246 l 2,24,25
 269 152 269 152 318 152 c 0,16,17
EndSplineSet
Substitution2: "'smcp' Lowercase to Small Capitals lookup 12 subtable" p.sc
Substitution2: "'aalt' Access All Alternates lookup 0 subtable" p.sc
EndChar

StartChar: q
Encoding: 113 113 84
Width: 627
GlyphClass: 2
Flags: W
LayerCount: 2
Fore
SplineSet
386 500 m 1,0,-1
 588 500 l 1,1,-1
 588 -210 l 1,2,-1
 358 -210 l 1,3,-1
 358 84 l 1,4,5
 317 -10 317 -10 217 -10 c 0,6,7
 126 -10 126 -10 75.5 59 c 128,-1,8
 25 128 25 128 25 253 c 0,9,10
 25 376 25 376 74.5 443 c 128,-1,11
 124 510 124 510 216 510 c 0,12,13
 276 510 276 510 318.5 476 c 128,-1,14
 361 442 361 442 380 383 c 1,15,-1
 386 500 l 1,0,-1
309 152 m 0,16,17
 358 152 358 152 358 246 c 2,18,-1
 358 254 l 2,19,20
 358 349 358 349 309 349 c 0,21,22
 283 349 283 349 270 327.5 c 128,-1,23
 257 306 257 306 257 250 c 128,-1,24
 257 194 257 194 270 173 c 128,-1,25
 283 152 283 152 309 152 c 0,16,17
EndSplineSet
Substitution2: "'smcp' Lowercase to Small Capitals lookup 12 subtable" q.sc
Substitution2: "'aalt' Access All Alternates lookup 0 subtable" q.sc
EndChar

StartChar: r
Encoding: 114 114 85
Width: 444
GlyphClass: 2
Flags: W
AnchorPoint: "Anchor-0" 142 0 basechar 0
LayerCount: 2
Fore
SplineSet
398 510 m 0,0,1
 433 510 433 510 450 498 c 1,2,-1
 431 310 l 1,3,4
 410 326 410 326 368 326 c 0,5,6
 322 326 322 326 295.5 304 c 128,-1,7
 269 282 269 282 269 240 c 2,8,-1
 269 0 l 1,9,-1
 39 0 l 1,10,-1
 39 500 l 1,11,-1
 246 500 l 1,12,-1
 251 375 l 1,13,14
 287 510 287 510 398 510 c 0,0,1
EndSplineSet
Substitution2: "Single Substitution lookup 57 subtable" r.swsh
Substitution2: "'swsh' Swash lookup 38 subtable" r.swsh
Substitution2: "'smcp' Lowercase to Small Capitals lookup 12 subtable" r.sc
AlternateSubs2: "'aalt' Access All Alternates lookup 1 subtable" r.sc r.swsh
EndChar

StartChar: s
Encoding: 115 115 86
Width: 537
GlyphClass: 2
Flags: W
AnchorPoint: "Anchor-0" 273 0 basechar 0
LayerCount: 2
Fore
SplineSet
271 -10 m 0,0,1
 88 -10 88 -10 6 64 c 1,2,-1
 107 186 l 1,3,4
 172 128 172 128 254 128 c 0,5,6
 298 128 298 128 298 143 c 0,7,8
 298 160 298 160 223 175 c 0,9,10
 115 196 115 196 65.5 235.5 c 128,-1,11
 16 275 16 275 16 336 c 0,12,13
 16 405 16 405 85.5 457.5 c 128,-1,14
 155 510 155 510 287 510 c 0,15,16
 449 510 449 510 528 437 c 1,17,-1
 431 323 l 1,18,19
 389 372 389 372 298 372 c 0,20,21
 247 372 247 372 247 354 c 0,22,23
 247 342 247 342 308 334 c 0,24,25
 423 318 423 318 476 278.5 c 128,-1,26
 529 239 529 239 529 170 c 0,27,28
 529 92 529 92 465 41 c 128,-1,29
 401 -10 401 -10 271 -10 c 0,0,1
EndSplineSet
Substitution2: "'hist' Historical Forms lookup 44 subtable" longs
Substitution2: "'smcp' Lowercase to Small Capitals lookup 12 subtable" s.sc
AlternateSubs2: "'aalt' Access All Alternates lookup 1 subtable" s.sc longs
EndChar

StartChar: t
Encoding: 116 116 87
Width: 445
GlyphClass: 2
Flags: W
AnchorPoint: "Anchor-0" 251 0 basechar 0
LayerCount: 2
Fore
SplineSet
431 154 m 1,0,-1
 441 24 l 1,1,2
 386 -10 386 -10 292 -10 c 0,3,4
 184 -10 184 -10 131 31.5 c 128,-1,5
 78 73 78 73 78 168 c 2,6,-1
 78 345 l 1,7,-1
 1 345 l 1,8,-1
 1 500 l 1,9,-1
 78 500 l 1,10,-1
 78 606 l 1,11,-1
 308 670 l 1,12,-1
 308 500 l 1,13,-1
 434 500 l 1,14,-1
 434 345 l 1,15,-1
 308 345 l 1,16,-1
 308 204 l 2,17,18
 308 170 308 170 322.5 155.5 c 128,-1,19
 337 141 337 141 368 141 c 0,20,21
 405 141 405 141 431 154 c 1,0,-1
EndSplineSet
Substitution2: "Single Substitution lookup 57 subtable" t.swsh
Substitution2: "'swsh' Swash lookup 38 subtable" t.swsh
Substitution2: "'smcp' Lowercase to Small Capitals lookup 12 subtable" t.sc
AlternateSubs2: "'aalt' Access All Alternates lookup 1 subtable" t.sc t.swsh
EndChar

StartChar: u
Encoding: 117 117 88
Width: 620
GlyphClass: 2
Flags: W
LayerCount: 2
Fore
SplineSet
351 500 m 1,0,-1
 581 500 l 1,1,-1
 581 0 l 1,2,-1
 374 0 l 1,3,-1
 369 106 l 1,4,5
 325 -10 325 -10 200 -10 c 0,6,7
 38 -10 38 -10 38 162 c 2,8,-1
 38 500 l 1,9,-1
 268 500 l 1,10,-1
 268 219 l 2,11,12
 268 186 268 186 276.5 173 c 128,-1,13
 285 160 285 160 305 160 c 0,14,15
 351 160 351 160 351 239 c 2,16,-1
 351 500 l 1,0,-1
EndSplineSet
Substitution2: "'smcp' Lowercase to Small Capitals lookup 12 subtable" u.sc
Substitution2: "'aalt' Access All Alternates lookup 0 subtable" u.sc
EndChar

StartChar: v
Encoding: 118 118 89
Width: 588
GlyphClass: 2
Flags: W
LayerCount: 2
Fore
SplineSet
598 500 m 1,0,-1
 437 0 l 1,1,-1
 151 0 l 1,2,-1
 -10 500 l 1,3,-1
 228 500 l 1,4,-1
 274 254 l 1,5,-1
 292 135 l 1,6,-1
 296 135 l 1,7,-1
 314 255 l 1,8,-1
 360 500 l 1,9,-1
 598 500 l 1,0,-1
EndSplineSet
Substitution2: "'smcp' Lowercase to Small Capitals lookup 12 subtable" v.sc
Substitution2: "'aalt' Access All Alternates lookup 0 subtable" v.sc
EndChar

StartChar: w
Encoding: 119 119 90
Width: 942
GlyphClass: 2
Flags: W
LayerCount: 2
Fore
SplineSet
951 500 m 1,0,-1
 815 0 l 1,1,-1
 529 0 l 1,2,-1
 493 154 l 1,3,-1
 473 276 l 1,4,-1
 469 276 l 1,5,-1
 450 155 l 1,6,-1
 413 0 l 1,7,-1
 127 0 l 1,8,-1
 -9 500 l 1,9,-1
 229 500 l 1,10,-1
 269 261 l 1,11,-1
 284 148 l 1,12,-1
 288 148 l 1,13,-1
 308 262 l 1,14,-1
 358 500 l 1,15,-1
 584 500 l 1,16,-1
 635 259 l 1,17,-1
 654 148 l 1,18,-1
 658 148 l 1,19,-1
 673 260 l 1,20,-1
 713 500 l 1,21,-1
 951 500 l 1,0,-1
EndSplineSet
Substitution2: "'smcp' Lowercase to Small Capitals lookup 12 subtable" w.sc
Substitution2: "'aalt' Access All Alternates lookup 0 subtable" w.sc
EndChar

StartChar: x
Encoding: 120 120 91
Width: 627
GlyphClass: 2
Flags: W
LayerCount: 2
Fore
SplineSet
638 0 m 1,0,-1
 384 0 l 1,1,-1
 311 153 l 1,2,-1
 240 0 l 1,3,-1
 -11 0 l 1,4,-1
 162 254 l 1,5,-1
 -7 500 l 1,6,-1
 247 500 l 1,7,-1
 314 355 l 1,8,-1
 383 500 l 1,9,-1
 634 500 l 1,10,-1
 465 250 l 1,11,-1
 638 0 l 1,0,-1
EndSplineSet
Substitution2: "'smcp' Lowercase to Small Capitals lookup 12 subtable" x.sc
Substitution2: "'aalt' Access All Alternates lookup 0 subtable" x.sc
EndChar

StartChar: y
Encoding: 121 121 92
Width: 594
GlyphClass: 2
Flags: W
LayerCount: 2
Fore
SplineSet
604 500 m 1,0,-1
 457 56 l 2,1,2
 407 -94 407 -94 338.5 -154.5 c 128,-1,3
 270 -215 270 -215 149 -215 c 0,4,5
 56 -215 56 -215 -5 -182 c 1,6,-1
 37 -37 l 1,7,8
 67 -54 67 -54 126 -54 c 0,9,10
 184 -54 184 -54 195 -27 c 2,11,-1
 198 -19 l 1,12,-1
 135 128 l 1,13,-1
 -8 500 l 1,14,-1
 243 500 l 1,15,-1
 288 242 l 1,16,-1
 307 125 l 1,17,-1
 329 243 l 1,18,-1
 379 500 l 1,19,-1
 604 500 l 1,0,-1
EndSplineSet
Substitution2: "Single Substitution lookup 57 subtable" y.swsh
Substitution2: "'swsh' Swash lookup 38 subtable" y.swsh
Substitution2: "'smcp' Lowercase to Small Capitals lookup 12 subtable" y.sc
AlternateSubs2: "'aalt' Access All Alternates lookup 1 subtable" y.sc y.swsh
EndChar

StartChar: z
Encoding: 122 122 93
Width: 502
GlyphClass: 2
Flags: W
LayerCount: 2
Fore
SplineSet
22 0 m 1,0,-1
 22 132 l 1,1,-1
 178 304 l 1,2,-1
 225 350 l 1,3,-1
 152 348 l 1,4,-1
 22 348 l 1,5,-1
 22 500 l 1,6,-1
 479 500 l 1,7,-1
 479 368 l 1,8,-1
 326 198 l 1,9,-1
 277 150 l 1,10,-1
 359 152 l 1,11,-1
 489 152 l 1,12,-1
 489 0 l 1,13,-1
 22 0 l 1,0,-1
EndSplineSet
Substitution2: "'smcp' Lowercase to Small Capitals lookup 12 subtable" z.sc
Substitution2: "'aalt' Access All Alternates lookup 0 subtable" z.sc
EndChar

StartChar: braceleft
Encoding: 123 123 94
Width: 466
GlyphClass: 2
Flags: W
LayerCount: 2
Fore
SplineSet
339 384 m 2,0,1
 339 296 339 296 252 267 c 1,2,3
 339 236 339 236 339 149 c 2,4,-1
 339 45 l 2,5,6
 339 -9 339 -9 366 -32.5 c 128,-1,7
 393 -56 393 -56 453 -56 c 1,8,-1
 453 -193 l 1,9,10
 293 -193 293 -193 227.5 -149 c 128,-1,11
 162 -105 162 -105 162 8 c 2,12,-1
 162 94 l 2,13,14
 162 150 162 150 136.5 174 c 128,-1,15
 111 198 111 198 50 198 c 1,16,-1
 50 335 l 1,17,18
 111 335 111 335 136.5 359 c 128,-1,19
 162 383 162 383 162 439 c 2,20,-1
 162 526 l 2,21,22
 162 638 162 638 227.5 682 c 128,-1,23
 293 726 293 726 453 726 c 1,24,-1
 453 589 l 1,25,26
 393 589 393 589 366 565.5 c 128,-1,27
 339 542 339 542 339 489 c 2,28,-1
 339 384 l 2,0,1
EndSplineSet
Substitution2: "'case' Case-Sensitive Forms lookup 29 subtable" braceleft.case
Substitution2: "'aalt' Access All Alternates lookup 0 subtable" braceleft.case
EndChar

StartChar: bar
Encoding: 124 124 95
Width: 372
GlyphClass: 2
Flags: W
LayerCount: 2
Fore
SplineSet
288 701 m 1,0,-1
 288 -168 l 1,1,-1
 84 -168 l 1,2,-1
 84 701 l 1,3,-1
 288 701 l 1,0,-1
EndSplineSet
Substitution2: "'case' Case-Sensitive Forms lookup 29 subtable" bar.case
Substitution2: "'aalt' Access All Alternates lookup 0 subtable" bar.case
EndChar

StartChar: braceright
Encoding: 125 125 96
Width: 466
GlyphClass: 2
Flags: W
LayerCount: 2
Fore
SplineSet
304 439 m 2,0,1
 304 383 304 383 329.5 359 c 128,-1,2
 355 335 355 335 416 335 c 1,3,-1
 416 198 l 1,4,5
 355 198 355 198 329.5 174 c 128,-1,6
 304 150 304 150 304 94 c 2,7,-1
 304 8 l 2,8,9
 304 -105 304 -105 238.5 -149 c 128,-1,10
 173 -193 173 -193 13 -193 c 1,11,-1
 13 -56 l 1,12,13
 73 -56 73 -56 100 -32.5 c 128,-1,14
 127 -9 127 -9 127 45 c 2,15,-1
 127 149 l 2,16,17
 127 236 127 236 214 267 c 1,18,19
 127 296 127 296 127 384 c 2,20,-1
 127 489 l 2,21,22
 127 542 127 542 100 565.5 c 128,-1,23
 73 589 73 589 13 589 c 1,24,-1
 13 726 l 1,25,26
 173 726 173 726 238.5 682 c 128,-1,27
 304 638 304 638 304 526 c 2,28,-1
 304 439 l 2,0,1
EndSplineSet
Substitution2: "'case' Case-Sensitive Forms lookup 29 subtable" braceright.case
Substitution2: "'aalt' Access All Alternates lookup 0 subtable" braceright.case
EndChar

StartChar: asciitilde
Encoding: 126 126 97
Width: 635
GlyphClass: 2
Flags: W
LayerCount: 2
Fore
SplineSet
592 452 m 1,0,1
 584 228 584 228 411 228 c 0,2,3
 379 228 379 228 352 237 c 128,-1,4
 325 246 325 246 310.5 256.5 c 128,-1,5
 296 267 296 267 280 276 c 128,-1,6
 264 285 264 285 251 285 c 0,7,8
 218 285 218 285 213 236 c 1,9,-1
 43 236 l 1,10,11
 51 460 51 460 224 460 c 0,12,13
 256 460 256 460 283 451 c 128,-1,14
 310 442 310 442 324.5 431.5 c 128,-1,15
 339 421 339 421 355 412 c 128,-1,16
 371 403 371 403 384 403 c 0,17,18
 417 403 417 403 422 452 c 1,19,-1
 592 452 l 1,0,1
EndSplineSet
EndChar

StartChar: exclamdown
Encoding: 161 161 99
Width: 321
GlyphClass: 2
Flags: W
LayerCount: 2
Fore
SplineSet
161 315 m 128,-1,1
 105 315 105 315 74.5 340 c 128,-1,2
 44 365 44 365 44 411 c 128,-1,3
 44 457 44 457 74.5 482 c 128,-1,4
 105 507 105 507 161 507 c 128,-1,5
 217 507 217 507 247.5 482 c 128,-1,6
 278 457 278 457 278 411 c 128,-1,7
 278 365 278 365 247.5 340 c 128,-1,0
 217 315 217 315 161 315 c 128,-1,1
41 -160 m 1,8,-1
 41 4 l 1,9,-1
 65 280 l 1,10,-1
 257 280 l 1,11,-1
 281 4 l 1,12,-1
 281 -160 l 1,13,-1
 41 -160 l 1,8,-1
EndSplineSet
Substitution2: "'case' Case-Sensitive Forms lookup 29 subtable" exclamdown.case
Substitution2: "'smcp' Lowercase to Small Capitals lookup 12 subtable" exclamdown.sc
Substitution2: "'c2sc' Capitals to Small Capitals lookup 11 subtable" exclamdown.sc
AlternateSubs2: "'aalt' Access All Alternates lookup 1 subtable" exclamdown.sc exclamdown.case
EndChar

StartChar: cent
Encoding: 162 162 100
Width: 604
GlyphClass: 2
Flags: W
LayerCount: 2
Fore
SplineSet
408 287 m 1,0,1
 404 358 404 358 343 373 c 1,2,-1
 343 126 l 1,3,4
 401 138 401 138 409 203 c 1,5,-1
 569 148 l 1,6,7
 574 81 574 81 514 38 c 128,-1,8
 454 -5 454 -5 343 -10 c 1,9,-1
 343 -100 l 1,10,-1
 285 -100 l 1,11,-1
 285 -9 l 1,12,13
 161 -1 161 -1 96.5 65.5 c 128,-1,14
 32 132 32 132 32 250 c 128,-1,15
 32 368 32 368 98.5 435.5 c 128,-1,16
 165 503 165 503 285 509 c 1,17,-1
 285 600 l 1,18,-1
 343 600 l 1,19,-1
 343 509 l 1,20,21
 464 503 464 503 518.5 455.5 c 128,-1,22
 573 408 573 408 570 340 c 1,23,-1
 408 287 l 1,0,1
230 247 m 0,24,25
 230 142 230 142 285 128 c 1,26,-1
 285 372 l 1,27,28
 256 364 256 364 243 335.5 c 128,-1,29
 230 307 230 307 230 247 c 0,24,25
EndSplineSet
Substitution2: "'tnum' Tabular Numbers lookup 26 subtable" cent.tf
Substitution2: "'aalt' Access All Alternates lookup 0 subtable" cent.tf
EndChar

StartChar: sterling
Encoding: 163 163 101
Width: 604
GlyphClass: 2
Flags: W
LayerCount: 2
Fore
SplineSet
570 191 m 1,0,1
 577 103 577 103 543 46.5 c 128,-1,2
 509 -10 509 -10 432 -10 c 0,3,4
 367 -10 367 -10 292 47 c 1,5,6
 235 -10 235 -10 155 -10 c 0,7,8
 98 -10 98 -10 61 15 c 128,-1,9
 24 40 24 40 24 87 c 0,10,11
 24 135 24 135 63 159.5 c 128,-1,12
 102 184 102 184 160 184 c 0,13,14
 186 184 186 184 198 183 c 1,15,16
 194 227 194 227 171 271 c 1,17,-1
 33 271 l 1,18,-1
 33 345 l 1,19,-1
 122 345 l 1,20,21
 73 417 73 417 73 479 c 0,22,23
 73 558 73 558 137.5 614 c 128,-1,24
 202 670 202 670 323 670 c 0,25,26
 430 670 430 670 486 625 c 128,-1,27
 542 580 542 580 562 484 c 1,28,-1
 382 419 l 1,29,30
 374 513 374 513 314 513 c 0,31,32
 268 513 268 513 268 462 c 0,33,34
 268 438 268 438 300 387 c 0,35,36
 318 361 318 361 326 345 c 1,37,-1
 510 345 l 1,38,-1
 510 271 l 1,39,-1
 352 271 l 1,40,41
 356 251 356 251 356 223 c 0,42,43
 356 184 356 184 345 145 c 1,44,45
 366 139 366 139 391 139 c 0,46,47
 445 139 445 139 439 211 c 1,48,-1
 570 191 l 1,0,1
157 61 m 0,49,50
 174 61 174 61 183 71.5 c 128,-1,51
 192 82 192 82 196 108 c 1,52,53
 179 115 179 115 157 115 c 0,54,55
 122 115 122 115 122 88 c 128,-1,56
 122 61 122 61 157 61 c 0,49,50
EndSplineSet
Substitution2: "'tnum' Tabular Numbers lookup 26 subtable" sterling.tf
Substitution2: "'aalt' Access All Alternates lookup 0 subtable" sterling.tf
EndChar

StartChar: currency
Encoding: 164 164 102
Width: 604
GlyphClass: 2
Flags: W
LayerCount: 2
Fore
SplineSet
517 330 m 128,-1,1
 517 285 517 285 501 243 c 1,2,-1
 605 156 l 1,3,-1
 475 27 l 1,4,-1
 384 136 l 1,5,6
 349 123 349 123 303 123 c 0,7,8
 260 123 260 123 219 136 c 1,9,-1
 128 27 l 1,10,-1
 -1 156 l 1,11,-1
 103 243 l 1,12,13
 87 285 87 285 87 330 c 0,14,15
 87 374 87 374 103 416 c 1,16,-1
 -1 503 l 1,17,-1
 128 632 l 1,18,-1
 219 523 l 1,19,20
 260 536 260 536 303 536 c 0,21,22
 349 536 349 536 384 523 c 1,23,-1
 475 632 l 1,24,-1
 605 503 l 1,25,-1
 501 415 l 1,26,0
 517 375 517 375 517 330 c 128,-1,1
303 276 m 0,27,28
 327 276 327 276 340.5 290.5 c 128,-1,29
 354 305 354 305 354 330 c 128,-1,30
 354 355 354 355 340.5 369.5 c 128,-1,31
 327 384 327 384 303 384 c 0,32,33
 278 384 278 384 264 369.5 c 128,-1,34
 250 355 250 355 250 330 c 128,-1,35
 250 305 250 305 264 290.5 c 128,-1,36
 278 276 278 276 303 276 c 0,27,28
EndSplineSet
Substitution2: "'tnum' Tabular Numbers lookup 26 subtable" currency.tf
Substitution2: "'aalt' Access All Alternates lookup 0 subtable" currency.tf
EndChar

StartChar: yen
Encoding: 165 165 103
Width: 604
GlyphClass: 2
Flags: W
LayerCount: 2
Fore
SplineSet
427 310 m 1,0,-1
 567 310 l 1,1,-1
 567 251 l 1,2,-1
 411 251 l 1,3,-1
 411 190 l 1,4,-1
 567 190 l 1,5,-1
 567 131 l 1,6,-1
 411 131 l 1,7,-1
 411 0 l 1,8,-1
 193 0 l 1,9,-1
 193 131 l 1,10,-1
 37 131 l 1,11,-1
 37 190 l 1,12,-1
 193 190 l 1,13,-1
 193 251 l 1,14,-1
 37 251 l 1,15,-1
 37 310 l 1,16,-1
 177 310 l 1,17,-1
 12 660 l 1,18,-1
 217 660 l 1,19,-1
 276 474 l 1,20,-1
 301 368 l 1,21,-1
 303 368 l 1,22,-1
 328 474 l 1,23,-1
 387 660 l 1,24,-1
 592 660 l 1,25,-1
 427 310 l 1,0,-1
EndSplineSet
Substitution2: "'tnum' Tabular Numbers lookup 26 subtable" yen.tf
Substitution2: "'aalt' Access All Alternates lookup 0 subtable" yen.tf
EndChar

StartChar: brokenbar
Encoding: 166 166 104
Width: 284
GlyphClass: 2
Flags: W
LayerCount: 2
Fore
SplineSet
244 701 m 1,0,-1
 244 310 l 1,1,-1
 40 310 l 1,2,-1
 40 701 l 1,3,-1
 244 701 l 1,0,-1
244 223 m 1,4,-1
 244 -168 l 1,5,-1
 40 -168 l 1,6,-1
 40 223 l 1,7,-1
 244 223 l 1,4,-1
EndSplineSet
EndChar

StartChar: section
Encoding: 167 167 105
Width: 639
GlyphClass: 2
Flags: W
LayerCount: 2
Fore
SplineSet
620 282 m 0,0,1
 620 185 620 185 553 131 c 1,2,3
 562 106 562 106 562 74 c 0,4,5
 562 -16 562 -16 497 -63 c 128,-1,6
 432 -110 432 -110 314 -110 c 0,7,8
 221 -110 221 -110 167 -88 c 128,-1,9
 113 -66 113 -66 69 -17 c 1,10,-1
 176 86 l 1,11,12
 203 54 203 54 232.5 41 c 128,-1,13
 262 28 262 28 312 28 c 128,-1,14
 362 28 362 28 383 33 c 128,-1,15
 404 38 404 38 404 53 c 0,16,17
 404 81 404 81 294 89 c 0,18,19
 151 99 151 99 84.5 142.5 c 128,-1,20
 18 186 18 186 18 264 c 0,21,22
 18 360 18 360 85 416 c 1,23,24
 76 442 76 442 76 472 c 0,25,26
 76 563 76 563 142 616.5 c 128,-1,27
 208 670 208 670 324 670 c 0,28,29
 417 670 417 670 471 648 c 128,-1,30
 525 626 525 626 569 577 c 1,31,-1
 462 474 l 1,32,33
 435 506 435 506 405.5 519 c 128,-1,34
 376 532 376 532 326 532 c 0,35,36
 282 532 282 532 258 521 c 128,-1,37
 234 510 234 510 234 493 c 0,38,39
 234 466 234 466 344 457 c 0,40,41
 487 446 487 446 553.5 403 c 128,-1,42
 620 360 620 360 620 282 c 0,0,1
292 254 m 0,43,44
 396 245 396 245 456 220 c 1,45,46
 471 230 471 230 471 245 c 0,47,48
 471 264 471 264 443.5 275 c 128,-1,49
 416 286 416 286 346 292 c 0,50,51
 242 301 242 301 182 326 c 1,52,53
 167 316 167 316 167 301 c 0,54,55
 167 282 167 282 194.5 271 c 128,-1,56
 222 260 222 260 292 254 c 0,43,44
EndSplineSet
EndChar

StartChar: dieresis
Encoding: 168 168 106
Width: 500
GlyphClass: 2
Flags: W
LayerCount: 2
Fore
SplineSet
130 720 m 0,0,1
 180 720 180 720 207.5 696.5 c 128,-1,2
 235 673 235 673 235 629 c 128,-1,3
 235 585 235 585 207.5 561.5 c 128,-1,4
 180 538 180 538 130 538 c 0,5,6
 81 538 81 538 54.5 562 c 128,-1,7
 28 586 28 586 28 629 c 128,-1,8
 28 672 28 672 54.5 696 c 128,-1,9
 81 720 81 720 130 720 c 0,0,1
367 720 m 0,10,11
 417 720 417 720 444.5 696.5 c 128,-1,12
 472 673 472 673 472 629 c 128,-1,13
 472 585 472 585 444.5 561.5 c 128,-1,14
 417 538 417 538 367 538 c 0,15,16
 318 538 318 538 291.5 562 c 128,-1,17
 265 586 265 586 265 629 c 128,-1,18
 265 672 265 672 291.5 696 c 128,-1,19
 318 720 318 720 367 720 c 0,10,11
EndSplineSet
EndChar

StartChar: copyright
Encoding: 169 169 107
Width: 740
GlyphClass: 2
Flags: W
LayerCount: 2
Fore
SplineSet
370 670 m 128,-1,1
 527 670 527 670 621.5 577 c 128,-1,2
 716 484 716 484 716 330 c 128,-1,3
 716 176 716 176 621.5 83 c 128,-1,4
 527 -10 527 -10 370 -10 c 128,-1,5
 213 -10 213 -10 118.5 83 c 128,-1,6
 24 176 24 176 24 330 c 128,-1,7
 24 484 24 484 118.5 577 c 128,-1,0
 213 670 213 670 370 670 c 128,-1,1
379 542 m 0,8,9
 278 542 278 542 220 485 c 128,-1,10
 162 428 162 428 162 332 c 128,-1,11
 162 236 162 236 220 179 c 128,-1,12
 278 122 278 122 379 122 c 0,13,14
 462 122 462 122 510.5 155.5 c 128,-1,15
 559 189 559 189 585 265 c 1,16,-1
 467 309 l 1,17,18
 456 276 456 276 437 263.5 c 128,-1,19
 418 251 418 251 386 251 c 0,20,21
 304 251 304 251 304 330 c 0,22,23
 304 369 304 369 325 390 c 128,-1,24
 346 411 346 411 386 411 c 0,25,26
 417 411 417 411 433 400.5 c 128,-1,27
 449 390 449 390 461 362 c 1,28,-1
 570 412 l 1,29,30
 533 542 533 542 379 542 c 0,8,9
EndSplineSet
EndChar

StartChar: ordfeminine
Encoding: 170 170 108
Width: 476
GlyphClass: 2
Flags: W
LayerCount: 2
Fore
SplineSet
166 491 m 2,0,-1
 237 507 l 1,1,-1
 237 519 l 2,2,3
 237 554 237 554 205 554 c 0,4,5
 168 554 168 554 167 510 c 1,6,-1
 30 531 l 1,7,8
 35 592 35 592 81.5 626 c 128,-1,9
 128 660 128 660 214 660 c 0,10,11
 310 660 310 660 355.5 623.5 c 128,-1,12
 401 587 401 587 401 513 c 2,13,-1
 401 416 l 2,14,15
 401 386 401 386 426 386 c 0,16,17
 438 386 438 386 444 389 c 1,18,-1
 431 306 l 1,19,20
 405 292 405 292 365 292 c 0,21,22
 284 292 284 292 264 351 c 1,23,24
 228 292 228 292 136 292 c 0,25,26
 26 292 26 292 26 376 c 0,27,28
 26 421 26 421 58 448 c 128,-1,29
 90 475 90 475 166 491 c 2,0,-1
206 381 m 0,30,31
 237 381 237 381 237 416 c 2,32,-1
 237 450 l 1,33,-1
 213 443 l 2,34,35
 181 433 181 433 181 406 c 0,36,37
 181 381 181 381 206 381 c 0,30,31
39 117 m 1,38,-1
 39 230 l 1,39,-1
 435 230 l 1,40,-1
 435 117 l 1,41,-1
 39 117 l 1,38,-1
EndSplineSet
EndChar

StartChar: guillemotleft
Encoding: 171 171 109
Width: 647
GlyphClass: 2
Flags: W
LayerCount: 2
Fore
SplineSet
337 461 m 1,0,-1
 221 265 l 1,1,-1
 337 69 l 1,2,-1
 149 69 l 1,3,-1
 24 265 l 1,4,-1
 149 461 l 1,5,-1
 337 461 l 1,0,-1
623 461 m 1,6,-1
 507 265 l 1,7,-1
 623 69 l 1,8,-1
 435 69 l 1,9,-1
 310 265 l 1,10,-1
 435 461 l 1,11,-1
 623 461 l 1,6,-1
EndSplineSet
Substitution2: "'case' Case-Sensitive Forms lookup 29 subtable" guillemotleft.case
Substitution2: "'aalt' Access All Alternates lookup 0 subtable" guillemotleft.case
EndChar

StartChar: logicalnot
Encoding: 172 172 110
Width: 604
GlyphClass: 2
Flags: W
LayerCount: 2
Fore
SplineSet
60 407 m 1,0,-1
 544 407 l 1,1,-1
 544 75 l 1,2,-1
 369 75 l 1,3,-1
 369 254 l 1,4,-1
 60 254 l 1,5,-1
 60 407 l 1,0,-1
EndSplineSet
EndChar

StartChar: uni00AD
Encoding: 173 173 111
Width: 540
GlyphClass: 2
Flags: W
LayerCount: 2
Fore
SplineSet
465 359 m 1,0,-1
 465 184 l 1,1,-1
 75 184 l 1,2,-1
 75 359 l 1,3,-1
 465 359 l 1,0,-1
EndSplineSet
EndChar

StartChar: registered
Encoding: 174 174 112
Width: 740
GlyphClass: 2
Flags: W
LayerCount: 2
Fore
SplineSet
370 670 m 128,-1,1
 527 670 527 670 621.5 577 c 128,-1,2
 716 484 716 484 716 330 c 128,-1,3
 716 176 716 176 621.5 83 c 128,-1,4
 527 -10 527 -10 370 -10 c 128,-1,5
 213 -10 213 -10 118.5 83 c 128,-1,6
 24 176 24 176 24 330 c 128,-1,7
 24 484 24 484 118.5 577 c 128,-1,0
 213 670 213 670 370 670 c 128,-1,1
430 523 m 2,8,-1
 209 523 l 1,9,-1
 209 163 l 1,10,-1
 343 163 l 1,11,-1
 343 281 l 1,12,-1
 363 281 l 1,13,-1
 414 163 l 1,14,-1
 574 163 l 1,15,-1
 483 293 l 1,16,17
 555 321 555 321 555 402 c 0,18,19
 555 453 555 453 518.5 488 c 128,-1,20
 482 523 482 523 430 523 c 2,8,-1
391 427 m 2,21,22
 428 427 428 427 428 390 c 128,-1,23
 428 353 428 353 391 353 c 2,24,-1
 343 353 l 1,25,-1
 343 427 l 1,26,-1
 391 427 l 2,21,22
EndSplineSet
Substitution2: "'ordn' Ordinals lookup 22 subtable" registeredsuperior
Substitution2: "'sups' Superscript lookup 15 subtable" registeredsuperior
Substitution2: "'aalt' Access All Alternates lookup 0 subtable" registeredsuperior
EndChar

StartChar: macron
Encoding: 175 175 113
Width: 500
GlyphClass: 2
Flags: W
LayerCount: 2
Fore
SplineSet
444 681 m 1,0,-1
 444 551 l 1,1,-1
 56 551 l 1,2,-1
 56 681 l 1,3,-1
 444 681 l 1,0,-1
EndSplineSet
EndChar

StartChar: degree
Encoding: 176 176 114
Width: 519
GlyphClass: 2
Flags: W
LayerCount: 2
Fore
SplineSet
260 270 m 0,0,1
 155 270 155 270 95.5 323 c 128,-1,2
 36 376 36 376 36 470 c 0,3,4
 36 563 36 563 95.5 616.5 c 128,-1,5
 155 670 155 670 260 670 c 0,6,7
 364 670 364 670 423.5 616.5 c 128,-1,8
 483 563 483 563 483 470 c 0,9,10
 483 376 483 376 423.5 323 c 128,-1,11
 364 270 364 270 260 270 c 0,0,1
260 408 m 128,-1,13
 289 408 289 408 306.5 425.5 c 128,-1,14
 324 443 324 443 324 471 c 128,-1,15
 324 499 324 499 306.5 516 c 128,-1,16
 289 533 289 533 260 533 c 128,-1,17
 231 533 231 533 213 516 c 128,-1,18
 195 499 195 499 195 471 c 128,-1,19
 195 443 195 443 213 425.5 c 128,-1,12
 231 408 231 408 260 408 c 128,-1,13
EndSplineSet
EndChar

StartChar: plusminus
Encoding: 177 177 115
Width: 604
GlyphClass: 2
Flags: W
LayerCount: 2
Fore
SplineSet
380 506 m 1,0,-1
 559 506 l 1,1,-1
 559 360 l 1,2,-1
 380 360 l 1,3,-1
 380 206 l 1,4,-1
 225 206 l 1,5,-1
 225 360 l 1,6,-1
 45 360 l 1,7,-1
 45 506 l 1,8,-1
 225 506 l 1,9,-1
 225 660 l 1,10,-1
 380 660 l 1,11,-1
 380 506 l 1,0,-1
45 1 m 1,12,-1
 45 141 l 1,13,-1
 559 141 l 1,14,-1
 559 1 l 1,15,-1
 45 1 l 1,12,-1
EndSplineSet
EndChar

StartChar: uni00B2
Encoding: 178 178 116
Width: 410
GlyphClass: 2
Flags: W
LayerCount: 2
Fore
SplineSet
22 333 m 1,0,-1
 22 430 l 1,1,2
 72 451 72 451 109 472 c 0,3,4
 222 537 222 537 222 589 c 0,5,6
 222 616 222 616 196 616 c 0,7,8
 160 616 160 616 163 551 c 1,9,-1
 7 589 l 1,10,11
 7 659 7 659 58 697 c 128,-1,12
 109 735 109 735 198 735 c 0,13,14
 298 735 298 735 344 696 c 128,-1,15
 390 657 390 657 390 603 c 0,16,17
 390 537 390 537 325 495 c 0,18,19
 287 470 287 470 231 454 c 1,20,-1
 231 452 l 1,21,22
 276 457 276 457 341 457 c 2,23,-1
 392 457 l 1,24,-1
 392 333 l 1,25,-1
 22 333 l 1,0,-1
EndSplineSet
EndChar

StartChar: uni00B3
Encoding: 179 179 117
Width: 391
GlyphClass: 2
Flags: W
LayerCount: 2
Fore
SplineSet
192 735 m 0,0,1
 366 735 366 735 366 619 c 0,2,3
 366 539 366 539 279 533 c 1,4,-1
 279 528 l 1,5,6
 373 528 373 528 373 449 c 0,7,8
 373 392 373 392 328 359.5 c 128,-1,9
 283 327 283 327 202 327 c 0,10,11
 118 327 118 327 68.5 351 c 128,-1,12
 19 375 19 375 -1 431 c 1,13,-1
 146 482 l 1,14,15
 145 437 145 437 187 437 c 0,16,17
 218 437 218 437 218 465 c 0,18,19
 218 488 218 488 187 488 c 2,20,-1
 165 488 l 1,21,-1
 165 562 l 1,22,-1
 183 562 l 2,23,24
 213 562 213 562 213 590 c 0,25,26
 213 617 213 617 186 617 c 0,27,28
 149 617 149 617 148 571 c 1,29,-1
 7 616 l 1,30,31
 15 677 15 677 65.5 706 c 128,-1,32
 116 735 116 735 192 735 c 0,0,1
EndSplineSet
EndChar

StartChar: acute
Encoding: 180 180 118
Width: 500
GlyphClass: 2
Flags: W
LayerCount: 2
Fore
SplineSet
227 730 m 1,0,-1
 432 730 l 1,1,-1
 329 553 l 1,2,-1
 167 553 l 1,3,-1
 227 730 l 1,0,-1
EndSplineSet
EndChar

StartChar: uni00B5
Encoding: 181 181 119
Width: 621
GlyphClass: 2
Flags: W
LayerCount: 2
Fore
SplineSet
352 500 m 1,0,-1
 582 500 l 1,1,-1
 582 0 l 1,2,-1
 375 0 l 1,3,-1
 370 97 l 1,4,5
 340 9 340 9 269 -6 c 1,6,-1
 269 -210 l 1,7,-1
 39 -210 l 1,8,-1
 39 500 l 1,9,-1
 269 500 l 1,10,-1
 269 219 l 2,11,12
 269 186 269 186 277.5 173 c 128,-1,13
 286 160 286 160 306 160 c 0,14,15
 352 160 352 160 352 239 c 2,16,-1
 352 500 l 1,0,-1
EndSplineSet
EndChar

StartChar: paragraph
Encoding: 182 182 120
Width: 809
GlyphClass: 2
Flags: W
LayerCount: 2
Fore
SplineSet
759 660 m 1,0,-1
 759 -100 l 1,1,-1
 576 -100 l 1,2,-1
 576 488 l 1,3,-1
 482 488 l 1,4,-1
 482 -100 l 1,5,-1
 299 -100 l 1,6,-1
 299 224 l 1,7,8
 164 225 164 225 97 277.5 c 128,-1,9
 30 330 30 330 30 441 c 0,10,11
 30 553 30 553 100.5 606.5 c 128,-1,12
 171 660 171 660 320 660 c 2,13,-1
 759 660 l 1,0,-1
EndSplineSet
Substitution2: "'ornm' Ornaments lookup 40 subtable" uni2761
Substitution2: "'aalt' Access All Alternates lookup 0 subtable" uni2761
EndChar

StartChar: periodcentered
Encoding: 183 183 121
Width: 306
GlyphClass: 2
Flags: W
LayerCount: 2
Fore
SplineSet
153 459 m 128,-1,1
 212 459 212 459 244 431 c 128,-1,2
 276 403 276 403 276 352 c 128,-1,3
 276 301 276 301 244 273 c 128,-1,4
 212 245 212 245 153 245 c 128,-1,5
 94 245 94 245 62 273 c 128,-1,6
 30 301 30 301 30 352 c 128,-1,7
 30 403 30 403 62 431 c 128,-1,0
 94 459 94 459 153 459 c 128,-1,1
EndSplineSet
Substitution2: "Single Substitution lookup 55 subtable" periodcentered.loclCAT.sc
Substitution2: "Single Substitution lookup 54 subtable" periodcentered.loclCAT.case
Substitution2: "Single Substitution lookup 53 subtable" periodcentered.loclCAT
Substitution2: "'case' Case-Sensitive Forms lookup 29 subtable" periodcentered.case
Substitution2: "'smcp' Lowercase to Small Capitals lookup 12 subtable" periodcentered.sc
Substitution2: "'c2sc' Capitals to Small Capitals lookup 11 subtable" periodcentered.sc
AlternateSubs2: "'aalt' Access All Alternates lookup 1 subtable" periodcentered.sc periodcentered.case
Position2: "Single Positioning lookup 6 subtable" dx=0 dy=0 dh=-30 dv=0
EndChar

StartChar: cedilla
Encoding: 184 184 122
Width: 500
GlyphClass: 2
Flags: W
LayerCount: 2
Fore
SplineSet
168 2 m 1,0,-1
 208 42 l 1,1,2
 302 36 302 36 353 0.5 c 128,-1,3
 404 -35 404 -35 404 -90 c 0,4,5
 404 -215 404 -215 243 -215 c 0,6,7
 155 -215 155 -215 109 -171 c 1,8,-1
 154 -76 l 1,9,10
 182 -104 182 -104 228 -104 c 0,11,12
 253 -104 253 -104 267.5 -92.5 c 128,-1,13
 282 -81 282 -81 282 -60 c 0,14,15
 282 -12 282 -12 168 2 c 1,0,-1
EndSplineSet
EndChar

StartChar: uni00B9
Encoding: 185 185 123
Width: 335
GlyphClass: 2
Flags: W
LayerCount: 2
Fore
SplineSet
168 730 m 1,0,-1
 301 730 l 1,1,-1
 301 333 l 1,2,-1
 143 333 l 1,3,-1
 143 526 l 2,4,5
 143 550 143 550 146 587 c 1,6,7
 85 544 85 544 25 543 c 1,8,-1
 25 672 l 1,9,10
 61 675 61 675 106 693.5 c 128,-1,11
 151 712 151 712 168 730 c 1,0,-1
EndSplineSet
EndChar

StartChar: ordmasculine
Encoding: 186 186 124
Width: 464
GlyphClass: 2
Flags: W
LayerCount: 2
Fore
SplineSet
232 292 m 128,-1,1
 140 292 140 292 87 340.5 c 128,-1,2
 34 389 34 389 34 476 c 128,-1,3
 34 563 34 563 87 611.5 c 128,-1,4
 140 660 140 660 232 660 c 128,-1,5
 324 660 324 660 377 611.5 c 128,-1,6
 430 563 430 563 430 476 c 128,-1,7
 430 389 430 389 377 340.5 c 128,-1,0
 324 292 324 292 232 292 c 128,-1,1
232 392 m 128,-1,9
 251 392 251 392 258.5 410 c 128,-1,10
 266 428 266 428 266 476 c 128,-1,11
 266 524 266 524 258.5 542 c 128,-1,12
 251 560 251 560 232 560 c 128,-1,13
 213 560 213 560 205.5 541.5 c 128,-1,14
 198 523 198 523 198 476 c 128,-1,15
 198 429 198 429 205.5 410.5 c 128,-1,8
 213 392 213 392 232 392 c 128,-1,9
36 117 m 1,16,-1
 36 230 l 1,17,-1
 428 230 l 1,18,-1
 428 117 l 1,19,-1
 36 117 l 1,16,-1
EndSplineSet
EndChar

StartChar: guillemotright
Encoding: 187 187 125
Width: 647
GlyphClass: 2
Flags: W
LayerCount: 2
Fore
SplineSet
24 461 m 1,0,-1
 212 461 l 1,1,-1
 337 265 l 1,2,-1
 212 69 l 1,3,-1
 24 69 l 1,4,-1
 140 265 l 1,5,-1
 24 461 l 1,0,-1
310 461 m 1,6,-1
 498 461 l 1,7,-1
 623 265 l 1,8,-1
 498 69 l 1,9,-1
 310 69 l 1,10,-1
 426 265 l 1,11,-1
 310 461 l 1,6,-1
EndSplineSet
Substitution2: "'case' Case-Sensitive Forms lookup 29 subtable" guillemotright.case
Substitution2: "'aalt' Access All Alternates lookup 0 subtable" guillemotright.case
EndChar

StartChar: onequarter
Encoding: 188 188 126
Width: 949
GlyphClass: 2
Flags: W
LayerCount: 2
Fore
SplineSet
143 268 m 1,0,-1
 143 461 l 2,1,2
 143 484 143 484 146 522 c 1,3,4
 85 479 85 479 25 478 c 1,5,-1
 25 607 l 1,6,7
 61 610 61 610 106 628.5 c 128,-1,8
 151 647 151 647 168 665 c 1,9,-1
 301 665 l 1,10,-1
 301 268 l 1,11,-1
 143 268 l 1,0,-1
636 661 m 1,12,-1
 783 661 l 1,13,-1
 307 0 l 1,14,-1
 160 0 l 1,15,-1
 636 661 l 1,12,-1
883 174 m 1,16,-1
 936 174 l 1,17,-1
 936 71 l 1,18,-1
 883 71 l 1,19,-1
 883 -4 l 1,20,-1
 743 -4 l 1,21,-1
 743 71 l 1,22,-1
 541 71 l 1,23,-1
 541 141 l 1,24,-1
 689 394 l 1,25,-1
 883 394 l 1,26,-1
 883 174 l 1,16,-1
743 227 m 2,27,28
 743 238 743 238 746 310 c 1,29,-1
 743 310 l 1,30,31
 733 281 733 281 714 247 c 2,32,-1
 673 174 l 1,33,-1
 743 174 l 1,34,-1
 743 227 l 2,27,28
EndSplineSet
EndChar

StartChar: onehalf
Encoding: 189 189 127
Width: 1018
GlyphClass: 2
Flags: W
LayerCount: 2
Fore
SplineSet
143 268 m 1,0,-1
 143 461 l 2,1,2
 143 484 143 484 146 522 c 1,3,4
 85 479 85 479 25 478 c 1,5,-1
 25 607 l 1,6,7
 61 610 61 610 106 628.5 c 128,-1,8
 151 647 151 647 168 665 c 1,9,-1
 301 665 l 1,10,-1
 301 268 l 1,11,-1
 143 268 l 1,0,-1
636 661 m 1,12,-1
 783 661 l 1,13,-1
 307 0 l 1,14,-1
 160 0 l 1,15,-1
 636 661 l 1,12,-1
949 120 m 2,16,-1
 1000 120 l 1,17,-1
 1000 -4 l 1,18,-1
 630 -4 l 1,19,-1
 630 93 l 1,20,21
 680 114 680 114 717 135 c 0,22,23
 830 200 830 200 830 252 c 0,24,25
 830 279 830 279 804 279 c 0,26,27
 768 279 768 279 771 214 c 1,28,-1
 615 252 l 1,29,30
 615 322 615 322 666 360 c 128,-1,31
 717 398 717 398 806 398 c 0,32,33
 906 398 906 398 952 359 c 128,-1,34
 998 320 998 320 998 266 c 0,35,36
 998 200 998 200 933 158 c 0,37,38
 895 133 895 133 839 117 c 1,39,-1
 839 115 l 1,40,41
 884 120 884 120 949 120 c 2,16,-1
EndSplineSet
EndChar

StartChar: threequarters
Encoding: 190 190 128
Width: 1005
GlyphClass: 2
Flags: W
LayerCount: 2
Fore
SplineSet
192 670 m 0,0,1
 366 670 366 670 366 554 c 0,2,3
 366 474 366 474 279 468 c 1,4,-1
 279 463 l 1,5,6
 373 463 373 463 373 384 c 0,7,8
 373 327 373 327 328 294.5 c 128,-1,9
 283 262 283 262 202 262 c 0,10,11
 118 262 118 262 68.5 286 c 128,-1,12
 19 310 19 310 -1 366 c 1,13,-1
 146 417 l 1,14,15
 145 372 145 372 187 372 c 0,16,17
 218 372 218 372 218 400 c 0,18,19
 218 423 218 423 187 423 c 2,20,-1
 165 423 l 1,21,-1
 165 497 l 1,22,-1
 183 497 l 2,23,24
 213 497 213 497 213 525 c 0,25,26
 213 552 213 552 186 552 c 0,27,28
 149 552 149 552 148 506 c 1,29,-1
 7 551 l 1,30,31
 15 612 15 612 65.5 641 c 128,-1,32
 116 670 116 670 192 670 c 0,0,1
216 0 m 1,33,-1
 692 661 l 1,34,-1
 839 661 l 1,35,-1
 363 0 l 1,36,-1
 216 0 l 1,33,-1
992 174 m 1,37,-1
 992 71 l 1,38,-1
 939 71 l 1,39,-1
 939 -4 l 1,40,-1
 799 -4 l 1,41,-1
 799 71 l 1,42,-1
 597 71 l 1,43,-1
 597 141 l 1,44,-1
 745 394 l 1,45,-1
 939 394 l 1,46,-1
 939 174 l 1,47,-1
 992 174 l 1,37,-1
729 174 m 1,48,-1
 799 174 l 1,49,-1
 799 227 l 2,50,51
 799 238 799 238 802 310 c 1,52,-1
 799 310 l 1,53,54
 789 281 789 281 770 247 c 2,55,-1
 729 174 l 1,48,-1
EndSplineSet
EndChar

StartChar: questiondown
Encoding: 191 191 129
Width: 651
GlyphClass: 2
Flags: W
LayerCount: 2
Fore
SplineSet
338 316 m 128,-1,1
 282 316 282 316 251.5 341 c 128,-1,2
 221 366 221 366 221 412 c 128,-1,3
 221 458 221 458 251.5 483 c 128,-1,4
 282 508 282 508 338 508 c 128,-1,5
 394 508 394 508 424.5 483 c 128,-1,6
 455 458 455 458 455 412 c 128,-1,7
 455 366 455 366 424.5 341 c 128,-1,0
 394 316 394 316 338 316 c 128,-1,1
320 -169 m 0,8,9
 37 -169 37 -169 37 20 c 0,10,11
 37 114 37 114 87.5 157.5 c 128,-1,12
 138 201 138 201 229 211 c 1,13,-1
 246 283 l 1,14,-1
 433 283 l 1,15,-1
 449 129 l 1,16,17
 287 125 287 125 287 56 c 0,18,19
 287 11 287 11 335 11 c 0,20,21
 396 11 396 11 397 88 c 1,22,-1
 623 11 l 1,23,24
 616 -70 616 -70 544 -119.5 c 128,-1,25
 472 -169 472 -169 320 -169 c 0,8,9
EndSplineSet
Substitution2: "'case' Case-Sensitive Forms lookup 29 subtable" questiondown.case
Substitution2: "'smcp' Lowercase to Small Capitals lookup 12 subtable" questiondown.sc
Substitution2: "'c2sc' Capitals to Small Capitals lookup 11 subtable" questiondown.sc
AlternateSubs2: "'aalt' Access All Alternates lookup 1 subtable" questiondown.sc questiondown.case
EndChar

StartChar: Agrave
Encoding: 192 192 130
Width: 689
GlyphClass: 2
Flags: W
LayerCount: 2
Fore
SplineSet
415 709 m 1,0,-1
 252 709 l 1,1,-1
 156 876 l 1,2,-1
 362 876 l 1,3,-1
 415 709 l 1,0,-1
461 0 m 1,4,-1
 431 126 l 1,5,-1
 253 126 l 1,6,-1
 222 0 l 1,7,-1
 -10 0 l 1,8,-1
 204 660 l 1,9,-1
 484 660 l 1,10,-1
 699 0 l 1,11,-1
 461 0 l 1,4,-1
288 271 m 1,12,-1
 397 271 l 1,13,-1
 344 491 l 1,14,-1
 341 491 l 1,15,-1
 315 379 l 1,16,-1
 288 271 l 1,12,-1
EndSplineSet
Substitution2: "Single Substitution lookup 56 subtable" Agrave.swsh
Substitution2: "'swsh' Swash lookup 32 subtable" Agrave.swsh
Substitution2: "'c2sc' Capitals to Small Capitals lookup 11 subtable" agrave.sc
AlternateSubs2: "'aalt' Access All Alternates lookup 1 subtable" agrave.sc Agrave.swsh
EndChar

StartChar: Aacute
Encoding: 193 193 131
Width: 689
GlyphClass: 2
Flags: W
LayerCount: 2
Fore
SplineSet
512 876 m 1,0,-1
 416 709 l 1,1,-1
 253 709 l 1,2,-1
 306 876 l 1,3,-1
 512 876 l 1,0,-1
461 0 m 1,4,-1
 431 126 l 1,5,-1
 253 126 l 1,6,-1
 222 0 l 1,7,-1
 -10 0 l 1,8,-1
 204 660 l 1,9,-1
 484 660 l 1,10,-1
 699 0 l 1,11,-1
 461 0 l 1,4,-1
288 271 m 1,12,-1
 397 271 l 1,13,-1
 344 491 l 1,14,-1
 341 491 l 1,15,-1
 315 379 l 1,16,-1
 288 271 l 1,12,-1
EndSplineSet
Substitution2: "Single Substitution lookup 56 subtable" Aacute.swsh
Substitution2: "'swsh' Swash lookup 32 subtable" Aacute.swsh
Substitution2: "'c2sc' Capitals to Small Capitals lookup 11 subtable" aacute.sc
AlternateSubs2: "'aalt' Access All Alternates lookup 1 subtable" aacute.sc Aacute.swsh
EndChar

StartChar: Acircumflex
Encoding: 194 194 132
Width: 689
GlyphClass: 2
Flags: W
LayerCount: 2
Fore
SplineSet
344 778 m 1,0,-1
 290 709 l 1,1,-1
 129 709 l 1,2,-1
 237 876 l 1,3,-1
 451 876 l 1,4,-1
 559 709 l 1,5,-1
 398 709 l 1,6,-1
 344 778 l 1,0,-1
461 0 m 1,7,-1
 431 126 l 1,8,-1
 253 126 l 1,9,-1
 222 0 l 1,10,-1
 -10 0 l 1,11,-1
 204 660 l 1,12,-1
 484 660 l 1,13,-1
 699 0 l 1,14,-1
 461 0 l 1,7,-1
288 271 m 1,15,-1
 397 271 l 1,16,-1
 344 491 l 1,17,-1
 341 491 l 1,18,-1
 315 379 l 1,19,-1
 288 271 l 1,15,-1
EndSplineSet
Substitution2: "Single Substitution lookup 56 subtable" Acircumflex.swsh
Substitution2: "'swsh' Swash lookup 32 subtable" Acircumflex.swsh
Substitution2: "'c2sc' Capitals to Small Capitals lookup 11 subtable" acircumflex.sc
AlternateSubs2: "'aalt' Access All Alternates lookup 1 subtable" acircumflex.sc Acircumflex.swsh
EndChar

StartChar: Atilde
Encoding: 195 195 133
Width: 689
GlyphClass: 2
Flags: W
LayerCount: 2
Fore
SplineSet
282 753 m 0,0,1
 256 753 256 753 252 705 c 1,2,-1
 134 705 l 1,3,4
 138 881 138 881 280 881 c 0,5,6
 314 881 314 881 337.5 868.5 c 128,-1,7
 361 856 361 856 376.5 843.5 c 128,-1,8
 392 831 392 831 406 831 c 0,9,10
 432 831 432 831 436 879 c 1,11,-1
 554 879 l 1,12,13
 550 703 550 703 408 703 c 0,14,15
 374 703 374 703 350.5 715.5 c 128,-1,16
 327 728 327 728 311.5 740.5 c 128,-1,17
 296 753 296 753 282 753 c 0,0,1
461 0 m 1,18,-1
 431 126 l 1,19,-1
 253 126 l 1,20,-1
 222 0 l 1,21,-1
 -10 0 l 1,22,-1
 204 660 l 1,23,-1
 484 660 l 1,24,-1
 699 0 l 1,25,-1
 461 0 l 1,18,-1
288 271 m 1,26,-1
 397 271 l 1,27,-1
 344 491 l 1,28,-1
 341 491 l 1,29,-1
 315 379 l 1,30,-1
 288 271 l 1,26,-1
EndSplineSet
Substitution2: "Single Substitution lookup 56 subtable" Atilde.swsh
Substitution2: "'swsh' Swash lookup 32 subtable" Atilde.swsh
Substitution2: "'c2sc' Capitals to Small Capitals lookup 11 subtable" atilde.sc
AlternateSubs2: "'aalt' Access All Alternates lookup 1 subtable" atilde.sc Atilde.swsh
EndChar

StartChar: Adieresis
Encoding: 196 196 134
Width: 689
GlyphClass: 2
Flags: W
LayerCount: 2
Fore
SplineSet
224 698 m 0,0,1
 175 698 175 698 148.5 722 c 128,-1,2
 122 746 122 746 122 789 c 128,-1,3
 122 832 122 832 148.5 856 c 128,-1,4
 175 880 175 880 224 880 c 0,5,6
 274 880 274 880 301.5 856.5 c 128,-1,7
 329 833 329 833 329 789 c 128,-1,8
 329 745 329 745 301.5 721.5 c 128,-1,9
 274 698 274 698 224 698 c 0,0,1
461 698 m 0,10,11
 412 698 412 698 385.5 722 c 128,-1,12
 359 746 359 746 359 789 c 128,-1,13
 359 832 359 832 385.5 856 c 128,-1,14
 412 880 412 880 461 880 c 0,15,16
 511 880 511 880 538.5 856.5 c 128,-1,17
 566 833 566 833 566 789 c 128,-1,18
 566 745 566 745 538.5 721.5 c 128,-1,19
 511 698 511 698 461 698 c 0,10,11
461 0 m 1,20,-1
 431 126 l 1,21,-1
 253 126 l 1,22,-1
 222 0 l 1,23,-1
 -10 0 l 1,24,-1
 204 660 l 1,25,-1
 484 660 l 1,26,-1
 699 0 l 1,27,-1
 461 0 l 1,20,-1
288 271 m 1,28,-1
 397 271 l 1,29,-1
 344 491 l 1,30,-1
 341 491 l 1,31,-1
 315 379 l 1,32,-1
 288 271 l 1,28,-1
EndSplineSet
Substitution2: "Single Substitution lookup 56 subtable" Adieresis.swsh
Substitution2: "'titl' Titling lookup 41 subtable" Adieresis.titl
Substitution2: "'swsh' Swash lookup 32 subtable" Adieresis.swsh
Substitution2: "'c2sc' Capitals to Small Capitals lookup 11 subtable" adieresis.sc
AlternateSubs2: "'aalt' Access All Alternates lookup 1 subtable" adieresis.sc Adieresis.swsh Adieresis.titl
EndChar

StartChar: Aring
Encoding: 197 197 135
Width: 689
GlyphClass: 2
Flags: W
LayerCount: 2
Fore
SplineSet
461 0 m 1,0,-1
 431 126 l 1,1,-1
 253 126 l 1,2,-1
 222 0 l 1,3,-1
 -10 0 l 1,4,-1
 210 648 l 1,5,6
 179 679 179 679 179 730 c 0,7,8
 179 793 179 793 223 830 c 128,-1,9
 267 867 267 867 345 867 c 128,-1,10
 423 867 423 867 467 830 c 128,-1,11
 511 793 511 793 511 730 c 0,12,13
 511 679 511 679 478 648 c 1,14,-1
 699 0 l 1,15,-1
 461 0 l 1,0,-1
345 768 m 128,-1,17
 295 768 295 768 295 721 c 128,-1,18
 295 674 295 674 345 674 c 128,-1,19
 395 674 395 674 395 721 c 128,-1,16
 395 768 395 768 345 768 c 128,-1,17
288 271 m 1,20,-1
 397 271 l 1,21,-1
 371 379 l 1,22,-1
 345 491 l 1,23,-1
 340 491 l 1,24,-1
 315 379 l 1,25,-1
 288 271 l 1,20,-1
EndSplineSet
Substitution2: "'c2sc' Capitals to Small Capitals lookup 11 subtable" aring.sc
Substitution2: "'aalt' Access All Alternates lookup 0 subtable" aring.sc
EndChar

StartChar: AE
Encoding: 198 198 136
Width: 904
GlyphClass: 2
Flags: W
LayerCount: 2
Fore
SplineSet
615 161 m 1,0,-1
 888 161 l 1,1,-1
 888 0 l 1,2,-1
 401 0 l 1,3,-1
 401 185 l 1,4,-1
 266 185 l 1,5,-1
 220 0 l 1,6,-1
 -10 0 l 1,7,-1
 204 660 l 1,8,-1
 876 660 l 1,9,-1
 876 499 l 1,10,-1
 615 499 l 1,11,-1
 615 403 l 1,12,-1
 815 403 l 1,13,-1
 815 254 l 1,14,-1
 615 254 l 1,15,-1
 615 161 l 1,0,-1
299 321 m 1,16,-1
 401 321 l 1,17,-1
 401 507 l 1,18,-1
 345 507 l 1,19,-1
 299 321 l 1,16,-1
EndSplineSet
Substitution2: "'c2sc' Capitals to Small Capitals lookup 11 subtable" ae.sc
Substitution2: "'aalt' Access All Alternates lookup 0 subtable" ae.sc
EndChar

StartChar: Ccedilla
Encoding: 199 199 137
Width: 677
GlyphClass: 2
Flags: W
LayerCount: 2
Fore
SplineSet
670 202 m 1,0,1
 630 33 630 33 460 -1 c 1,2,3
 508 -35 508 -35 508 -90 c 0,4,5
 508 -215 508 -215 347 -215 c 0,6,7
 259 -215 259 -215 213 -171 c 1,8,-1
 258 -76 l 1,9,10
 286 -104 286 -104 332 -104 c 0,11,12
 357 -104 357 -104 371.5 -92.5 c 128,-1,13
 386 -81 386 -81 386 -60 c 0,14,15
 386 -25 386 -25 330 -9 c 1,16,17
 188 2 188 2 108.5 90.5 c 128,-1,18
 29 179 29 179 29 330 c 0,19,20
 29 491 29 491 118 580.5 c 128,-1,21
 207 670 207 670 365 670 c 0,22,23
 481 670 481 670 563 620.5 c 128,-1,24
 645 571 645 571 665 470 c 1,25,-1
 465 392 l 1,26,27
 457 453 457 453 436 474 c 128,-1,28
 415 495 415 495 371 495 c 0,29,30
 267 495 267 495 267 330 c 0,31,32
 267 245 267 245 292 205 c 128,-1,33
 317 165 317 165 369 165 c 0,34,35
 416 165 416 165 437 186 c 128,-1,36
 458 207 458 207 464 255 c 1,37,-1
 670 202 l 1,0,1
EndSplineSet
Substitution2: "'c2sc' Capitals to Small Capitals lookup 11 subtable" ccedilla.sc
Substitution2: "'aalt' Access All Alternates lookup 0 subtable" ccedilla.sc
EndChar

StartChar: Egrave
Encoding: 200 200 138
Width: 626
GlyphClass: 2
Flags: W
AnchorPoint: "Anchor-0" 329 0 basechar 0
LayerCount: 2
Fore
SplineSet
414 709 m 1,0,-1
 251 709 l 1,1,-1
 155 876 l 1,2,-1
 361 876 l 1,3,-1
 414 709 l 1,0,-1
283 171 m 1,4,-1
 610 171 l 1,5,-1
 610 0 l 1,6,-1
 50 0 l 1,7,-1
 50 660 l 1,8,-1
 598 660 l 1,9,-1
 598 489 l 1,10,-1
 283 489 l 1,11,-1
 283 407 l 1,12,-1
 537 407 l 1,13,-1
 537 249 l 1,14,-1
 283 249 l 1,15,-1
 283 171 l 1,4,-1
EndSplineSet
Substitution2: "Single Substitution lookup 57 subtable" Egrave.swsh.001
Substitution2: "Single Substitution lookup 56 subtable" Egrave.swsh
AlternateSubs2: "'swsh' Swash lookup 33 subtable" Egrave.swsh Egrave.swsh.001
Substitution2: "'c2sc' Capitals to Small Capitals lookup 11 subtable" egrave.sc
AlternateSubs2: "'aalt' Access All Alternates lookup 1 subtable" egrave.sc Egrave.swsh Egrave.swsh.001
EndChar

StartChar: Eacute
Encoding: 201 201 139
Width: 626
GlyphClass: 2
Flags: W
AnchorPoint: "Anchor-0" 329 0 basechar 0
LayerCount: 2
Fore
SplineSet
487 876 m 1,0,-1
 391 709 l 1,1,-1
 228 709 l 1,2,-1
 281 876 l 1,3,-1
 487 876 l 1,0,-1
283 171 m 1,4,-1
 610 171 l 1,5,-1
 610 0 l 1,6,-1
 50 0 l 1,7,-1
 50 660 l 1,8,-1
 598 660 l 1,9,-1
 598 489 l 1,10,-1
 283 489 l 1,11,-1
 283 407 l 1,12,-1
 537 407 l 1,13,-1
 537 249 l 1,14,-1
 283 249 l 1,15,-1
 283 171 l 1,4,-1
EndSplineSet
Substitution2: "Single Substitution lookup 57 subtable" Eacute.swsh.001
Substitution2: "Single Substitution lookup 56 subtable" Eacute.swsh
AlternateSubs2: "'swsh' Swash lookup 33 subtable" Eacute.swsh Eacute.swsh.001
Substitution2: "'c2sc' Capitals to Small Capitals lookup 11 subtable" eacute.sc
AlternateSubs2: "'aalt' Access All Alternates lookup 1 subtable" eacute.sc Eacute.swsh Eacute.swsh.001
EndChar

StartChar: Ecircumflex
Encoding: 202 202 140
Width: 626
GlyphClass: 2
Flags: W
AnchorPoint: "Anchor-0" 329 0 basechar 0
LayerCount: 2
Fore
SplineSet
313 778 m 1,0,-1
 259 709 l 1,1,-1
 98 709 l 1,2,-1
 206 876 l 1,3,-1
 420 876 l 1,4,-1
 528 709 l 1,5,-1
 367 709 l 1,6,-1
 313 778 l 1,0,-1
283 171 m 1,7,-1
 610 171 l 1,8,-1
 610 0 l 1,9,-1
 50 0 l 1,10,-1
 50 660 l 1,11,-1
 598 660 l 1,12,-1
 598 489 l 1,13,-1
 283 489 l 1,14,-1
 283 407 l 1,15,-1
 537 407 l 1,16,-1
 537 249 l 1,17,-1
 283 249 l 1,18,-1
 283 171 l 1,7,-1
EndSplineSet
Substitution2: "Single Substitution lookup 57 subtable" Ecircumflex.swsh.001
Substitution2: "Single Substitution lookup 56 subtable" Ecircumflex.swsh
AlternateSubs2: "'swsh' Swash lookup 33 subtable" Ecircumflex.swsh Ecircumflex.swsh.001
Substitution2: "'c2sc' Capitals to Small Capitals lookup 11 subtable" ecircumflex.sc
AlternateSubs2: "'aalt' Access All Alternates lookup 1 subtable" ecircumflex.sc Ecircumflex.swsh Ecircumflex.swsh.001
EndChar

StartChar: Edieresis
Encoding: 203 203 141
Width: 626
GlyphClass: 2
Flags: W
AnchorPoint: "Anchor-0" 329 0 basechar 0
LayerCount: 2
Fore
SplineSet
193 698 m 0,0,1
 144 698 144 698 117.5 722 c 128,-1,2
 91 746 91 746 91 789 c 128,-1,3
 91 832 91 832 117.5 856 c 128,-1,4
 144 880 144 880 193 880 c 0,5,6
 243 880 243 880 270.5 856.5 c 128,-1,7
 298 833 298 833 298 789 c 128,-1,8
 298 745 298 745 270.5 721.5 c 128,-1,9
 243 698 243 698 193 698 c 0,0,1
430 698 m 0,10,11
 381 698 381 698 354.5 722 c 128,-1,12
 328 746 328 746 328 789 c 128,-1,13
 328 832 328 832 354.5 856 c 128,-1,14
 381 880 381 880 430 880 c 0,15,16
 480 880 480 880 507.5 856.5 c 128,-1,17
 535 833 535 833 535 789 c 128,-1,18
 535 745 535 745 507.5 721.5 c 128,-1,19
 480 698 480 698 430 698 c 0,10,11
283 171 m 1,20,-1
 610 171 l 1,21,-1
 610 0 l 1,22,-1
 50 0 l 1,23,-1
 50 660 l 1,24,-1
 598 660 l 1,25,-1
 598 489 l 1,26,-1
 283 489 l 1,27,-1
 283 407 l 1,28,-1
 537 407 l 1,29,-1
 537 249 l 1,30,-1
 283 249 l 1,31,-1
 283 171 l 1,20,-1
EndSplineSet
Substitution2: "Single Substitution lookup 57 subtable" Edieresis.swsh.001
Substitution2: "Single Substitution lookup 56 subtable" Edieresis.swsh
AlternateSubs2: "'swsh' Swash lookup 33 subtable" Edieresis.swsh Edieresis.swsh.001
Substitution2: "'c2sc' Capitals to Small Capitals lookup 11 subtable" edieresis.sc
AlternateSubs2: "'aalt' Access All Alternates lookup 1 subtable" edieresis.sc Edieresis.swsh Edieresis.swsh.001
EndChar

StartChar: Igrave
Encoding: 204 204 142
Width: 333
GlyphClass: 2
Flags: W
LayerCount: 2
Fore
SplineSet
184 876 m 1,0,-1
 237 709 l 1,1,-1
 74 709 l 1,2,-1
 -22 876 l 1,3,-1
 184 876 l 1,0,-1
283 660 m 1,4,-1
 283 0 l 1,5,-1
 50 0 l 1,6,-1
 50 660 l 1,7,-1
 283 660 l 1,4,-1
EndSplineSet
Substitution2: "'c2sc' Capitals to Small Capitals lookup 11 subtable" igrave.sc
Substitution2: "'aalt' Access All Alternates lookup 0 subtable" igrave.sc
EndChar

StartChar: Iacute
Encoding: 205 205 143
Width: 333
GlyphClass: 2
Flags: W
LayerCount: 2
Fore
SplineSet
128 876 m 1,0,-1
 334 876 l 1,1,-1
 238 709 l 1,2,-1
 75 709 l 1,3,-1
 128 876 l 1,0,-1
283 660 m 1,4,-1
 283 0 l 1,5,-1
 50 0 l 1,6,-1
 50 660 l 1,7,-1
 283 660 l 1,4,-1
EndSplineSet
Substitution2: "'c2sc' Capitals to Small Capitals lookup 11 subtable" iacute.sc
Substitution2: "'aalt' Access All Alternates lookup 0 subtable" iacute.sc
EndChar

StartChar: Icircumflex
Encoding: 206 206 144
Width: 333
GlyphClass: 2
Flags: W
LayerCount: 2
Fore
SplineSet
381 709 m 1,0,-1
 220 709 l 1,1,-1
 166 778 l 1,2,-1
 112 709 l 1,3,-1
 -49 709 l 1,4,-1
 59 876 l 1,5,-1
 273 876 l 1,6,-1
 381 709 l 1,0,-1
283 660 m 1,7,-1
 283 0 l 1,8,-1
 50 0 l 1,9,-1
 50 660 l 1,10,-1
 283 660 l 1,7,-1
EndSplineSet
Substitution2: "'c2sc' Capitals to Small Capitals lookup 11 subtable" icircumflex.sc
Substitution2: "'aalt' Access All Alternates lookup 0 subtable" icircumflex.sc
EndChar

StartChar: Idieresis
Encoding: 207 207 145
Width: 333
GlyphClass: 2
Flags: W
LayerCount: 2
Fore
SplineSet
52 880 m 0,0,1
 100 880 100 880 127 856 c 128,-1,2
 154 832 154 832 154 789 c 128,-1,3
 154 746 154 746 127 722 c 128,-1,4
 100 698 100 698 52 698 c 0,5,6
 5 698 5 698 -20.5 722 c 128,-1,7
 -46 746 -46 746 -46 789 c 128,-1,8
 -46 832 -46 832 -20.5 856 c 128,-1,9
 5 880 5 880 52 880 c 0,0,1
277 880 m 0,10,11
 325 880 325 880 352 856 c 128,-1,12
 379 832 379 832 379 789 c 128,-1,13
 379 746 379 746 352 722 c 128,-1,14
 325 698 325 698 277 698 c 0,15,16
 230 698 230 698 204.5 722 c 128,-1,17
 179 746 179 746 179 789 c 128,-1,18
 179 832 179 832 204.5 856 c 128,-1,19
 230 880 230 880 277 880 c 0,10,11
283 660 m 1,20,-1
 283 0 l 1,21,-1
 50 0 l 1,22,-1
 50 660 l 1,23,-1
 283 660 l 1,20,-1
EndSplineSet
Substitution2: "'c2sc' Capitals to Small Capitals lookup 11 subtable" idieresis.sc
Substitution2: "'aalt' Access All Alternates lookup 0 subtable" idieresis.sc
EndChar

StartChar: Eth
Encoding: 208 208 146
Width: 746
GlyphClass: 2
Flags: W
LayerCount: 2
Fore
SplineSet
404 660 m 2,0,1
 558 660 558 660 637.5 574.5 c 128,-1,2
 717 489 717 489 717 330 c 128,-1,3
 717 171 717 171 637.5 85.5 c 128,-1,4
 558 0 558 0 404 0 c 2,5,-1
 80 0 l 1,6,-1
 80 279 l 1,7,-1
 6 279 l 1,8,-1
 6 375 l 1,9,-1
 80 375 l 1,10,-1
 80 660 l 1,11,-1
 404 660 l 2,0,1
371 166 m 2,12,13
 433 166 433 166 456 204 c 128,-1,14
 479 242 479 242 479 330 c 128,-1,15
 479 418 479 418 456 456 c 128,-1,16
 433 494 433 494 371 494 c 2,17,-1
 313 494 l 1,18,-1
 313 375 l 1,19,-1
 399 375 l 1,20,-1
 399 279 l 1,21,-1
 313 279 l 1,22,-1
 313 166 l 1,23,-1
 371 166 l 2,12,13
EndSplineSet
Substitution2: "'c2sc' Capitals to Small Capitals lookup 11 subtable" eth.sc
Substitution2: "'aalt' Access All Alternates lookup 0 subtable" eth.sc
EndChar

StartChar: Ntilde
Encoding: 209 209 147
Width: 746
GlyphClass: 2
Flags: W
AnchorPoint: "Anchor-0" 374 0 basechar 0
LayerCount: 2
Fore
SplineSet
583 879 m 1,0,1
 579 703 579 703 437 703 c 0,2,3
 403 703 403 703 379.5 715.5 c 128,-1,4
 356 728 356 728 340.5 740.5 c 128,-1,5
 325 753 325 753 311 753 c 0,6,7
 285 753 285 753 281 705 c 1,8,-1
 163 705 l 1,9,10
 167 881 167 881 309 881 c 0,11,12
 343 881 343 881 366.5 868.5 c 128,-1,13
 390 856 390 856 405.5 843.5 c 128,-1,14
 421 831 421 831 435 831 c 0,15,16
 461 831 461 831 465 879 c 1,17,-1
 583 879 l 1,0,1
696 660 m 1,18,-1
 696 0 l 1,19,-1
 444 0 l 1,20,-1
 286 300 l 1,21,-1
 250 381 l 1,22,-1
 248 381 l 1,23,-1
 252 245 l 1,24,-1
 252 0 l 1,25,-1
 50 0 l 1,26,-1
 50 660 l 1,27,-1
 302 660 l 1,28,-1
 460 359 l 1,29,-1
 496 279 l 1,30,-1
 498 279 l 1,31,-1
 494 415 l 1,32,-1
 494 660 l 1,33,-1
 696 660 l 1,18,-1
EndSplineSet
Substitution2: "Single Substitution lookup 57 subtable" Ntilde.swsh
Substitution2: "'swsh' Swash lookup 36 subtable" Ntilde.swsh
Substitution2: "'c2sc' Capitals to Small Capitals lookup 11 subtable" ntilde.sc
AlternateSubs2: "'aalt' Access All Alternates lookup 1 subtable" ntilde.sc Ntilde.swsh
EndChar

StartChar: Ograve
Encoding: 210 210 148
Width: 729
GlyphClass: 2
Flags: W
LayerCount: 2
Fore
SplineSet
383 876 m 1,0,-1
 436 709 l 1,1,-1
 273 709 l 1,2,-1
 177 876 l 1,3,-1
 383 876 l 1,0,-1
365 670 m 128,-1,5
 523 670 523 670 611.5 580.5 c 128,-1,6
 700 491 700 491 700 330 c 128,-1,7
 700 169 700 169 611.5 79.5 c 128,-1,8
 523 -10 523 -10 365 -10 c 128,-1,9
 207 -10 207 -10 118 79.5 c 128,-1,10
 29 169 29 169 29 330 c 128,-1,11
 29 491 29 491 118 580.5 c 128,-1,4
 207 670 207 670 365 670 c 128,-1,5
365 495 m 128,-1,13
 314 495 314 495 290.5 455.5 c 128,-1,14
 267 416 267 416 267 330 c 128,-1,15
 267 244 267 244 290.5 204.5 c 128,-1,16
 314 165 314 165 365 165 c 128,-1,17
 416 165 416 165 439 204.5 c 128,-1,18
 462 244 462 244 462 330 c 128,-1,19
 462 416 462 416 439 455.5 c 128,-1,12
 416 495 416 495 365 495 c 128,-1,13
EndSplineSet
Substitution2: "'c2sc' Capitals to Small Capitals lookup 11 subtable" ograve.sc
Substitution2: "'aalt' Access All Alternates lookup 0 subtable" ograve.sc
EndChar

StartChar: Oacute
Encoding: 211 211 149
Width: 729
GlyphClass: 2
Flags: W
LayerCount: 2
Fore
SplineSet
327 876 m 1,0,-1
 533 876 l 1,1,-1
 437 709 l 1,2,-1
 274 709 l 1,3,-1
 327 876 l 1,0,-1
365 670 m 128,-1,5
 523 670 523 670 611.5 580.5 c 128,-1,6
 700 491 700 491 700 330 c 128,-1,7
 700 169 700 169 611.5 79.5 c 128,-1,8
 523 -10 523 -10 365 -10 c 128,-1,9
 207 -10 207 -10 118 79.5 c 128,-1,10
 29 169 29 169 29 330 c 128,-1,11
 29 491 29 491 118 580.5 c 128,-1,4
 207 670 207 670 365 670 c 128,-1,5
365 495 m 128,-1,13
 314 495 314 495 290.5 455.5 c 128,-1,14
 267 416 267 416 267 330 c 128,-1,15
 267 244 267 244 290.5 204.5 c 128,-1,16
 314 165 314 165 365 165 c 128,-1,17
 416 165 416 165 439 204.5 c 128,-1,18
 462 244 462 244 462 330 c 128,-1,19
 462 416 462 416 439 455.5 c 128,-1,12
 416 495 416 495 365 495 c 128,-1,13
EndSplineSet
Substitution2: "'c2sc' Capitals to Small Capitals lookup 11 subtable" oacute.sc
Substitution2: "'aalt' Access All Alternates lookup 0 subtable" oacute.sc
EndChar

StartChar: Ocircumflex
Encoding: 212 212 150
Width: 729
GlyphClass: 2
Flags: W
LayerCount: 2
Fore
SplineSet
580 709 m 1,0,-1
 419 709 l 1,1,-1
 365 778 l 1,2,-1
 311 709 l 1,3,-1
 150 709 l 1,4,-1
 258 876 l 1,5,-1
 472 876 l 1,6,-1
 580 709 l 1,0,-1
365 670 m 128,-1,8
 523 670 523 670 611.5 580.5 c 128,-1,9
 700 491 700 491 700 330 c 128,-1,10
 700 169 700 169 611.5 79.5 c 128,-1,11
 523 -10 523 -10 365 -10 c 128,-1,12
 207 -10 207 -10 118 79.5 c 128,-1,13
 29 169 29 169 29 330 c 128,-1,14
 29 491 29 491 118 580.5 c 128,-1,7
 207 670 207 670 365 670 c 128,-1,8
365 495 m 128,-1,16
 314 495 314 495 290.5 455.5 c 128,-1,17
 267 416 267 416 267 330 c 128,-1,18
 267 244 267 244 290.5 204.5 c 128,-1,19
 314 165 314 165 365 165 c 128,-1,20
 416 165 416 165 439 204.5 c 128,-1,21
 462 244 462 244 462 330 c 128,-1,22
 462 416 462 416 439 455.5 c 128,-1,15
 416 495 416 495 365 495 c 128,-1,16
EndSplineSet
Substitution2: "'c2sc' Capitals to Small Capitals lookup 11 subtable" ocircumflex.sc
Substitution2: "'aalt' Access All Alternates lookup 0 subtable" ocircumflex.sc
EndChar

StartChar: Otilde
Encoding: 213 213 151
Width: 729
GlyphClass: 2
Flags: W
LayerCount: 2
Fore
SplineSet
575 879 m 1,0,1
 571 703 571 703 429 703 c 0,2,3
 395 703 395 703 371.5 715.5 c 128,-1,4
 348 728 348 728 332.5 740.5 c 128,-1,5
 317 753 317 753 303 753 c 0,6,7
 277 753 277 753 273 705 c 1,8,-1
 155 705 l 1,9,10
 159 881 159 881 301 881 c 0,11,12
 335 881 335 881 358.5 868.5 c 128,-1,13
 382 856 382 856 397.5 843.5 c 128,-1,14
 413 831 413 831 427 831 c 0,15,16
 453 831 453 831 457 879 c 1,17,-1
 575 879 l 1,0,1
365 670 m 128,-1,19
 523 670 523 670 611.5 580.5 c 128,-1,20
 700 491 700 491 700 330 c 128,-1,21
 700 169 700 169 611.5 79.5 c 128,-1,22
 523 -10 523 -10 365 -10 c 128,-1,23
 207 -10 207 -10 118 79.5 c 128,-1,24
 29 169 29 169 29 330 c 128,-1,25
 29 491 29 491 118 580.5 c 128,-1,18
 207 670 207 670 365 670 c 128,-1,19
365 495 m 128,-1,27
 314 495 314 495 290.5 455.5 c 128,-1,28
 267 416 267 416 267 330 c 128,-1,29
 267 244 267 244 290.5 204.5 c 128,-1,30
 314 165 314 165 365 165 c 128,-1,31
 416 165 416 165 439 204.5 c 128,-1,32
 462 244 462 244 462 330 c 128,-1,33
 462 416 462 416 439 455.5 c 128,-1,26
 416 495 416 495 365 495 c 128,-1,27
EndSplineSet
Substitution2: "'c2sc' Capitals to Small Capitals lookup 11 subtable" otilde.sc
Substitution2: "'aalt' Access All Alternates lookup 0 subtable" otilde.sc
EndChar

StartChar: Odieresis
Encoding: 214 214 152
Width: 729
GlyphClass: 2
Flags: W
LayerCount: 2
Fore
SplineSet
245 880 m 0,0,1
 295 880 295 880 322.5 856.5 c 128,-1,2
 350 833 350 833 350 789 c 128,-1,3
 350 745 350 745 322.5 721.5 c 128,-1,4
 295 698 295 698 245 698 c 0,5,6
 196 698 196 698 169.5 722 c 128,-1,7
 143 746 143 746 143 789 c 128,-1,8
 143 832 143 832 169.5 856 c 128,-1,9
 196 880 196 880 245 880 c 0,0,1
482 880 m 0,10,11
 532 880 532 880 559.5 856.5 c 128,-1,12
 587 833 587 833 587 789 c 128,-1,13
 587 745 587 745 559.5 721.5 c 128,-1,14
 532 698 532 698 482 698 c 0,15,16
 433 698 433 698 406.5 722 c 128,-1,17
 380 746 380 746 380 789 c 128,-1,18
 380 832 380 832 406.5 856 c 128,-1,19
 433 880 433 880 482 880 c 0,10,11
365 670 m 128,-1,21
 523 670 523 670 611.5 580.5 c 128,-1,22
 700 491 700 491 700 330 c 128,-1,23
 700 169 700 169 611.5 79.5 c 128,-1,24
 523 -10 523 -10 365 -10 c 128,-1,25
 207 -10 207 -10 118 79.5 c 128,-1,26
 29 169 29 169 29 330 c 128,-1,27
 29 491 29 491 118 580.5 c 128,-1,20
 207 670 207 670 365 670 c 128,-1,21
365 495 m 128,-1,29
 314 495 314 495 290.5 455.5 c 128,-1,30
 267 416 267 416 267 330 c 128,-1,31
 267 244 267 244 290.5 204.5 c 128,-1,32
 314 165 314 165 365 165 c 128,-1,33
 416 165 416 165 439 204.5 c 128,-1,34
 462 244 462 244 462 330 c 128,-1,35
 462 416 462 416 439 455.5 c 128,-1,28
 416 495 416 495 365 495 c 128,-1,29
EndSplineSet
Substitution2: "'titl' Titling lookup 41 subtable" Odieresis.titl
Substitution2: "'c2sc' Capitals to Small Capitals lookup 11 subtable" odieresis.sc
AlternateSubs2: "'aalt' Access All Alternates lookup 1 subtable" odieresis.sc Odieresis.titl
EndChar

StartChar: multiply
Encoding: 215 215 153
Width: 604
GlyphClass: 2
Flags: W
LayerCount: 2
Fore
SplineSet
568 480 m 1,0,-1
 420 332 l 1,1,-1
 568 184 l 1,2,-1
 450 66 l 1,3,-1
 302 214 l 1,4,-1
 154 66 l 1,5,-1
 36 184 l 1,6,-1
 184 332 l 1,7,-1
 36 480 l 1,8,-1
 154 598 l 1,9,-1
 302 450 l 1,10,-1
 450 598 l 1,11,-1
 568 480 l 1,0,-1
EndSplineSet
EndChar

StartChar: Oslash
Encoding: 216 216 154
Width: 729
GlyphClass: 2
Flags: W
LayerCount: 2
Fore
SplineSet
608 584 m 1,0,1
 700 495 700 495 700 330 c 0,2,3
 700 169 700 169 611.5 79.5 c 128,-1,4
 523 -10 523 -10 365 -10 c 0,5,6
 258 -10 258 -10 182 32 c 1,7,-1
 144 -21 l 1,8,-1
 48 -21 l 1,9,-1
 120 77 l 1,10,11
 29 166 29 166 29 330 c 0,12,13
 29 491 29 491 118 580.5 c 128,-1,14
 207 670 207 670 365 670 c 0,15,16
 471 670 471 670 547 629 c 1,17,-1
 584 680 l 1,18,-1
 679 680 l 1,19,-1
 608 584 l 1,0,1
365 495 m 0,20,21
 314 495 314 495 290.5 455.5 c 128,-1,22
 267 416 267 416 267 330 c 0,23,24
 267 288 267 288 271 263 c 1,25,-1
 423 476 l 1,26,27
 401 495 401 495 365 495 c 0,20,21
365 165 m 0,28,29
 416 165 416 165 439 204.5 c 128,-1,30
 462 244 462 244 462 330 c 0,31,32
 462 364 462 364 459 389 c 1,33,-1
 310 181 l 1,34,35
 332 165 332 165 365 165 c 0,28,29
EndSplineSet
Substitution2: "'c2sc' Capitals to Small Capitals lookup 11 subtable" oslash.sc
Substitution2: "'aalt' Access All Alternates lookup 0 subtable" oslash.sc
EndChar

StartChar: Ugrave
Encoding: 217 217 155
Width: 708
GlyphClass: 2
Flags: W
LayerCount: 2
Fore
SplineSet
372 876 m 1,0,-1
 425 709 l 1,1,-1
 262 709 l 1,2,-1
 166 876 l 1,3,-1
 372 876 l 1,0,-1
673 660 m 1,4,-1
 673 284 l 2,5,6
 673 -10 673 -10 354 -10 c 128,-1,7
 35 -10 35 -10 35 284 c 2,8,-1
 35 660 l 1,9,-1
 269 660 l 1,10,-1
 269 266 l 2,11,12
 269 165 269 165 354 165 c 0,13,14
 440 165 440 165 440 266 c 2,15,-1
 440 660 l 1,16,-1
 673 660 l 1,4,-1
EndSplineSet
Substitution2: "'c2sc' Capitals to Small Capitals lookup 11 subtable" ugrave.sc
Substitution2: "'aalt' Access All Alternates lookup 0 subtable" ugrave.sc
EndChar

StartChar: Uacute
Encoding: 218 218 156
Width: 708
GlyphClass: 2
Flags: W
LayerCount: 2
Fore
SplineSet
316 876 m 1,0,-1
 522 876 l 1,1,-1
 426 709 l 1,2,-1
 263 709 l 1,3,-1
 316 876 l 1,0,-1
673 660 m 1,4,-1
 673 284 l 2,5,6
 673 -10 673 -10 354 -10 c 128,-1,7
 35 -10 35 -10 35 284 c 2,8,-1
 35 660 l 1,9,-1
 269 660 l 1,10,-1
 269 266 l 2,11,12
 269 165 269 165 354 165 c 0,13,14
 440 165 440 165 440 266 c 2,15,-1
 440 660 l 1,16,-1
 673 660 l 1,4,-1
EndSplineSet
Substitution2: "'c2sc' Capitals to Small Capitals lookup 11 subtable" uacute.sc
Substitution2: "'aalt' Access All Alternates lookup 0 subtable" uacute.sc
EndChar

StartChar: Ucircumflex
Encoding: 219 219 157
Width: 708
GlyphClass: 2
Flags: W
LayerCount: 2
Fore
SplineSet
569 709 m 1,0,-1
 408 709 l 1,1,-1
 354 778 l 1,2,-1
 300 709 l 1,3,-1
 139 709 l 1,4,-1
 247 876 l 1,5,-1
 461 876 l 1,6,-1
 569 709 l 1,0,-1
673 660 m 1,7,-1
 673 284 l 2,8,9
 673 -10 673 -10 354 -10 c 128,-1,10
 35 -10 35 -10 35 284 c 2,11,-1
 35 660 l 1,12,-1
 269 660 l 1,13,-1
 269 266 l 2,14,15
 269 165 269 165 354 165 c 0,16,17
 440 165 440 165 440 266 c 2,18,-1
 440 660 l 1,19,-1
 673 660 l 1,7,-1
EndSplineSet
Substitution2: "'c2sc' Capitals to Small Capitals lookup 11 subtable" ucircumflex.sc
Substitution2: "'aalt' Access All Alternates lookup 0 subtable" ucircumflex.sc
EndChar

StartChar: Udieresis
Encoding: 220 220 158
Width: 708
GlyphClass: 2
Flags: W
LayerCount: 2
Fore
SplineSet
234 880 m 0,0,1
 284 880 284 880 311.5 856.5 c 128,-1,2
 339 833 339 833 339 789 c 128,-1,3
 339 745 339 745 311.5 721.5 c 128,-1,4
 284 698 284 698 234 698 c 0,5,6
 185 698 185 698 158.5 722 c 128,-1,7
 132 746 132 746 132 789 c 128,-1,8
 132 832 132 832 158.5 856 c 128,-1,9
 185 880 185 880 234 880 c 0,0,1
471 880 m 0,10,11
 521 880 521 880 548.5 856.5 c 128,-1,12
 576 833 576 833 576 789 c 128,-1,13
 576 745 576 745 548.5 721.5 c 128,-1,14
 521 698 521 698 471 698 c 0,15,16
 422 698 422 698 395.5 722 c 128,-1,17
 369 746 369 746 369 789 c 128,-1,18
 369 832 369 832 395.5 856 c 128,-1,19
 422 880 422 880 471 880 c 0,10,11
673 660 m 1,20,-1
 673 284 l 2,21,22
 673 -10 673 -10 354 -10 c 128,-1,23
 35 -10 35 -10 35 284 c 2,24,-1
 35 660 l 1,25,-1
 269 660 l 1,26,-1
 269 266 l 2,27,28
 269 165 269 165 354 165 c 0,29,30
 440 165 440 165 440 266 c 2,31,-1
 440 660 l 1,32,-1
 673 660 l 1,20,-1
EndSplineSet
Substitution2: "'titl' Titling lookup 41 subtable" Udieresis.titl
Substitution2: "'c2sc' Capitals to Small Capitals lookup 11 subtable" udieresis.sc
AlternateSubs2: "'aalt' Access All Alternates lookup 1 subtable" udieresis.sc Udieresis.titl
EndChar

StartChar: Yacute
Encoding: 221 221 159
Width: 713
GlyphClass: 2
Flags: W
LayerCount: 2
Fore
SplineSet
318 876 m 1,0,-1
 524 876 l 1,1,-1
 428 709 l 1,2,-1
 265 709 l 1,3,-1
 318 876 l 1,0,-1
704 660 m 1,4,-1
 473 229 l 1,5,-1
 473 0 l 1,6,-1
 240 0 l 1,7,-1
 240 229 l 1,8,-1
 9 660 l 1,9,-1
 241 660 l 1,10,-1
 311 509 l 1,11,-1
 358 389 l 1,12,-1
 405 509 l 1,13,-1
 475 660 l 1,14,-1
 704 660 l 1,4,-1
EndSplineSet
Substitution2: "'c2sc' Capitals to Small Capitals lookup 11 subtable" yacute.sc
Substitution2: "'aalt' Access All Alternates lookup 0 subtable" yacute.sc
EndChar

StartChar: Thorn
Encoding: 222 222 160
Width: 692
GlyphClass: 2
Flags: W
LayerCount: 2
Fore
SplineSet
392 571 m 2,0,1
 522 571 522 571 593 511.5 c 128,-1,2
 664 452 664 452 663 337 c 0,3,4
 664 222 664 222 593 162.5 c 128,-1,5
 522 103 522 103 392 103 c 2,6,-1
 283 103 l 1,7,-1
 283 0 l 1,8,-1
 50 0 l 1,9,-1
 50 660 l 1,10,-1
 283 660 l 1,11,-1
 283 571 l 1,12,-1
 392 571 l 2,0,1
354 267 m 2,13,14
 391 267 391 267 411 284 c 128,-1,15
 431 301 431 301 430 337 c 0,16,17
 431 372 431 372 411 389 c 128,-1,18
 391 406 391 406 354 406 c 2,19,-1
 283 406 l 1,20,-1
 283 267 l 1,21,-1
 354 267 l 2,13,14
EndSplineSet
Substitution2: "'c2sc' Capitals to Small Capitals lookup 11 subtable" thorn.sc
Substitution2: "'aalt' Access All Alternates lookup 0 subtable" thorn.sc
EndChar

StartChar: germandbls
Encoding: 223 223 161
Width: 666
GlyphClass: 2
Flags: W
LayerCount: 2
Fore
SplineSet
473 345 m 1,0,1
 551 345 551 345 600 299.5 c 128,-1,2
 649 254 649 254 649 175 c 128,-1,3
 649 96 649 96 593.5 43 c 128,-1,4
 538 -10 538 -10 429 -10 c 0,5,6
 342 -10 342 -10 293 22 c 1,7,-1
 323 167 l 1,8,9
 344 145 344 145 376 145 c 0,10,11
 400 145 400 145 414 161.5 c 128,-1,12
 428 178 428 178 428 208 c 0,13,14
 428 265 428 265 365 265 c 2,15,-1
 310 265 l 1,16,-1
 338 417 l 1,17,-1
 364 417 l 2,18,19
 417 419 417 419 417 486 c 0,20,21
 417 516 417 516 399.5 533 c 128,-1,22
 382 550 382 550 355 550 c 0,23,24
 308 550 308 550 288.5 523 c 128,-1,25
 269 496 269 496 269 431 c 2,26,-1
 269 0 l 1,27,-1
 39 0 l 1,28,-1
 39 437 l 2,29,30
 39 570 39 570 114.5 637.5 c 128,-1,31
 190 705 190 705 356 705 c 0,32,33
 490 705 490 705 564 652 c 128,-1,34
 638 599 638 599 638 507 c 0,35,36
 638 440 638 440 592.5 393.5 c 128,-1,37
 547 347 547 347 473 347 c 1,38,-1
 473 345 l 1,0,1
EndSplineSet
Substitution2: "Single Substitution lookup 57 subtable" germandbls.calt
Substitution2: "'smcp' Lowercase to Small Capitals lookup 12 subtable" germandbls.sc
AlternateSubs2: "'aalt' Access All Alternates lookup 1 subtable" germandbls.sc germandbls.calt
EndChar

StartChar: agrave
Encoding: 224 224 162
Width: 588
GlyphClass: 2
Flags: W
LayerCount: 2
Fore
SplineSet
360 553 m 1,0,-1
 198 553 l 1,1,-1
 95 730 l 1,2,-1
 300 730 l 1,3,-1
 360 553 l 1,0,-1
572 123 m 0,4,5
 589 123 589 123 597 127 c 1,6,-1
 579 10 l 1,7,8
 545 -10 545 -10 505 -10 c 0,9,10
 377 -10 377 -10 348 74 c 1,11,12
 298 -10 298 -10 170 -10 c 0,13,14
 16 -10 16 -10 16 109 c 0,15,16
 16 172 16 172 61 209.5 c 128,-1,17
 106 247 106 247 211 270 c 2,18,-1
 310 292 l 1,19,-1
 310 312 l 2,20,21
 310 361 310 361 265 361 c 0,22,23
 214 361 214 361 212 300 c 1,24,-1
 22 329 l 1,25,26
 30 415 30 415 94 462.5 c 128,-1,27
 158 510 158 510 278 510 c 0,28,29
 411 510 411 510 474.5 459 c 128,-1,30
 538 408 538 408 538 304 c 2,31,-1
 538 164 l 2,32,33
 538 123 538 123 572 123 c 0,4,5
267 115 m 0,34,35
 286 115 286 115 298 127.5 c 128,-1,36
 310 140 310 140 310 164 c 2,37,-1
 310 212 l 1,38,-1
 277 202 l 2,39,40
 232 189 232 189 232 150 c 0,41,42
 232 133 232 133 242 124 c 128,-1,43
 252 115 252 115 267 115 c 0,34,35
EndSplineSet
Substitution2: "'smcp' Lowercase to Small Capitals lookup 12 subtable" agrave.sc
Substitution2: "'aalt' Access All Alternates lookup 0 subtable" agrave.sc
EndChar

StartChar: aacute
Encoding: 225 225 163
Width: 588
GlyphClass: 2
Flags: W
LayerCount: 2
Fore
SplineSet
447 730 m 1,0,-1
 344 553 l 1,1,-1
 182 553 l 1,2,-1
 242 730 l 1,3,-1
 447 730 l 1,0,-1
572 123 m 0,4,5
 589 123 589 123 597 127 c 1,6,-1
 579 10 l 1,7,8
 545 -10 545 -10 505 -10 c 0,9,10
 377 -10 377 -10 348 74 c 1,11,12
 298 -10 298 -10 170 -10 c 0,13,14
 16 -10 16 -10 16 109 c 0,15,16
 16 172 16 172 61 209.5 c 128,-1,17
 106 247 106 247 211 270 c 2,18,-1
 310 292 l 1,19,-1
 310 312 l 2,20,21
 310 361 310 361 265 361 c 0,22,23
 214 361 214 361 212 300 c 1,24,-1
 22 329 l 1,25,26
 30 415 30 415 94 462.5 c 128,-1,27
 158 510 158 510 278 510 c 0,28,29
 411 510 411 510 474.5 459 c 128,-1,30
 538 408 538 408 538 304 c 2,31,-1
 538 164 l 2,32,33
 538 123 538 123 572 123 c 0,4,5
267 115 m 0,34,35
 286 115 286 115 298 127.5 c 128,-1,36
 310 140 310 140 310 164 c 2,37,-1
 310 212 l 1,38,-1
 277 202 l 2,39,40
 232 189 232 189 232 150 c 0,41,42
 232 133 232 133 242 124 c 128,-1,43
 252 115 252 115 267 115 c 0,34,35
EndSplineSet
Substitution2: "'smcp' Lowercase to Small Capitals lookup 12 subtable" aacute.sc
Substitution2: "'aalt' Access All Alternates lookup 0 subtable" aacute.sc
EndChar

StartChar: acircumflex
Encoding: 226 226 164
Width: 588
GlyphClass: 2
Flags: W
LayerCount: 2
Fore
SplineSet
277 618 m 1,0,-1
 220 547 l 1,1,-1
 64 547 l 1,2,-1
 170 724 l 1,3,-1
 384 724 l 1,4,-1
 490 547 l 1,5,-1
 334 547 l 1,6,-1
 277 618 l 1,0,-1
572 123 m 0,7,8
 589 123 589 123 597 127 c 1,9,-1
 579 10 l 1,10,11
 545 -10 545 -10 505 -10 c 0,12,13
 377 -10 377 -10 348 74 c 1,14,15
 298 -10 298 -10 170 -10 c 0,16,17
 16 -10 16 -10 16 109 c 0,18,19
 16 172 16 172 61 209.5 c 128,-1,20
 106 247 106 247 211 270 c 2,21,-1
 310 292 l 1,22,-1
 310 312 l 2,23,24
 310 361 310 361 265 361 c 0,25,26
 214 361 214 361 212 300 c 1,27,-1
 22 329 l 1,28,29
 30 415 30 415 94 462.5 c 128,-1,30
 158 510 158 510 278 510 c 0,31,32
 411 510 411 510 474.5 459 c 128,-1,33
 538 408 538 408 538 304 c 2,34,-1
 538 164 l 2,35,36
 538 123 538 123 572 123 c 0,7,8
267 115 m 0,37,38
 286 115 286 115 298 127.5 c 128,-1,39
 310 140 310 140 310 164 c 2,40,-1
 310 212 l 1,41,-1
 277 202 l 2,42,43
 232 189 232 189 232 150 c 0,44,45
 232 133 232 133 242 124 c 128,-1,46
 252 115 252 115 267 115 c 0,37,38
EndSplineSet
Substitution2: "'smcp' Lowercase to Small Capitals lookup 12 subtable" acircumflex.sc
Substitution2: "'aalt' Access All Alternates lookup 0 subtable" acircumflex.sc
EndChar

StartChar: atilde
Encoding: 227 227 165
Width: 588
GlyphClass: 2
Flags: W
LayerCount: 2
Fore
SplineSet
215 593 m 0,0,1
 189 593 189 593 185 545 c 1,2,-1
 67 545 l 1,3,4
 71 721 71 721 213 721 c 0,5,6
 247 721 247 721 270.5 708.5 c 128,-1,7
 294 696 294 696 309.5 683.5 c 128,-1,8
 325 671 325 671 339 671 c 0,9,10
 365 671 365 671 369 719 c 1,11,-1
 487 719 l 1,12,13
 483 543 483 543 341 543 c 0,14,15
 307 543 307 543 283.5 555.5 c 128,-1,16
 260 568 260 568 244.5 580.5 c 128,-1,17
 229 593 229 593 215 593 c 0,0,1
572 123 m 0,18,19
 589 123 589 123 597 127 c 1,20,-1
 579 10 l 1,21,22
 545 -10 545 -10 505 -10 c 0,23,24
 377 -10 377 -10 348 74 c 1,25,26
 298 -10 298 -10 170 -10 c 0,27,28
 16 -10 16 -10 16 109 c 0,29,30
 16 172 16 172 61 209.5 c 128,-1,31
 106 247 106 247 211 270 c 2,32,-1
 310 292 l 1,33,-1
 310 312 l 2,34,35
 310 361 310 361 265 361 c 0,36,37
 214 361 214 361 212 300 c 1,38,-1
 22 329 l 1,39,40
 30 415 30 415 94 462.5 c 128,-1,41
 158 510 158 510 278 510 c 0,42,43
 411 510 411 510 474.5 459 c 128,-1,44
 538 408 538 408 538 304 c 2,45,-1
 538 164 l 2,46,47
 538 123 538 123 572 123 c 0,18,19
267 115 m 0,48,49
 286 115 286 115 298 127.5 c 128,-1,50
 310 140 310 140 310 164 c 2,51,-1
 310 212 l 1,52,-1
 277 202 l 2,53,54
 232 189 232 189 232 150 c 0,55,56
 232 133 232 133 242 124 c 128,-1,57
 252 115 252 115 267 115 c 0,48,49
EndSplineSet
Substitution2: "'smcp' Lowercase to Small Capitals lookup 12 subtable" atilde.sc
Substitution2: "'aalt' Access All Alternates lookup 0 subtable" atilde.sc
EndChar

StartChar: adieresis
Encoding: 228 228 166
Width: 588
GlyphClass: 2
Flags: W
LayerCount: 2
Fore
SplineSet
157 538 m 0,0,1
 108 538 108 538 81.5 562 c 128,-1,2
 55 586 55 586 55 629 c 128,-1,3
 55 672 55 672 81.5 696 c 128,-1,4
 108 720 108 720 157 720 c 0,5,6
 207 720 207 720 234.5 696.5 c 128,-1,7
 262 673 262 673 262 629 c 128,-1,8
 262 585 262 585 234.5 561.5 c 128,-1,9
 207 538 207 538 157 538 c 0,0,1
394 538 m 0,10,11
 345 538 345 538 318.5 562 c 128,-1,12
 292 586 292 586 292 629 c 128,-1,13
 292 672 292 672 318.5 696 c 128,-1,14
 345 720 345 720 394 720 c 0,15,16
 444 720 444 720 471.5 696.5 c 128,-1,17
 499 673 499 673 499 629 c 128,-1,18
 499 585 499 585 471.5 561.5 c 128,-1,19
 444 538 444 538 394 538 c 0,10,11
572 123 m 0,20,21
 589 123 589 123 597 127 c 1,22,-1
 579 10 l 1,23,24
 545 -10 545 -10 505 -10 c 0,25,26
 377 -10 377 -10 348 74 c 1,27,28
 298 -10 298 -10 170 -10 c 0,29,30
 16 -10 16 -10 16 109 c 0,31,32
 16 172 16 172 61 209.5 c 128,-1,33
 106 247 106 247 211 270 c 2,34,-1
 310 292 l 1,35,-1
 310 312 l 2,36,37
 310 361 310 361 265 361 c 0,38,39
 214 361 214 361 212 300 c 1,40,-1
 22 329 l 1,41,42
 30 415 30 415 94 462.5 c 128,-1,43
 158 510 158 510 278 510 c 0,44,45
 411 510 411 510 474.5 459 c 128,-1,46
 538 408 538 408 538 304 c 2,47,-1
 538 164 l 2,48,49
 538 123 538 123 572 123 c 0,20,21
267 115 m 0,50,51
 286 115 286 115 298 127.5 c 128,-1,52
 310 140 310 140 310 164 c 2,53,-1
 310 212 l 1,54,-1
 277 202 l 2,55,56
 232 189 232 189 232 150 c 0,57,58
 232 133 232 133 242 124 c 128,-1,59
 252 115 252 115 267 115 c 0,50,51
EndSplineSet
Substitution2: "'smcp' Lowercase to Small Capitals lookup 12 subtable" adieresis.sc
Substitution2: "'aalt' Access All Alternates lookup 0 subtable" adieresis.sc
EndChar

StartChar: aring
Encoding: 229 229 167
Width: 588
GlyphClass: 2
Flags: W
LayerCount: 2
Fore
SplineSet
280 535 m 128,-1,1
 213 535 213 535 176 567 c 128,-1,2
 139 599 139 599 139 658 c 128,-1,3
 139 717 139 717 176 749 c 128,-1,4
 213 781 213 781 280 781 c 128,-1,5
 347 781 347 781 384 749 c 128,-1,6
 421 717 421 717 421 658 c 128,-1,7
 421 599 421 599 384 567 c 128,-1,0
 347 535 347 535 280 535 c 128,-1,1
280 697 m 128,-1,9
 240 697 240 697 240 658 c 128,-1,10
 240 619 240 619 280 619 c 128,-1,11
 320 619 320 619 320 658 c 128,-1,8
 320 697 320 697 280 697 c 128,-1,9
572 123 m 0,12,13
 589 123 589 123 597 127 c 1,14,-1
 579 10 l 1,15,16
 545 -10 545 -10 505 -10 c 0,17,18
 377 -10 377 -10 348 74 c 1,19,20
 298 -10 298 -10 170 -10 c 0,21,22
 16 -10 16 -10 16 109 c 0,23,24
 16 172 16 172 61 209.5 c 128,-1,25
 106 247 106 247 211 270 c 2,26,-1
 310 292 l 1,27,-1
 310 312 l 2,28,29
 310 361 310 361 265 361 c 0,30,31
 214 361 214 361 212 300 c 1,32,-1
 22 329 l 1,33,34
 30 415 30 415 94 462.5 c 128,-1,35
 158 510 158 510 278 510 c 0,36,37
 411 510 411 510 474.5 459 c 128,-1,38
 538 408 538 408 538 304 c 2,39,-1
 538 164 l 2,40,41
 538 123 538 123 572 123 c 0,12,13
267 115 m 0,42,43
 286 115 286 115 298 127.5 c 128,-1,44
 310 140 310 140 310 164 c 2,45,-1
 310 212 l 1,46,-1
 277 202 l 2,47,48
 232 189 232 189 232 150 c 0,49,50
 232 133 232 133 242 124 c 128,-1,51
 252 115 252 115 267 115 c 0,42,43
EndSplineSet
Substitution2: "'smcp' Lowercase to Small Capitals lookup 12 subtable" aring.sc
Substitution2: "'aalt' Access All Alternates lookup 0 subtable" aring.sc
EndChar

StartChar: ae
Encoding: 230 230 168
Width: 873
GlyphClass: 2
Flags: W
LayerCount: 2
Fore
SplineSet
853 266 m 0,0,1
 853 228 853 228 848 206 c 1,2,-1
 531 206 l 1,3,4
 537 170 537 170 556.5 156.5 c 128,-1,5
 576 143 576 143 609 143 c 0,6,7
 633 143 633 143 643 153 c 128,-1,8
 653 163 653 163 659 186 c 1,9,-1
 844 136 l 1,10,11
 827 64 827 64 760.5 27 c 128,-1,12
 694 -10 694 -10 599 -10 c 0,13,14
 467 -10 467 -10 410 83 c 1,15,16
 343 -10 343 -10 179 -10 c 0,17,18
 95 -10 95 -10 55.5 21.5 c 128,-1,19
 16 53 16 53 16 107 c 0,20,21
 16 174 16 174 58 208.5 c 128,-1,22
 100 243 100 243 202 264 c 2,23,-1
 311 287 l 1,24,-1
 311 312 l 2,25,26
 311 362 311 362 265 362 c 0,27,28
 239 362 239 362 227 348.5 c 128,-1,29
 215 335 215 335 212 300 c 1,30,-1
 22 330 l 1,31,32
 29 414 29 414 86.5 462 c 128,-1,33
 144 510 144 510 257 510 c 0,34,35
 371 510 371 510 438 448 c 1,36,37
 497 510 497 510 597 510 c 0,38,39
 719 510 719 510 786 444 c 128,-1,40
 853 378 853 378 853 266 c 0,0,1
588 358 m 0,41,42
 560 358 560 358 547 342 c 128,-1,43
 534 326 534 326 530 285 c 1,44,-1
 638 285 l 1,45,46
 636 323 636 323 624.5 340.5 c 128,-1,47
 613 358 613 358 588 358 c 0,41,42
264 106 m 0,48,49
 284 106 284 106 297.5 119 c 128,-1,50
 311 132 311 132 311 161 c 2,51,-1
 311 207 l 1,52,-1
 278 199 l 2,53,54
 251 192 251 192 239 180 c 128,-1,55
 227 168 227 168 227 146 c 0,56,57
 227 106 227 106 264 106 c 0,48,49
EndSplineSet
Substitution2: "'smcp' Lowercase to Small Capitals lookup 12 subtable" ae.sc
Substitution2: "'aalt' Access All Alternates lookup 0 subtable" ae.sc
EndChar

StartChar: ccedilla
Encoding: 231 231 169
Width: 576
GlyphClass: 2
Flags: W
LayerCount: 2
Fore
SplineSet
308 145 m 0,0,1
 348 145 348 145 353 211 c 1,2,-1
 559 147 l 1,3,4
 559 97 559 97 519.5 57.5 c 128,-1,5
 480 18 480 18 407 0 c 1,6,7
 458 -34 458 -34 458 -90 c 0,8,9
 458 -215 458 -215 297 -215 c 0,10,11
 209 -215 209 -215 163 -171 c 1,12,-1
 208 -76 l 1,13,14
 236 -104 236 -104 282 -104 c 0,15,16
 307 -104 307 -104 321.5 -92.5 c 128,-1,17
 336 -81 336 -81 336 -60 c 0,18,19
 336 -26 336 -26 281 -9 c 1,20,21
 153 -3 153 -3 86.5 64 c 128,-1,22
 20 131 20 131 20 250 c 0,23,24
 20 374 20 374 92.5 442 c 128,-1,25
 165 510 165 510 297 510 c 0,26,27
 436 510 436 510 497.5 460.5 c 128,-1,28
 559 411 559 411 561 340 c 1,29,-1
 349 278 l 1,30,31
 352 355 352 355 309 355 c 0,32,33
 278 355 278 355 264.5 331.5 c 128,-1,34
 251 308 251 308 251 247 c 0,35,36
 251 187 251 187 265.5 166 c 128,-1,37
 280 145 280 145 308 145 c 0,0,1
EndSplineSet
Substitution2: "'smcp' Lowercase to Small Capitals lookup 12 subtable" ccedilla.sc
Substitution2: "'aalt' Access All Alternates lookup 0 subtable" ccedilla.sc
EndChar

StartChar: egrave
Encoding: 232 232 170
Width: 583
GlyphClass: 2
Flags: W
AnchorPoint: "Anchor-0" 294 0 basechar 0
LayerCount: 2
Fore
SplineSet
379 553 m 1,0,-1
 217 553 l 1,1,-1
 114 730 l 1,2,-1
 319 730 l 1,3,-1
 379 553 l 1,0,-1
563 266 m 0,4,5
 563 228 563 228 558 206 c 1,6,-1
 240 206 l 1,7,8
 245 169 245 169 261 156 c 128,-1,9
 277 143 277 143 309 143 c 0,10,11
 358 143 358 143 369 186 c 1,12,-1
 554 136 l 1,13,14
 537 64 537 64 470.5 27 c 128,-1,15
 404 -10 404 -10 309 -10 c 0,16,17
 167 -10 167 -10 93.5 57 c 128,-1,18
 20 124 20 124 20 250 c 0,19,20
 20 374 20 374 92.5 442 c 128,-1,21
 165 510 165 510 297 510 c 0,22,23
 426 510 426 510 494.5 444 c 128,-1,24
 563 378 563 378 563 266 c 0,4,5
298 358 m 0,25,26
 272 358 272 358 258 343 c 128,-1,27
 244 328 244 328 240 291 c 1,28,-1
 348 291 l 1,29,30
 342 358 342 358 298 358 c 0,25,26
EndSplineSet
Substitution2: "'smcp' Lowercase to Small Capitals lookup 12 subtable" egrave.sc
Substitution2: "'aalt' Access All Alternates lookup 0 subtable" egrave.sc
EndChar

StartChar: eacute
Encoding: 233 233 171
Width: 583
GlyphClass: 2
Flags: W
AnchorPoint: "Anchor-0" 294 0 basechar 0
LayerCount: 2
Fore
SplineSet
466 730 m 1,0,-1
 363 553 l 1,1,-1
 201 553 l 1,2,-1
 261 730 l 1,3,-1
 466 730 l 1,0,-1
563 266 m 0,4,5
 563 228 563 228 558 206 c 1,6,-1
 240 206 l 1,7,8
 245 169 245 169 261 156 c 128,-1,9
 277 143 277 143 309 143 c 0,10,11
 358 143 358 143 369 186 c 1,12,-1
 554 136 l 1,13,14
 537 64 537 64 470.5 27 c 128,-1,15
 404 -10 404 -10 309 -10 c 0,16,17
 167 -10 167 -10 93.5 57 c 128,-1,18
 20 124 20 124 20 250 c 0,19,20
 20 374 20 374 92.5 442 c 128,-1,21
 165 510 165 510 297 510 c 0,22,23
 426 510 426 510 494.5 444 c 128,-1,24
 563 378 563 378 563 266 c 0,4,5
298 358 m 0,25,26
 272 358 272 358 258 343 c 128,-1,27
 244 328 244 328 240 291 c 1,28,-1
 348 291 l 1,29,30
 342 358 342 358 298 358 c 0,25,26
EndSplineSet
Substitution2: "'smcp' Lowercase to Small Capitals lookup 12 subtable" eacute.sc
Substitution2: "'aalt' Access All Alternates lookup 0 subtable" eacute.sc
EndChar

StartChar: ecircumflex
Encoding: 234 234 172
Width: 583
GlyphClass: 2
Flags: W
AnchorPoint: "Anchor-0" 294 0 basechar 0
LayerCount: 2
Fore
SplineSet
296 618 m 1,0,-1
 239 547 l 1,1,-1
 83 547 l 1,2,-1
 189 724 l 1,3,-1
 403 724 l 1,4,-1
 509 547 l 1,5,-1
 353 547 l 1,6,-1
 296 618 l 1,0,-1
563 266 m 0,7,8
 563 228 563 228 558 206 c 1,9,-1
 240 206 l 1,10,11
 245 169 245 169 261 156 c 128,-1,12
 277 143 277 143 309 143 c 0,13,14
 358 143 358 143 369 186 c 1,15,-1
 554 136 l 1,16,17
 537 64 537 64 470.5 27 c 128,-1,18
 404 -10 404 -10 309 -10 c 0,19,20
 167 -10 167 -10 93.5 57 c 128,-1,21
 20 124 20 124 20 250 c 0,22,23
 20 374 20 374 92.5 442 c 128,-1,24
 165 510 165 510 297 510 c 0,25,26
 426 510 426 510 494.5 444 c 128,-1,27
 563 378 563 378 563 266 c 0,7,8
298 358 m 0,28,29
 272 358 272 358 258 343 c 128,-1,30
 244 328 244 328 240 291 c 1,31,-1
 348 291 l 1,32,33
 342 358 342 358 298 358 c 0,28,29
EndSplineSet
Substitution2: "'smcp' Lowercase to Small Capitals lookup 12 subtable" ecircumflex.sc
Substitution2: "'aalt' Access All Alternates lookup 0 subtable" ecircumflex.sc
EndChar

StartChar: edieresis
Encoding: 235 235 173
Width: 583
GlyphClass: 2
Flags: W
AnchorPoint: "Anchor-0" 294 0 basechar 0
LayerCount: 2
Fore
SplineSet
176 538 m 0,0,1
 127 538 127 538 100.5 562 c 128,-1,2
 74 586 74 586 74 629 c 128,-1,3
 74 672 74 672 100.5 696 c 128,-1,4
 127 720 127 720 176 720 c 0,5,6
 226 720 226 720 253.5 696.5 c 128,-1,7
 281 673 281 673 281 629 c 128,-1,8
 281 585 281 585 253.5 561.5 c 128,-1,9
 226 538 226 538 176 538 c 0,0,1
413 538 m 0,10,11
 364 538 364 538 337.5 562 c 128,-1,12
 311 586 311 586 311 629 c 128,-1,13
 311 672 311 672 337.5 696 c 128,-1,14
 364 720 364 720 413 720 c 0,15,16
 463 720 463 720 490.5 696.5 c 128,-1,17
 518 673 518 673 518 629 c 128,-1,18
 518 585 518 585 490.5 561.5 c 128,-1,19
 463 538 463 538 413 538 c 0,10,11
563 266 m 0,20,21
 563 228 563 228 558 206 c 1,22,-1
 240 206 l 1,23,24
 245 169 245 169 261 156 c 128,-1,25
 277 143 277 143 309 143 c 0,26,27
 358 143 358 143 369 186 c 1,28,-1
 554 136 l 1,29,30
 537 64 537 64 470.5 27 c 128,-1,31
 404 -10 404 -10 309 -10 c 0,32,33
 167 -10 167 -10 93.5 57 c 128,-1,34
 20 124 20 124 20 250 c 0,35,36
 20 374 20 374 92.5 442 c 128,-1,37
 165 510 165 510 297 510 c 0,38,39
 426 510 426 510 494.5 444 c 128,-1,40
 563 378 563 378 563 266 c 0,20,21
298 358 m 0,41,42
 272 358 272 358 258 343 c 128,-1,43
 244 328 244 328 240 291 c 1,44,-1
 348 291 l 1,45,46
 342 358 342 358 298 358 c 0,41,42
EndSplineSet
Substitution2: "'smcp' Lowercase to Small Capitals lookup 12 subtable" edieresis.sc
Substitution2: "'aalt' Access All Alternates lookup 0 subtable" edieresis.sc
EndChar

StartChar: igrave
Encoding: 236 236 174
Width: 308
GlyphClass: 2
Flags: W
LayerCount: 2
Fore
SplineSet
177 730 m 1,0,-1
 237 553 l 1,1,-1
 75 553 l 1,2,-1
 -28 730 l 1,3,-1
 177 730 l 1,0,-1
269 500 m 1,4,-1
 269 0 l 1,5,-1
 39 0 l 1,6,-1
 39 500 l 1,7,-1
 269 500 l 1,4,-1
EndSplineSet
Substitution2: "'smcp' Lowercase to Small Capitals lookup 12 subtable" igrave.sc
Substitution2: "'aalt' Access All Alternates lookup 0 subtable" igrave.sc
EndChar

StartChar: iacute
Encoding: 237 237 175
Width: 308
GlyphClass: 2
Flags: W
LayerCount: 2
Fore
SplineSet
119 730 m 1,0,-1
 324 730 l 1,1,-1
 221 553 l 1,2,-1
 59 553 l 1,3,-1
 119 730 l 1,0,-1
269 500 m 1,4,-1
 269 0 l 1,5,-1
 39 0 l 1,6,-1
 39 500 l 1,7,-1
 269 500 l 1,4,-1
EndSplineSet
Substitution2: "'smcp' Lowercase to Small Capitals lookup 12 subtable" iacute.sc
Substitution2: "'aalt' Access All Alternates lookup 0 subtable" iacute.sc
EndChar

StartChar: icircumflex
Encoding: 238 238 176
Width: 308
GlyphClass: 2
Flags: W
LayerCount: 2
Fore
SplineSet
367 547 m 1,0,-1
 211 547 l 1,1,-1
 154 618 l 1,2,-1
 97 547 l 1,3,-1
 -59 547 l 1,4,-1
 47 724 l 1,5,-1
 261 724 l 1,6,-1
 367 547 l 1,0,-1
269 500 m 1,7,-1
 269 0 l 1,8,-1
 39 0 l 1,9,-1
 39 500 l 1,10,-1
 269 500 l 1,7,-1
EndSplineSet
Substitution2: "'smcp' Lowercase to Small Capitals lookup 12 subtable" icircumflex.sc
Substitution2: "'aalt' Access All Alternates lookup 0 subtable" icircumflex.sc
EndChar

StartChar: idieresis
Encoding: 239 239 177
Width: 308
GlyphClass: 2
Flags: W
LayerCount: 2
Fore
SplineSet
47 535 m 128,-1,1
 -49 535 -49 535 -49 629 c 128,-1,2
 -49 723 -49 723 47 723 c 128,-1,3
 143 723 143 723 143 629 c 128,-1,0
 143 535 143 535 47 535 c 128,-1,1
261 535 m 128,-1,5
 165 535 165 535 165 629 c 128,-1,6
 165 723 165 723 261 723 c 128,-1,7
 357 723 357 723 357 629 c 128,-1,4
 357 535 357 535 261 535 c 128,-1,5
269 500 m 1,8,-1
 269 0 l 1,9,-1
 39 0 l 1,10,-1
 39 500 l 1,11,-1
 269 500 l 1,8,-1
EndSplineSet
Substitution2: "'smcp' Lowercase to Small Capitals lookup 12 subtable" idieresis.sc
Substitution2: "'aalt' Access All Alternates lookup 0 subtable" idieresis.sc
EndChar

StartChar: eth
Encoding: 240 240 178
Width: 593
GlyphClass: 2
Flags: W
LayerCount: 2
Fore
SplineSet
582 610 m 1,0,-1
 478 602 l 1,1,2
 572 481 572 481 572 313 c 0,3,4
 572 136 572 136 507 63 c 128,-1,5
 442 -10 442 -10 289 -10 c 0,6,7
 167 -10 167 -10 97 57.5 c 128,-1,8
 27 125 27 125 27 246 c 128,-1,9
 27 367 27 367 95 434.5 c 128,-1,10
 163 502 163 502 278 502 c 0,11,12
 370 502 370 502 402 434 c 1,13,14
 384 510 384 510 332 569 c 1,15,-1
 183 544 l 1,16,-1
 172 604 l 1,17,-1
 288 614 l 1,18,19
 247 651 247 651 156 717 c 1,20,-1
 341 717 l 1,21,22
 393 692 393 692 442 643 c 1,23,-1
 567 670 l 1,24,-1
 582 610 l 1,0,-1
306 145 m 0,25,26
 335 145 335 145 346 166.5 c 128,-1,27
 357 188 357 188 357 246 c 0,28,29
 357 313 357 313 346 337.5 c 128,-1,30
 335 362 335 362 306 362 c 0,31,32
 278 362 278 362 268 337.5 c 128,-1,33
 258 313 258 313 258 246 c 0,34,35
 258 189 258 189 268.5 167 c 128,-1,36
 279 145 279 145 306 145 c 0,25,26
EndSplineSet
Substitution2: "'smcp' Lowercase to Small Capitals lookup 12 subtable" eth.sc
Substitution2: "'aalt' Access All Alternates lookup 0 subtable" eth.sc
EndChar

StartChar: ntilde
Encoding: 241 241 179
Width: 620
GlyphClass: 2
Flags: W
AnchorPoint: "Anchor-0" 303 0 basechar 0
LayerCount: 2
Fore
SplineSet
247 593 m 0,0,1
 221 593 221 593 217 545 c 1,2,-1
 99 545 l 1,3,4
 103 721 103 721 245 721 c 0,5,6
 279 721 279 721 302.5 708.5 c 128,-1,7
 326 696 326 696 341.5 683.5 c 128,-1,8
 357 671 357 671 371 671 c 0,9,10
 397 671 397 671 401 719 c 1,11,-1
 519 719 l 1,12,13
 515 543 515 543 373 543 c 0,14,15
 339 543 339 543 315.5 555.5 c 128,-1,16
 292 568 292 568 276.5 580.5 c 128,-1,17
 261 593 261 593 247 593 c 0,0,1
425 510 m 0,18,19
 499 510 499 510 540.5 466 c 128,-1,20
 582 422 582 422 582 342 c 2,21,-1
 582 0 l 1,22,-1
 352 0 l 1,23,-1
 352 282 l 2,24,25
 352 315 352 315 344 327.5 c 128,-1,26
 336 340 336 340 317 340 c 0,27,28
 269 340 269 340 269 262 c 2,29,-1
 269 0 l 1,30,-1
 39 0 l 1,31,-1
 39 500 l 1,32,-1
 246 500 l 1,33,-1
 251 391 l 1,34,35
 296 510 296 510 425 510 c 0,18,19
EndSplineSet
Substitution2: "Single Substitution lookup 57 subtable" ntilde.swsh
Substitution2: "'swsh' Swash lookup 38 subtable" ntilde.swsh
Substitution2: "'smcp' Lowercase to Small Capitals lookup 12 subtable" ntilde.sc
AlternateSubs2: "'aalt' Access All Alternates lookup 1 subtable" ntilde.sc ntilde.swsh
EndChar

StartChar: ograve
Encoding: 242 242 180
Width: 598
GlyphClass: 2
Flags: W
LayerCount: 2
Fore
SplineSet
322 730 m 1,0,-1
 382 553 l 1,1,-1
 220 553 l 1,2,-1
 117 730 l 1,3,-1
 322 730 l 1,0,-1
299 510 m 128,-1,5
 432 510 432 510 505 442 c 128,-1,6
 578 374 578 374 578 250 c 128,-1,7
 578 126 578 126 505 58 c 128,-1,8
 432 -10 432 -10 299 -10 c 128,-1,9
 166 -10 166 -10 93 58 c 128,-1,10
 20 126 20 126 20 250 c 128,-1,11
 20 374 20 374 93 442 c 128,-1,4
 166 510 166 510 299 510 c 128,-1,5
299 355 m 128,-1,13
 270 355 270 355 260.5 334 c 128,-1,14
 251 313 251 313 251 250 c 128,-1,15
 251 187 251 187 260.5 166 c 128,-1,16
 270 145 270 145 299 145 c 128,-1,17
 328 145 328 145 337.5 166 c 128,-1,18
 347 187 347 187 347 250 c 128,-1,19
 347 313 347 313 337.5 334 c 128,-1,12
 328 355 328 355 299 355 c 128,-1,13
EndSplineSet
Substitution2: "'smcp' Lowercase to Small Capitals lookup 12 subtable" ograve.sc
Substitution2: "'aalt' Access All Alternates lookup 0 subtable" ograve.sc
EndChar

StartChar: oacute
Encoding: 243 243 181
Width: 598
GlyphClass: 2
Flags: W
LayerCount: 2
Fore
SplineSet
264 730 m 1,0,-1
 469 730 l 1,1,-1
 366 553 l 1,2,-1
 204 553 l 1,3,-1
 264 730 l 1,0,-1
299 510 m 128,-1,5
 432 510 432 510 505 442 c 128,-1,6
 578 374 578 374 578 250 c 128,-1,7
 578 126 578 126 505 58 c 128,-1,8
 432 -10 432 -10 299 -10 c 128,-1,9
 166 -10 166 -10 93 58 c 128,-1,10
 20 126 20 126 20 250 c 128,-1,11
 20 374 20 374 93 442 c 128,-1,4
 166 510 166 510 299 510 c 128,-1,5
299 355 m 128,-1,13
 270 355 270 355 260.5 334 c 128,-1,14
 251 313 251 313 251 250 c 128,-1,15
 251 187 251 187 260.5 166 c 128,-1,16
 270 145 270 145 299 145 c 128,-1,17
 328 145 328 145 337.5 166 c 128,-1,18
 347 187 347 187 347 250 c 128,-1,19
 347 313 347 313 337.5 334 c 128,-1,12
 328 355 328 355 299 355 c 128,-1,13
EndSplineSet
Substitution2: "'smcp' Lowercase to Small Capitals lookup 12 subtable" oacute.sc
Substitution2: "'aalt' Access All Alternates lookup 0 subtable" oacute.sc
EndChar

StartChar: ocircumflex
Encoding: 244 244 182
Width: 598
GlyphClass: 2
Flags: W
LayerCount: 2
Fore
SplineSet
512 547 m 1,0,-1
 356 547 l 1,1,-1
 299 618 l 1,2,-1
 242 547 l 1,3,-1
 86 547 l 1,4,-1
 192 724 l 1,5,-1
 406 724 l 1,6,-1
 512 547 l 1,0,-1
299 510 m 128,-1,8
 432 510 432 510 505 442 c 128,-1,9
 578 374 578 374 578 250 c 128,-1,10
 578 126 578 126 505 58 c 128,-1,11
 432 -10 432 -10 299 -10 c 128,-1,12
 166 -10 166 -10 93 58 c 128,-1,13
 20 126 20 126 20 250 c 128,-1,14
 20 374 20 374 93 442 c 128,-1,7
 166 510 166 510 299 510 c 128,-1,8
299 355 m 128,-1,16
 270 355 270 355 260.5 334 c 128,-1,17
 251 313 251 313 251 250 c 128,-1,18
 251 187 251 187 260.5 166 c 128,-1,19
 270 145 270 145 299 145 c 128,-1,20
 328 145 328 145 337.5 166 c 128,-1,21
 347 187 347 187 347 250 c 128,-1,22
 347 313 347 313 337.5 334 c 128,-1,15
 328 355 328 355 299 355 c 128,-1,16
EndSplineSet
Substitution2: "'smcp' Lowercase to Small Capitals lookup 12 subtable" ocircumflex.sc
Substitution2: "'aalt' Access All Alternates lookup 0 subtable" ocircumflex.sc
EndChar

StartChar: otilde
Encoding: 245 245 183
Width: 598
GlyphClass: 2
Flags: W
LayerCount: 2
Fore
SplineSet
509 719 m 1,0,1
 505 543 505 543 363 543 c 0,2,3
 329 543 329 543 305.5 555.5 c 128,-1,4
 282 568 282 568 266.5 580.5 c 128,-1,5
 251 593 251 593 237 593 c 0,6,7
 211 593 211 593 207 545 c 1,8,-1
 89 545 l 1,9,10
 93 721 93 721 235 721 c 0,11,12
 269 721 269 721 292.5 708.5 c 128,-1,13
 316 696 316 696 331.5 683.5 c 128,-1,14
 347 671 347 671 361 671 c 0,15,16
 387 671 387 671 391 719 c 1,17,-1
 509 719 l 1,0,1
299 510 m 128,-1,19
 432 510 432 510 505 442 c 128,-1,20
 578 374 578 374 578 250 c 128,-1,21
 578 126 578 126 505 58 c 128,-1,22
 432 -10 432 -10 299 -10 c 128,-1,23
 166 -10 166 -10 93 58 c 128,-1,24
 20 126 20 126 20 250 c 128,-1,25
 20 374 20 374 93 442 c 128,-1,18
 166 510 166 510 299 510 c 128,-1,19
299 355 m 128,-1,27
 270 355 270 355 260.5 334 c 128,-1,28
 251 313 251 313 251 250 c 128,-1,29
 251 187 251 187 260.5 166 c 128,-1,30
 270 145 270 145 299 145 c 128,-1,31
 328 145 328 145 337.5 166 c 128,-1,32
 347 187 347 187 347 250 c 128,-1,33
 347 313 347 313 337.5 334 c 128,-1,26
 328 355 328 355 299 355 c 128,-1,27
EndSplineSet
Substitution2: "'smcp' Lowercase to Small Capitals lookup 12 subtable" otilde.sc
Substitution2: "'aalt' Access All Alternates lookup 0 subtable" otilde.sc
EndChar

StartChar: odieresis
Encoding: 246 246 184
Width: 598
GlyphClass: 2
Flags: W
LayerCount: 2
Fore
SplineSet
179 720 m 0,0,1
 229 720 229 720 256.5 696.5 c 128,-1,2
 284 673 284 673 284 629 c 128,-1,3
 284 585 284 585 256.5 561.5 c 128,-1,4
 229 538 229 538 179 538 c 0,5,6
 130 538 130 538 103.5 562 c 128,-1,7
 77 586 77 586 77 629 c 128,-1,8
 77 672 77 672 103.5 696 c 128,-1,9
 130 720 130 720 179 720 c 0,0,1
416 720 m 0,10,11
 466 720 466 720 493.5 696.5 c 128,-1,12
 521 673 521 673 521 629 c 128,-1,13
 521 585 521 585 493.5 561.5 c 128,-1,14
 466 538 466 538 416 538 c 0,15,16
 367 538 367 538 340.5 562 c 128,-1,17
 314 586 314 586 314 629 c 128,-1,18
 314 672 314 672 340.5 696 c 128,-1,19
 367 720 367 720 416 720 c 0,10,11
299 510 m 128,-1,21
 432 510 432 510 505 442 c 128,-1,22
 578 374 578 374 578 250 c 128,-1,23
 578 126 578 126 505 58 c 128,-1,24
 432 -10 432 -10 299 -10 c 128,-1,25
 166 -10 166 -10 93 58 c 128,-1,26
 20 126 20 126 20 250 c 128,-1,27
 20 374 20 374 93 442 c 128,-1,20
 166 510 166 510 299 510 c 128,-1,21
299 355 m 128,-1,29
 270 355 270 355 260.5 334 c 128,-1,30
 251 313 251 313 251 250 c 128,-1,31
 251 187 251 187 260.5 166 c 128,-1,32
 270 145 270 145 299 145 c 128,-1,33
 328 145 328 145 337.5 166 c 128,-1,34
 347 187 347 187 347 250 c 128,-1,35
 347 313 347 313 337.5 334 c 128,-1,28
 328 355 328 355 299 355 c 128,-1,29
EndSplineSet
Substitution2: "'smcp' Lowercase to Small Capitals lookup 12 subtable" odieresis.sc
Substitution2: "'aalt' Access All Alternates lookup 0 subtable" odieresis.sc
EndChar

StartChar: divide
Encoding: 247 247 185
Width: 604
GlyphClass: 2
Flags: W
LayerCount: 2
Fore
SplineSet
302 651 m 0,0,1
 347 651 347 651 372 626.5 c 128,-1,2
 397 602 397 602 397 558 c 128,-1,3
 397 514 397 514 372 490 c 128,-1,4
 347 466 347 466 302 466 c 0,5,6
 256 466 256 466 231 490 c 128,-1,7
 206 514 206 514 206 558 c 128,-1,8
 206 602 206 602 231 626.5 c 128,-1,9
 256 651 256 651 302 651 c 0,0,1
560 407 m 1,10,-1
 560 254 l 1,11,-1
 44 254 l 1,12,-1
 44 407 l 1,13,-1
 560 407 l 1,10,-1
302 195 m 0,14,15
 347 195 347 195 372 170.5 c 128,-1,16
 397 146 397 146 397 102 c 128,-1,17
 397 58 397 58 372 34 c 128,-1,18
 347 10 347 10 302 10 c 0,19,20
 256 10 256 10 231 34 c 128,-1,21
 206 58 206 58 206 102 c 128,-1,22
 206 146 206 146 231 170.5 c 128,-1,23
 256 195 256 195 302 195 c 0,14,15
EndSplineSet
EndChar

StartChar: oslash
Encoding: 248 248 186
Width: 598
GlyphClass: 2
Flags: W
LayerCount: 2
Fore
SplineSet
299 510 m 0,0,1
 394 510 394 510 462 473 c 1,2,-1
 499 520 l 1,3,-1
 566 520 l 1,4,-1
 504 443 l 1,5,6
 578 375 578 375 578 250 c 0,7,8
 578 126 578 126 505 58 c 128,-1,9
 432 -10 432 -10 299 -10 c 0,10,11
 207 -10 207 -10 144 23 c 1,12,-1
 111 -21 l 1,13,-1
 44 -21 l 1,14,-1
 100 52 l 1,15,16
 20 120 20 120 20 250 c 0,17,18
 20 374 20 374 93 442 c 128,-1,19
 166 510 166 510 299 510 c 0,0,1
251 218 m 1,20,-1
 252 218 l 1,21,-1
 267 243 l 1,22,-1
 336 336 l 1,23,24
 326 355 326 355 299 355 c 0,25,26
 270 355 270 355 260.5 334 c 128,-1,27
 251 313 251 313 251 250 c 2,28,-1
 251 218 l 1,20,-1
299 145 m 0,29,30
 328 145 328 145 337.5 166 c 128,-1,31
 347 187 347 187 347 250 c 2,32,-1
 347 269 l 1,33,-1
 346 269 l 1,34,-1
 331 245 l 1,35,-1
 266 158 l 1,36,37
 275 145 275 145 299 145 c 0,29,30
EndSplineSet
Substitution2: "'smcp' Lowercase to Small Capitals lookup 12 subtable" oslash.sc
Substitution2: "'aalt' Access All Alternates lookup 0 subtable" oslash.sc
EndChar

StartChar: ugrave
Encoding: 249 249 187
Width: 620
GlyphClass: 2
Flags: W
LayerCount: 2
Fore
SplineSet
387 553 m 1,0,-1
 225 553 l 1,1,-1
 122 730 l 1,2,-1
 327 730 l 1,3,-1
 387 553 l 1,0,-1
351 500 m 1,4,-1
 581 500 l 1,5,-1
 581 0 l 1,6,-1
 374 0 l 1,7,-1
 369 106 l 1,8,9
 325 -10 325 -10 200 -10 c 0,10,11
 38 -10 38 -10 38 162 c 2,12,-1
 38 500 l 1,13,-1
 268 500 l 1,14,-1
 268 219 l 2,15,16
 268 186 268 186 276.5 173 c 128,-1,17
 285 160 285 160 305 160 c 0,18,19
 351 160 351 160 351 239 c 2,20,-1
 351 500 l 1,4,-1
EndSplineSet
Substitution2: "'smcp' Lowercase to Small Capitals lookup 12 subtable" ugrave.sc
Substitution2: "'aalt' Access All Alternates lookup 0 subtable" ugrave.sc
EndChar

StartChar: uacute
Encoding: 250 250 188
Width: 620
GlyphClass: 2
Flags: W
LayerCount: 2
Fore
SplineSet
474 730 m 1,0,-1
 371 553 l 1,1,-1
 209 553 l 1,2,-1
 269 730 l 1,3,-1
 474 730 l 1,0,-1
351 500 m 1,4,-1
 581 500 l 1,5,-1
 581 0 l 1,6,-1
 374 0 l 1,7,-1
 369 106 l 1,8,9
 325 -10 325 -10 200 -10 c 0,10,11
 38 -10 38 -10 38 162 c 2,12,-1
 38 500 l 1,13,-1
 268 500 l 1,14,-1
 268 219 l 2,15,16
 268 186 268 186 276.5 173 c 128,-1,17
 285 160 285 160 305 160 c 0,18,19
 351 160 351 160 351 239 c 2,20,-1
 351 500 l 1,4,-1
EndSplineSet
Substitution2: "'smcp' Lowercase to Small Capitals lookup 12 subtable" uacute.sc
Substitution2: "'aalt' Access All Alternates lookup 0 subtable" uacute.sc
EndChar

StartChar: ucircumflex
Encoding: 251 251 189
Width: 620
GlyphClass: 2
Flags: W
LayerCount: 2
Fore
SplineSet
304 618 m 1,0,-1
 247 547 l 1,1,-1
 91 547 l 1,2,-1
 197 724 l 1,3,-1
 411 724 l 1,4,-1
 517 547 l 1,5,-1
 361 547 l 1,6,-1
 304 618 l 1,0,-1
351 500 m 1,7,-1
 581 500 l 1,8,-1
 581 0 l 1,9,-1
 374 0 l 1,10,-1
 369 106 l 1,11,12
 325 -10 325 -10 200 -10 c 0,13,14
 38 -10 38 -10 38 162 c 2,15,-1
 38 500 l 1,16,-1
 268 500 l 1,17,-1
 268 219 l 2,18,19
 268 186 268 186 276.5 173 c 128,-1,20
 285 160 285 160 305 160 c 0,21,22
 351 160 351 160 351 239 c 2,23,-1
 351 500 l 1,7,-1
EndSplineSet
Substitution2: "'smcp' Lowercase to Small Capitals lookup 12 subtable" ucircumflex.sc
Substitution2: "'aalt' Access All Alternates lookup 0 subtable" ucircumflex.sc
EndChar

StartChar: udieresis
Encoding: 252 252 190
Width: 620
GlyphClass: 2
Flags: W
LayerCount: 2
Fore
SplineSet
184 538 m 0,0,1
 135 538 135 538 108.5 562 c 128,-1,2
 82 586 82 586 82 629 c 128,-1,3
 82 672 82 672 108.5 696 c 128,-1,4
 135 720 135 720 184 720 c 0,5,6
 234 720 234 720 261.5 696.5 c 128,-1,7
 289 673 289 673 289 629 c 128,-1,8
 289 585 289 585 261.5 561.5 c 128,-1,9
 234 538 234 538 184 538 c 0,0,1
421 538 m 0,10,11
 372 538 372 538 345.5 562 c 128,-1,12
 319 586 319 586 319 629 c 128,-1,13
 319 672 319 672 345.5 696 c 128,-1,14
 372 720 372 720 421 720 c 0,15,16
 471 720 471 720 498.5 696.5 c 128,-1,17
 526 673 526 673 526 629 c 128,-1,18
 526 585 526 585 498.5 561.5 c 128,-1,19
 471 538 471 538 421 538 c 0,10,11
351 500 m 1,20,-1
 581 500 l 1,21,-1
 581 0 l 1,22,-1
 374 0 l 1,23,-1
 369 106 l 1,24,25
 325 -10 325 -10 200 -10 c 0,26,27
 38 -10 38 -10 38 162 c 2,28,-1
 38 500 l 1,29,-1
 268 500 l 1,30,-1
 268 219 l 2,31,32
 268 186 268 186 276.5 173 c 128,-1,33
 285 160 285 160 305 160 c 0,34,35
 351 160 351 160 351 239 c 2,36,-1
 351 500 l 1,20,-1
EndSplineSet
Substitution2: "'smcp' Lowercase to Small Capitals lookup 12 subtable" udieresis.sc
Substitution2: "'aalt' Access All Alternates lookup 0 subtable" udieresis.sc
EndChar

StartChar: yacute
Encoding: 253 253 191
Width: 594
GlyphClass: 2
Flags: W
LayerCount: 2
Fore
SplineSet
288 730 m 1,0,-1
 493 730 l 1,1,-1
 390 553 l 1,2,-1
 228 553 l 1,3,-1
 288 730 l 1,0,-1
604 500 m 1,4,-1
 457 56 l 2,5,6
 407 -94 407 -94 338.5 -154.5 c 128,-1,7
 270 -215 270 -215 149 -215 c 0,8,9
 56 -215 56 -215 -5 -182 c 1,10,-1
 37 -37 l 1,11,12
 67 -54 67 -54 126 -54 c 0,13,14
 184 -54 184 -54 195 -27 c 2,15,-1
 198 -19 l 1,16,-1
 135 128 l 1,17,-1
 -8 500 l 1,18,-1
 243 500 l 1,19,-1
 288 242 l 1,20,-1
 307 125 l 1,21,-1
 329 243 l 1,22,-1
 379 500 l 1,23,-1
 604 500 l 1,4,-1
EndSplineSet
Substitution2: "Single Substitution lookup 57 subtable" yacute.swsh
Substitution2: "'swsh' Swash lookup 38 subtable" yacute.swsh
Substitution2: "'smcp' Lowercase to Small Capitals lookup 12 subtable" yacute.sc
AlternateSubs2: "'aalt' Access All Alternates lookup 1 subtable" yacute.sc yacute.swsh
EndChar

StartChar: thorn
Encoding: 254 254 192
Width: 627
GlyphClass: 2
Flags: W
LayerCount: 2
Fore
SplineSet
418 510 m 0,0,1
 497 510 497 510 549.5 447.5 c 128,-1,2
 602 385 602 385 602 258 c 0,3,4
 602 194 602 194 588.5 144.5 c 128,-1,5
 575 95 575 95 555 67 c 128,-1,6
 535 39 535 39 508 20.5 c 128,-1,7
 481 2 481 2 457 -4 c 128,-1,8
 433 -10 433 -10 409 -10 c 0,9,10
 311 -10 311 -10 269 77 c 1,11,-1
 269 -210 l 1,12,-1
 39 -210 l 1,13,-1
 39 700 l 1,14,-1
 269 700 l 1,15,-1
 269 401 l 1,16,17
 310 510 310 510 418 510 c 0,0,1
318 152 m 0,18,19
 348 152 348 152 359 172 c 128,-1,20
 370 192 370 192 370 250 c 128,-1,21
 370 308 370 308 359 328.5 c 128,-1,22
 348 349 348 349 318 349 c 0,23,24
 269 349 269 349 269 254 c 2,25,-1
 269 246 l 2,26,27
 269 152 269 152 318 152 c 0,18,19
EndSplineSet
Substitution2: "'smcp' Lowercase to Small Capitals lookup 12 subtable" thorn.sc
Substitution2: "'aalt' Access All Alternates lookup 0 subtable" thorn.sc
EndChar

StartChar: ydieresis
Encoding: 255 255 193
Width: 594
GlyphClass: 2
Flags: W
LayerCount: 2
Fore
SplineSet
203 720 m 0,0,1
 253 720 253 720 280.5 696.5 c 128,-1,2
 308 673 308 673 308 629 c 128,-1,3
 308 585 308 585 280.5 561.5 c 128,-1,4
 253 538 253 538 203 538 c 0,5,6
 154 538 154 538 127.5 562 c 128,-1,7
 101 586 101 586 101 629 c 128,-1,8
 101 672 101 672 127.5 696 c 128,-1,9
 154 720 154 720 203 720 c 0,0,1
440 720 m 0,10,11
 490 720 490 720 517.5 696.5 c 128,-1,12
 545 673 545 673 545 629 c 128,-1,13
 545 585 545 585 517.5 561.5 c 128,-1,14
 490 538 490 538 440 538 c 0,15,16
 391 538 391 538 364.5 562 c 128,-1,17
 338 586 338 586 338 629 c 128,-1,18
 338 672 338 672 364.5 696 c 128,-1,19
 391 720 391 720 440 720 c 0,10,11
604 500 m 1,20,-1
 457 56 l 2,21,22
 407 -94 407 -94 338.5 -154.5 c 128,-1,23
 270 -215 270 -215 149 -215 c 0,24,25
 56 -215 56 -215 -5 -182 c 1,26,-1
 37 -37 l 1,27,28
 67 -54 67 -54 126 -54 c 0,29,30
 184 -54 184 -54 195 -27 c 2,31,-1
 198 -19 l 1,32,-1
 135 128 l 1,33,-1
 -8 500 l 1,34,-1
 243 500 l 1,35,-1
 288 242 l 1,36,-1
 307 125 l 1,37,-1
 329 243 l 1,38,-1
 379 500 l 1,39,-1
 604 500 l 1,20,-1
EndSplineSet
Substitution2: "Single Substitution lookup 57 subtable" ydieresis.swsh
Substitution2: "'swsh' Swash lookup 38 subtable" ydieresis.swsh
Substitution2: "'smcp' Lowercase to Small Capitals lookup 12 subtable" ydieresis.sc
AlternateSubs2: "'aalt' Access All Alternates lookup 1 subtable" ydieresis.sc ydieresis.swsh
EndChar

StartChar: Amacron
Encoding: 256 256 194
Width: 689
GlyphClass: 2
Flags: W
LayerCount: 2
Fore
SplineSet
538 841 m 1,0,-1
 538 711 l 1,1,-1
 150 711 l 1,2,-1
 150 841 l 1,3,-1
 538 841 l 1,0,-1
461 0 m 1,4,-1
 431 126 l 1,5,-1
 253 126 l 1,6,-1
 222 0 l 1,7,-1
 -10 0 l 1,8,-1
 204 660 l 1,9,-1
 484 660 l 1,10,-1
 699 0 l 1,11,-1
 461 0 l 1,4,-1
288 271 m 1,12,-1
 397 271 l 1,13,-1
 344 491 l 1,14,-1
 341 491 l 1,15,-1
 315 379 l 1,16,-1
 288 271 l 1,12,-1
EndSplineSet
Substitution2: "Single Substitution lookup 56 subtable" Amacron.swsh
Substitution2: "'swsh' Swash lookup 32 subtable" Amacron.swsh
Substitution2: "'c2sc' Capitals to Small Capitals lookup 11 subtable" amacron.sc
AlternateSubs2: "'aalt' Access All Alternates lookup 1 subtable" amacron.sc Amacron.swsh
EndChar

StartChar: amacron
Encoding: 257 257 195
Width: 588
GlyphClass: 2
Flags: W
LayerCount: 2
Fore
SplineSet
471 681 m 1,0,-1
 471 551 l 1,1,-1
 83 551 l 1,2,-1
 83 681 l 1,3,-1
 471 681 l 1,0,-1
572 123 m 0,4,5
 589 123 589 123 597 127 c 1,6,-1
 579 10 l 1,7,8
 545 -10 545 -10 505 -10 c 0,9,10
 377 -10 377 -10 348 74 c 1,11,12
 298 -10 298 -10 170 -10 c 0,13,14
 16 -10 16 -10 16 109 c 0,15,16
 16 172 16 172 61 209.5 c 128,-1,17
 106 247 106 247 211 270 c 2,18,-1
 310 292 l 1,19,-1
 310 312 l 2,20,21
 310 361 310 361 265 361 c 0,22,23
 214 361 214 361 212 300 c 1,24,-1
 22 329 l 1,25,26
 30 415 30 415 94 462.5 c 128,-1,27
 158 510 158 510 278 510 c 0,28,29
 411 510 411 510 474.5 459 c 128,-1,30
 538 408 538 408 538 304 c 2,31,-1
 538 164 l 2,32,33
 538 123 538 123 572 123 c 0,4,5
267 115 m 0,34,35
 286 115 286 115 298 127.5 c 128,-1,36
 310 140 310 140 310 164 c 2,37,-1
 310 212 l 1,38,-1
 277 202 l 2,39,40
 232 189 232 189 232 150 c 0,41,42
 232 133 232 133 242 124 c 128,-1,43
 252 115 252 115 267 115 c 0,34,35
EndSplineSet
Substitution2: "'smcp' Lowercase to Small Capitals lookup 12 subtable" amacron.sc
Substitution2: "'aalt' Access All Alternates lookup 0 subtable" amacron.sc
EndChar

StartChar: Abreve
Encoding: 258 258 196
Width: 689
GlyphClass: 2
Flags: W
LayerCount: 2
Fore
SplineSet
344 700 m 128,-1,1
 257 700 257 700 209 745.5 c 128,-1,2
 161 791 161 791 161 873 c 1,3,-1
 300 873 l 1,4,5
 300 818 300 818 344 818 c 128,-1,6
 388 818 388 818 388 873 c 1,7,-1
 527 873 l 1,8,9
 527 791 527 791 479 745.5 c 128,-1,0
 431 700 431 700 344 700 c 128,-1,1
461 0 m 1,10,-1
 431 126 l 1,11,-1
 253 126 l 1,12,-1
 222 0 l 1,13,-1
 -10 0 l 1,14,-1
 204 660 l 1,15,-1
 484 660 l 1,16,-1
 699 0 l 1,17,-1
 461 0 l 1,10,-1
288 271 m 1,18,-1
 397 271 l 1,19,-1
 344 491 l 1,20,-1
 341 491 l 1,21,-1
 315 379 l 1,22,-1
 288 271 l 1,18,-1
EndSplineSet
Substitution2: "Single Substitution lookup 56 subtable" Abreve.swsh
Substitution2: "'swsh' Swash lookup 32 subtable" Abreve.swsh
Substitution2: "'c2sc' Capitals to Small Capitals lookup 11 subtable" abreve.sc
AlternateSubs2: "'aalt' Access All Alternates lookup 1 subtable" abreve.sc Abreve.swsh
EndChar

StartChar: abreve
Encoding: 259 259 197
Width: 588
GlyphClass: 2
Flags: W
LayerCount: 2
Fore
SplineSet
277 540 m 128,-1,1
 190 540 190 540 142 585.5 c 128,-1,2
 94 631 94 631 94 713 c 1,3,-1
 233 713 l 1,4,5
 233 658 233 658 277 658 c 128,-1,6
 321 658 321 658 321 713 c 1,7,-1
 460 713 l 1,8,9
 460 631 460 631 412 585.5 c 128,-1,0
 364 540 364 540 277 540 c 128,-1,1
572 123 m 0,10,11
 589 123 589 123 597 127 c 1,12,-1
 579 10 l 1,13,14
 545 -10 545 -10 505 -10 c 0,15,16
 377 -10 377 -10 348 74 c 1,17,18
 298 -10 298 -10 170 -10 c 0,19,20
 16 -10 16 -10 16 109 c 0,21,22
 16 172 16 172 61 209.5 c 128,-1,23
 106 247 106 247 211 270 c 2,24,-1
 310 292 l 1,25,-1
 310 312 l 2,26,27
 310 361 310 361 265 361 c 0,28,29
 214 361 214 361 212 300 c 1,30,-1
 22 329 l 1,31,32
 30 415 30 415 94 462.5 c 128,-1,33
 158 510 158 510 278 510 c 0,34,35
 411 510 411 510 474.5 459 c 128,-1,36
 538 408 538 408 538 304 c 2,37,-1
 538 164 l 2,38,39
 538 123 538 123 572 123 c 0,10,11
267 115 m 0,40,41
 286 115 286 115 298 127.5 c 128,-1,42
 310 140 310 140 310 164 c 2,43,-1
 310 212 l 1,44,-1
 277 202 l 2,45,46
 232 189 232 189 232 150 c 0,47,48
 232 133 232 133 242 124 c 128,-1,49
 252 115 252 115 267 115 c 0,40,41
EndSplineSet
Substitution2: "'smcp' Lowercase to Small Capitals lookup 12 subtable" abreve.sc
Substitution2: "'aalt' Access All Alternates lookup 0 subtable" abreve.sc
EndChar

StartChar: Aogonek
Encoding: 260 260 198
Width: 689
GlyphClass: 2
Flags: W
LayerCount: 2
Fore
SplineSet
675 -86 m 1,0,-1
 702 -189 l 1,1,2
 660 -215 660 -215 584 -215 c 0,3,4
 517 -215 517 -215 474.5 -185.5 c 128,-1,5
 432 -156 432 -156 432 -96 c 0,6,7
 432 -35 432 -35 488 0 c 1,8,-1
 461 0 l 1,9,-1
 431 126 l 1,10,-1
 253 126 l 1,11,-1
 222 0 l 1,12,-1
 -10 0 l 1,13,-1
 204 660 l 1,14,-1
 484 660 l 1,15,-1
 699 0 l 1,16,17
 586 -7 586 -7 586 -56 c 0,18,19
 586 -94 586 -94 635 -94 c 0,20,21
 662 -94 662 -94 675 -86 c 1,0,-1
288 271 m 1,22,-1
 397 271 l 1,23,-1
 344 491 l 1,24,-1
 341 491 l 1,25,-1
 315 379 l 1,26,-1
 288 271 l 1,22,-1
EndSplineSet
Substitution2: "Single Substitution lookup 56 subtable" Aogonek.swsh
Substitution2: "'swsh' Swash lookup 32 subtable" Aogonek.swsh
Substitution2: "'c2sc' Capitals to Small Capitals lookup 11 subtable" aogonek.sc
AlternateSubs2: "'aalt' Access All Alternates lookup 1 subtable" aogonek.sc Aogonek.swsh
EndChar

StartChar: aogonek
Encoding: 261 261 199
Width: 588
GlyphClass: 2
Flags: W
LayerCount: 2
Fore
SplineSet
524 -94 m 0,0,1
 551 -94 551 -94 564 -86 c 1,2,-1
 591 -189 l 1,3,4
 549 -215 549 -215 473 -215 c 0,5,6
 406 -215 406 -215 363.5 -184.5 c 128,-1,7
 321 -154 321 -154 321 -90 c 0,8,9
 321 0 321 0 425 22 c 1,10,11
 372 42 372 42 359 96 c 1,12,13
 340 48 340 48 292.5 19 c 128,-1,14
 245 -10 245 -10 170 -10 c 0,15,16
 16 -10 16 -10 16 109 c 0,17,18
 16 172 16 172 61 209.5 c 128,-1,19
 106 247 106 247 211 270 c 2,20,-1
 310 292 l 1,21,-1
 310 312 l 2,22,23
 310 361 310 361 265 361 c 0,24,25
 214 361 214 361 212 300 c 1,26,-1
 22 329 l 1,27,28
 30 415 30 415 94 462.5 c 128,-1,29
 158 510 158 510 278 510 c 0,30,31
 411 510 411 510 474.5 459 c 128,-1,32
 538 408 538 408 538 304 c 2,33,-1
 538 164 l 2,34,35
 538 123 538 123 572 123 c 0,36,37
 589 123 589 123 597 127 c 1,38,-1
 579 5 l 1,39,40
 475 -4 475 -4 475 -56 c 0,41,42
 475 -94 475 -94 524 -94 c 0,0,1
267 115 m 0,43,44
 286 115 286 115 298 127.5 c 128,-1,45
 310 140 310 140 310 164 c 2,46,-1
 310 212 l 1,47,-1
 277 202 l 2,48,49
 232 189 232 189 232 150 c 0,50,51
 232 133 232 133 242 124 c 128,-1,52
 252 115 252 115 267 115 c 0,43,44
EndSplineSet
Substitution2: "'smcp' Lowercase to Small Capitals lookup 12 subtable" aogonek.sc
Substitution2: "'aalt' Access All Alternates lookup 0 subtable" aogonek.sc
EndChar

StartChar: Cacute
Encoding: 262 262 200
Width: 677
GlyphClass: 2
Flags: W
LayerCount: 2
Fore
SplineSet
318 876 m 1,0,-1
 524 876 l 1,1,-1
 428 709 l 1,2,-1
 265 709 l 1,3,-1
 318 876 l 1,0,-1
670 202 m 1,4,5
 619 -10 619 -10 365 -10 c 0,6,7
 207 -10 207 -10 118 79.5 c 128,-1,8
 29 169 29 169 29 330 c 128,-1,9
 29 491 29 491 118 580.5 c 128,-1,10
 207 670 207 670 365 670 c 0,11,12
 481 670 481 670 563 620.5 c 128,-1,13
 645 571 645 571 665 470 c 1,14,-1
 465 392 l 1,15,16
 457 453 457 453 436 474 c 128,-1,17
 415 495 415 495 371 495 c 0,18,19
 267 495 267 495 267 330 c 0,20,21
 267 245 267 245 292 205 c 128,-1,22
 317 165 317 165 369 165 c 0,23,24
 416 165 416 165 437 186 c 128,-1,25
 458 207 458 207 464 255 c 1,26,-1
 670 202 l 1,4,5
EndSplineSet
Substitution2: "'c2sc' Capitals to Small Capitals lookup 11 subtable" cacute.sc
Substitution2: "'aalt' Access All Alternates lookup 0 subtable" cacute.sc
EndChar

StartChar: cacute
Encoding: 263 263 201
Width: 576
GlyphClass: 2
Flags: W
LayerCount: 2
Fore
SplineSet
262 730 m 1,0,-1
 467 730 l 1,1,-1
 364 553 l 1,2,-1
 202 553 l 1,3,-1
 262 730 l 1,0,-1
297 510 m 0,4,5
 436 510 436 510 497.5 460.5 c 128,-1,6
 559 411 559 411 561 340 c 1,7,-1
 349 278 l 1,8,9
 352 355 352 355 309 355 c 0,10,11
 278 355 278 355 264.5 331.5 c 128,-1,12
 251 308 251 308 251 247 c 0,13,14
 251 187 251 187 265.5 166 c 128,-1,15
 280 145 280 145 308 145 c 0,16,17
 348 145 348 145 353 211 c 1,18,-1
 559 147 l 1,19,20
 559 81 559 81 492.5 35.5 c 128,-1,21
 426 -10 426 -10 309 -10 c 0,22,23
 167 -10 167 -10 93.5 57 c 128,-1,24
 20 124 20 124 20 250 c 0,25,26
 20 374 20 374 92.5 442 c 128,-1,27
 165 510 165 510 297 510 c 0,4,5
EndSplineSet
Substitution2: "'smcp' Lowercase to Small Capitals lookup 12 subtable" cacute.sc
Substitution2: "'aalt' Access All Alternates lookup 0 subtable" cacute.sc
EndChar

StartChar: Ccaron
Encoding: 268 268 202
Width: 677
GlyphClass: 2
Flags: W
LayerCount: 2
Fore
SplineSet
565 876 m 1,0,-1
 457 709 l 1,1,-1
 243 709 l 1,2,-1
 135 876 l 1,3,-1
 296 876 l 1,4,-1
 350 807 l 1,5,-1
 404 876 l 1,6,-1
 565 876 l 1,0,-1
670 202 m 1,7,8
 619 -10 619 -10 365 -10 c 0,9,10
 207 -10 207 -10 118 79.5 c 128,-1,11
 29 169 29 169 29 330 c 128,-1,12
 29 491 29 491 118 580.5 c 128,-1,13
 207 670 207 670 365 670 c 0,14,15
 481 670 481 670 563 620.5 c 128,-1,16
 645 571 645 571 665 470 c 1,17,-1
 465 392 l 1,18,19
 457 453 457 453 436 474 c 128,-1,20
 415 495 415 495 371 495 c 0,21,22
 267 495 267 495 267 330 c 0,23,24
 267 245 267 245 292 205 c 128,-1,25
 317 165 317 165 369 165 c 0,26,27
 416 165 416 165 437 186 c 128,-1,28
 458 207 458 207 464 255 c 1,29,-1
 670 202 l 1,7,8
EndSplineSet
Substitution2: "'c2sc' Capitals to Small Capitals lookup 11 subtable" ccaron.sc
Substitution2: "'aalt' Access All Alternates lookup 0 subtable" ccaron.sc
EndChar

StartChar: ccaron
Encoding: 269 269 203
Width: 576
GlyphClass: 2
Flags: W
LayerCount: 2
Fore
SplineSet
504 730 m 1,0,-1
 398 553 l 1,1,-1
 184 553 l 1,2,-1
 78 730 l 1,3,-1
 234 730 l 1,4,-1
 291 659 l 1,5,-1
 348 730 l 1,6,-1
 504 730 l 1,0,-1
297 510 m 0,7,8
 436 510 436 510 497.5 460.5 c 128,-1,9
 559 411 559 411 561 340 c 1,10,-1
 349 278 l 1,11,12
 352 355 352 355 309 355 c 0,13,14
 278 355 278 355 264.5 331.5 c 128,-1,15
 251 308 251 308 251 247 c 0,16,17
 251 187 251 187 265.5 166 c 128,-1,18
 280 145 280 145 308 145 c 0,19,20
 348 145 348 145 353 211 c 1,21,-1
 559 147 l 1,22,23
 559 81 559 81 492.5 35.5 c 128,-1,24
 426 -10 426 -10 309 -10 c 0,25,26
 167 -10 167 -10 93.5 57 c 128,-1,27
 20 124 20 124 20 250 c 0,28,29
 20 374 20 374 92.5 442 c 128,-1,30
 165 510 165 510 297 510 c 0,7,8
EndSplineSet
Substitution2: "'smcp' Lowercase to Small Capitals lookup 12 subtable" ccaron.sc
Substitution2: "'aalt' Access All Alternates lookup 0 subtable" ccaron.sc
EndChar

StartChar: Dcaron
Encoding: 270 270 204
Width: 716
GlyphClass: 2
Flags: W
LayerCount: 2
Fore
SplineSet
432 709 m 1,0,-1
 218 709 l 1,1,-1
 110 876 l 1,2,-1
 271 876 l 1,3,-1
 325 807 l 1,4,-1
 379 876 l 1,5,-1
 540 876 l 1,6,-1
 432 709 l 1,0,-1
374 660 m 2,7,8
 528 660 528 660 607.5 574.5 c 128,-1,9
 687 489 687 489 687 330 c 128,-1,10
 687 171 687 171 607.5 85.5 c 128,-1,11
 528 0 528 0 374 0 c 2,12,-1
 50 0 l 1,13,-1
 50 660 l 1,14,-1
 374 660 l 2,7,8
341 166 m 2,15,16
 403 166 403 166 426 204 c 128,-1,17
 449 242 449 242 449 330 c 128,-1,18
 449 418 449 418 426 456 c 128,-1,19
 403 494 403 494 341 494 c 2,20,-1
 283 494 l 1,21,-1
 283 166 l 1,22,-1
 341 166 l 2,15,16
EndSplineSet
Substitution2: "'c2sc' Capitals to Small Capitals lookup 11 subtable" dcaron.sc
Substitution2: "'aalt' Access All Alternates lookup 0 subtable" dcaron.sc
EndChar

StartChar: dcaron
Encoding: 271 271 205
Width: 763
GlyphClass: 2
Flags: W
LayerCount: 2
Fore
SplineSet
358 416 m 1,0,-1
 358 700 l 1,1,-1
 588 700 l 1,2,-1
 588 0 l 1,3,-1
 381 0 l 1,4,-1
 374 99 l 1,5,6
 328 -10 328 -10 216 -10 c 0,7,8
 124 -10 124 -10 74.5 57 c 128,-1,9
 25 124 25 124 25 247 c 0,10,11
 25 372 25 372 75.5 441 c 128,-1,12
 126 510 126 510 217 510 c 0,13,14
 317 510 317 510 358 416 c 1,0,-1
643 700 m 1,15,-1
 808 700 l 1,16,-1
 747 433 l 1,17,-1
 621 433 l 1,18,-1
 643 700 l 1,15,-1
309 151 m 0,19,20
 358 151 358 151 358 246 c 2,21,-1
 358 254 l 2,22,23
 358 348 358 348 309 348 c 0,24,25
 283 348 283 348 270 327 c 128,-1,26
 257 306 257 306 257 250 c 128,-1,27
 257 194 257 194 270 172.5 c 128,-1,28
 283 151 283 151 309 151 c 0,19,20
EndSplineSet
Substitution2: "'smcp' Lowercase to Small Capitals lookup 12 subtable" dcaron.sc
Substitution2: "'aalt' Access All Alternates lookup 0 subtable" dcaron.sc
EndChar

StartChar: Dcroat
Encoding: 272 272 206
Width: 746
GlyphClass: 2
Flags: W
LayerCount: 2
Fore
SplineSet
404 660 m 2,0,1
 558 660 558 660 637.5 574.5 c 128,-1,2
 717 489 717 489 717 330 c 128,-1,3
 717 171 717 171 637.5 85.5 c 128,-1,4
 558 0 558 0 404 0 c 2,5,-1
 80 0 l 1,6,-1
 80 279 l 1,7,-1
 6 279 l 1,8,-1
 6 375 l 1,9,-1
 80 375 l 1,10,-1
 80 660 l 1,11,-1
 404 660 l 2,0,1
371 166 m 2,12,13
 433 166 433 166 456 204 c 128,-1,14
 479 242 479 242 479 330 c 128,-1,15
 479 418 479 418 456 456 c 128,-1,16
 433 494 433 494 371 494 c 2,17,-1
 313 494 l 1,18,-1
 313 375 l 1,19,-1
 399 375 l 1,20,-1
 399 279 l 1,21,-1
 313 279 l 1,22,-1
 313 166 l 1,23,-1
 371 166 l 2,12,13
EndSplineSet
Substitution2: "'c2sc' Capitals to Small Capitals lookup 11 subtable" dcroat.sc
Substitution2: "'aalt' Access All Alternates lookup 0 subtable" dcroat.sc
EndChar

StartChar: dcroat
Encoding: 273 273 207
Width: 627
GlyphClass: 2
Flags: W
LayerCount: 2
Fore
SplineSet
674 629 m 1,0,-1
 674 539 l 1,1,-1
 588 539 l 1,2,-1
 588 0 l 1,3,-1
 381 0 l 1,4,-1
 374 99 l 1,5,6
 328 -10 328 -10 216 -10 c 0,7,8
 124 -10 124 -10 74.5 57 c 128,-1,9
 25 124 25 124 25 247 c 0,10,11
 25 372 25 372 75.5 441 c 128,-1,12
 126 510 126 510 217 510 c 0,13,14
 317 510 317 510 358 416 c 1,15,-1
 358 539 l 1,16,-1
 246 539 l 1,17,-1
 246 629 l 1,18,-1
 358 629 l 1,19,-1
 358 700 l 1,20,-1
 588 700 l 1,21,-1
 588 629 l 1,22,-1
 674 629 l 1,0,-1
309 151 m 0,23,24
 358 151 358 151 358 246 c 2,25,-1
 358 254 l 2,26,27
 358 348 358 348 309 348 c 0,28,29
 283 348 283 348 270 327 c 128,-1,30
 257 306 257 306 257 250 c 128,-1,31
 257 194 257 194 270 172.5 c 128,-1,32
 283 151 283 151 309 151 c 0,23,24
EndSplineSet
Substitution2: "'smcp' Lowercase to Small Capitals lookup 12 subtable" dcroat.sc
Substitution2: "'aalt' Access All Alternates lookup 0 subtable" dcroat.sc
EndChar

StartChar: Emacron
Encoding: 274 274 208
Width: 626
GlyphClass: 2
Flags: W
AnchorPoint: "Anchor-0" 329 0 basechar 0
LayerCount: 2
Fore
SplineSet
507 841 m 1,0,-1
 507 711 l 1,1,-1
 119 711 l 1,2,-1
 119 841 l 1,3,-1
 507 841 l 1,0,-1
283 171 m 1,4,-1
 610 171 l 1,5,-1
 610 0 l 1,6,-1
 50 0 l 1,7,-1
 50 660 l 1,8,-1
 598 660 l 1,9,-1
 598 489 l 1,10,-1
 283 489 l 1,11,-1
 283 407 l 1,12,-1
 537 407 l 1,13,-1
 537 249 l 1,14,-1
 283 249 l 1,15,-1
 283 171 l 1,4,-1
EndSplineSet
Substitution2: "Single Substitution lookup 57 subtable" Emacron.swsh.001
Substitution2: "Single Substitution lookup 56 subtable" Emacron.swsh
AlternateSubs2: "'swsh' Swash lookup 33 subtable" Emacron.swsh Emacron.swsh.001
Substitution2: "'c2sc' Capitals to Small Capitals lookup 11 subtable" emacron.sc
AlternateSubs2: "'aalt' Access All Alternates lookup 1 subtable" emacron.sc Emacron.swsh Emacron.swsh.001
EndChar

StartChar: emacron
Encoding: 275 275 209
Width: 583
GlyphClass: 2
Flags: W
AnchorPoint: "Anchor-0" 294 0 basechar 0
LayerCount: 2
Fore
SplineSet
490 681 m 1,0,-1
 490 551 l 1,1,-1
 102 551 l 1,2,-1
 102 681 l 1,3,-1
 490 681 l 1,0,-1
563 266 m 0,4,5
 563 228 563 228 558 206 c 1,6,-1
 240 206 l 1,7,8
 245 169 245 169 261 156 c 128,-1,9
 277 143 277 143 309 143 c 0,10,11
 358 143 358 143 369 186 c 1,12,-1
 554 136 l 1,13,14
 537 64 537 64 470.5 27 c 128,-1,15
 404 -10 404 -10 309 -10 c 0,16,17
 167 -10 167 -10 93.5 57 c 128,-1,18
 20 124 20 124 20 250 c 0,19,20
 20 374 20 374 92.5 442 c 128,-1,21
 165 510 165 510 297 510 c 0,22,23
 426 510 426 510 494.5 444 c 128,-1,24
 563 378 563 378 563 266 c 0,4,5
298 358 m 0,25,26
 272 358 272 358 258 343 c 128,-1,27
 244 328 244 328 240 291 c 1,28,-1
 348 291 l 1,29,30
 342 358 342 358 298 358 c 0,25,26
EndSplineSet
Substitution2: "'smcp' Lowercase to Small Capitals lookup 12 subtable" emacron.sc
Substitution2: "'aalt' Access All Alternates lookup 0 subtable" emacron.sc
EndChar

StartChar: Edotaccent
Encoding: 278 278 210
Width: 626
GlyphClass: 2
Flags: W
AnchorPoint: "Anchor-0" 329 0 basechar 0
LayerCount: 2
Fore
SplineSet
313 698 m 0,0,1
 201 698 201 698 201 792 c 128,-1,2
 201 886 201 886 313 886 c 0,3,4
 428 886 428 886 428 792 c 128,-1,5
 428 698 428 698 313 698 c 0,0,1
283 171 m 1,6,-1
 610 171 l 1,7,-1
 610 0 l 1,8,-1
 50 0 l 1,9,-1
 50 660 l 1,10,-1
 598 660 l 1,11,-1
 598 489 l 1,12,-1
 283 489 l 1,13,-1
 283 407 l 1,14,-1
 537 407 l 1,15,-1
 537 249 l 1,16,-1
 283 249 l 1,17,-1
 283 171 l 1,6,-1
EndSplineSet
Substitution2: "Single Substitution lookup 57 subtable" Edotaccent.swsh.001
Substitution2: "Single Substitution lookup 56 subtable" Edotaccent.swsh
AlternateSubs2: "'swsh' Swash lookup 33 subtable" Edotaccent.swsh Edotaccent.swsh.001
Substitution2: "'c2sc' Capitals to Small Capitals lookup 11 subtable" edotaccent.sc
AlternateSubs2: "'aalt' Access All Alternates lookup 1 subtable" edotaccent.sc Edotaccent.swsh Edotaccent.swsh.001
EndChar

StartChar: edotaccent
Encoding: 279 279 211
Width: 583
GlyphClass: 2
Flags: W
AnchorPoint: "Anchor-0" 294 0 basechar 0
LayerCount: 2
Fore
SplineSet
296 538 m 0,0,1
 184 538 184 538 184 632 c 128,-1,2
 184 726 184 726 296 726 c 0,3,4
 411 726 411 726 411 632 c 128,-1,5
 411 538 411 538 296 538 c 0,0,1
563 266 m 0,6,7
 563 228 563 228 558 206 c 1,8,-1
 240 206 l 1,9,10
 245 169 245 169 261 156 c 128,-1,11
 277 143 277 143 309 143 c 0,12,13
 358 143 358 143 369 186 c 1,14,-1
 554 136 l 1,15,16
 537 64 537 64 470.5 27 c 128,-1,17
 404 -10 404 -10 309 -10 c 0,18,19
 167 -10 167 -10 93.5 57 c 128,-1,20
 20 124 20 124 20 250 c 0,21,22
 20 374 20 374 92.5 442 c 128,-1,23
 165 510 165 510 297 510 c 0,24,25
 426 510 426 510 494.5 444 c 128,-1,26
 563 378 563 378 563 266 c 0,6,7
298 358 m 0,27,28
 272 358 272 358 258 343 c 128,-1,29
 244 328 244 328 240 291 c 1,30,-1
 348 291 l 1,31,32
 342 358 342 358 298 358 c 0,27,28
EndSplineSet
Substitution2: "'smcp' Lowercase to Small Capitals lookup 12 subtable" edotaccent.sc
Substitution2: "'aalt' Access All Alternates lookup 0 subtable" edotaccent.sc
EndChar

StartChar: Eogonek
Encoding: 280 280 212
Width: 626
GlyphClass: 2
Flags: W
AnchorPoint: "Anchor-0" 329 0 basechar 0
LayerCount: 2
Fore
SplineSet
587 -86 m 1,0,-1
 614 -189 l 1,1,2
 572 -215 572 -215 496 -215 c 0,3,4
 429 -215 429 -215 386.5 -185.5 c 128,-1,5
 344 -156 344 -156 344 -96 c 0,6,7
 344 -35 344 -35 413 0 c 1,8,-1
 50 0 l 1,9,-1
 50 660 l 1,10,-1
 598 660 l 1,11,-1
 598 489 l 1,12,-1
 283 489 l 1,13,-1
 283 407 l 1,14,-1
 537 407 l 1,15,-1
 537 249 l 1,16,-1
 283 249 l 1,17,-1
 283 171 l 1,18,-1
 610 171 l 1,19,-1
 610 1 l 1,20,-1
 611 0 l 1,21,22
 498 -7 498 -7 498 -56 c 0,23,24
 498 -94 498 -94 547 -94 c 0,25,26
 574 -94 574 -94 587 -86 c 1,0,-1
EndSplineSet
Substitution2: "'c2sc' Capitals to Small Capitals lookup 11 subtable" eogonek.sc
Substitution2: "'aalt' Access All Alternates lookup 0 subtable" eogonek.sc
EndChar

StartChar: eogonek
Encoding: 281 281 213
Width: 583
GlyphClass: 2
Flags: W
AnchorPoint: "Anchor-0" 294 0 basechar 0
LayerCount: 2
Fore
SplineSet
563 266 m 0,0,1
 563 228 563 228 558 206 c 1,2,-1
 240 206 l 1,3,4
 245 169 245 169 261 156 c 128,-1,5
 277 143 277 143 309 143 c 0,6,7
 358 143 358 143 369 186 c 1,8,-1
 554 136 l 1,9,10
 528 25 528 25 388 -3 c 1,11,12
 336 -23 336 -23 336 -56 c 0,13,14
 336 -94 336 -94 385 -94 c 0,15,16
 412 -94 412 -94 425 -86 c 1,17,-1
 452 -189 l 1,18,19
 410 -215 410 -215 334 -215 c 0,20,21
 267 -215 267 -215 224.5 -185.5 c 128,-1,22
 182 -156 182 -156 182 -96 c 0,23,24
 182 -39 182 -39 234 -5 c 1,25,26
 20 30 20 30 20 250 c 0,27,28
 20 374 20 374 92.5 442 c 128,-1,29
 165 510 165 510 297 510 c 0,30,31
 426 510 426 510 494.5 444 c 128,-1,32
 563 378 563 378 563 266 c 0,0,1
298 358 m 0,33,34
 272 358 272 358 258 343 c 128,-1,35
 244 328 244 328 240 291 c 1,36,-1
 348 291 l 1,37,38
 342 358 342 358 298 358 c 0,33,34
EndSplineSet
Substitution2: "'smcp' Lowercase to Small Capitals lookup 12 subtable" eogonek.sc
Substitution2: "'aalt' Access All Alternates lookup 0 subtable" eogonek.sc
EndChar

StartChar: Ecaron
Encoding: 282 282 214
Width: 626
GlyphClass: 2
Flags: W
AnchorPoint: "Anchor-0" 329 0 basechar 0
LayerCount: 2
Fore
SplineSet
414 709 m 1,0,-1
 200 709 l 1,1,-1
 92 876 l 1,2,-1
 253 876 l 1,3,-1
 307 807 l 1,4,-1
 361 876 l 1,5,-1
 522 876 l 1,6,-1
 414 709 l 1,0,-1
283 171 m 1,7,-1
 610 171 l 1,8,-1
 610 0 l 1,9,-1
 50 0 l 1,10,-1
 50 660 l 1,11,-1
 598 660 l 1,12,-1
 598 489 l 1,13,-1
 283 489 l 1,14,-1
 283 407 l 1,15,-1
 537 407 l 1,16,-1
 537 249 l 1,17,-1
 283 249 l 1,18,-1
 283 171 l 1,7,-1
EndSplineSet
Substitution2: "Single Substitution lookup 57 subtable" Ecaron.swsh.001
Substitution2: "Single Substitution lookup 56 subtable" Ecaron.swsh
AlternateSubs2: "'swsh' Swash lookup 33 subtable" Ecaron.swsh Ecaron.swsh.001
Substitution2: "'c2sc' Capitals to Small Capitals lookup 11 subtable" ecaron.sc
AlternateSubs2: "'aalt' Access All Alternates lookup 1 subtable" ecaron.sc Ecaron.swsh Ecaron.swsh.001
EndChar

StartChar: ecaron
Encoding: 283 283 215
Width: 583
GlyphClass: 2
Flags: W
AnchorPoint: "Anchor-0" 294 0 basechar 0
LayerCount: 2
Fore
SplineSet
397 553 m 1,0,-1
 183 553 l 1,1,-1
 77 730 l 1,2,-1
 233 730 l 1,3,-1
 290 659 l 1,4,-1
 347 730 l 1,5,-1
 503 730 l 1,6,-1
 397 553 l 1,0,-1
563 266 m 0,7,8
 563 228 563 228 558 206 c 1,9,-1
 240 206 l 1,10,11
 245 169 245 169 261 156 c 128,-1,12
 277 143 277 143 309 143 c 0,13,14
 358 143 358 143 369 186 c 1,15,-1
 554 136 l 1,16,17
 537 64 537 64 470.5 27 c 128,-1,18
 404 -10 404 -10 309 -10 c 0,19,20
 167 -10 167 -10 93.5 57 c 128,-1,21
 20 124 20 124 20 250 c 0,22,23
 20 374 20 374 92.5 442 c 128,-1,24
 165 510 165 510 297 510 c 0,25,26
 426 510 426 510 494.5 444 c 128,-1,27
 563 378 563 378 563 266 c 0,7,8
298 358 m 0,28,29
 272 358 272 358 258 343 c 128,-1,30
 244 328 244 328 240 291 c 1,31,-1
 348 291 l 1,32,33
 342 358 342 358 298 358 c 0,28,29
EndSplineSet
Substitution2: "'smcp' Lowercase to Small Capitals lookup 12 subtable" ecaron.sc
Substitution2: "'aalt' Access All Alternates lookup 0 subtable" ecaron.sc
EndChar

StartChar: Gbreve
Encoding: 286 286 216
Width: 722
GlyphClass: 2
Flags: W
AnchorPoint: "Anchor-0" 379 0 basechar 0
LayerCount: 2
Fore
SplineSet
364 700 m 128,-1,1
 277 700 277 700 229 745.5 c 128,-1,2
 181 791 181 791 181 873 c 1,3,-1
 320 873 l 1,4,5
 320 818 320 818 364 818 c 128,-1,6
 408 818 408 818 408 873 c 1,7,-1
 547 873 l 1,8,9
 547 791 547 791 499 745.5 c 128,-1,0
 451 700 451 700 364 700 c 128,-1,1
371 229 m 1,10,-1
 371 372 l 1,11,-1
 677 372 l 1,12,-1
 677 0 l 1,13,-1
 523 0 l 1,14,-1
 515 75 l 1,15,16
 464 -10 464 -10 336 -10 c 0,17,18
 201 -10 201 -10 115 78 c 128,-1,19
 29 166 29 166 29 328 c 128,-1,20
 29 490 29 490 119.5 580 c 128,-1,21
 210 670 210 670 371 670 c 0,22,23
 494 670 494 670 566.5 628 c 128,-1,24
 639 586 639 586 679 489 c 1,25,-1
 462 411 l 1,26,27
 449 495 449 495 379 495 c 0,28,29
 321 495 321 495 294 455.5 c 128,-1,30
 267 416 267 416 267 330 c 0,31,32
 267 238 267 238 296 198.5 c 128,-1,33
 325 159 325 159 387 159 c 0,34,35
 431 159 431 159 456.5 176.5 c 128,-1,36
 482 194 482 194 482 228 c 2,37,-1
 482 229 l 1,38,-1
 371 229 l 1,10,-1
EndSplineSet
Substitution2: "'ss04' Style Set 4 lookup 50 subtable" Gbreve.ss04
Substitution2: "'salt' Stylistic Alternatives lookup 42 subtable" Gbreve.ss04
Substitution2: "'c2sc' Capitals to Small Capitals lookup 11 subtable" gbreve.sc
AlternateSubs2: "'aalt' Access All Alternates lookup 1 subtable" gbreve.sc Gbreve.ss04
EndChar

StartChar: gbreve
Encoding: 287 287 217
Width: 627
GlyphClass: 2
Flags: W
LayerCount: 2
Fore
SplineSet
325 540 m 128,-1,1
 238 540 238 540 190 585.5 c 128,-1,2
 142 631 142 631 142 713 c 1,3,-1
 281 713 l 1,4,5
 281 658 281 658 325 658 c 128,-1,6
 369 658 369 658 369 713 c 1,7,-1
 508 713 l 1,8,9
 508 631 508 631 460 585.5 c 128,-1,0
 412 540 412 540 325 540 c 128,-1,1
380 500 m 1,10,-1
 588 500 l 1,11,-1
 588 40 l 2,12,13
 588 -215 588 -215 290 -215 c 0,14,15
 180 -215 180 -215 116 -180.5 c 128,-1,16
 52 -146 52 -146 39 -54 c 1,17,-1
 260 -4 l 1,18,19
 257 -83 257 -83 310 -83 c 0,20,21
 358 -83 358 -83 358 -15 c 2,22,-1
 358 97 l 1,23,24
 309 23 309 23 216 23 c 0,25,26
 124 23 124 23 74.5 86 c 128,-1,27
 25 149 25 149 25 264 c 0,28,29
 25 381 25 381 75.5 445.5 c 128,-1,30
 126 510 126 510 217 510 c 0,31,32
 282 510 282 510 321 473.5 c 128,-1,33
 360 437 360 437 374 373 c 1,34,-1
 377 374 l 1,35,-1
 380 500 l 1,10,-1
309 184 m 0,36,37
 358 184 358 184 358 263 c 2,38,-1
 358 270 l 2,39,40
 358 348 358 348 309 348 c 0,41,42
 283 348 283 348 270 330.5 c 128,-1,43
 257 313 257 313 257 266 c 128,-1,44
 257 219 257 219 270 201.5 c 128,-1,45
 283 184 283 184 309 184 c 0,36,37
EndSplineSet
Substitution2: "'ss01' Style Set 1 lookup 47 subtable" gbreve.ss01
Substitution2: "'salt' Stylistic Alternatives lookup 42 subtable" gbreve.ss01
Substitution2: "'smcp' Lowercase to Small Capitals lookup 12 subtable" gbreve.sc
AlternateSubs2: "'aalt' Access All Alternates lookup 1 subtable" gbreve.sc gbreve.ss01
EndChar

StartChar: uni0122
Encoding: 290 290 218
Width: 722
GlyphClass: 2
Flags: W
AnchorPoint: "Anchor-0" 379 0 basechar 0
LayerCount: 2
Fore
SplineSet
371 229 m 1,0,-1
 371 372 l 1,1,-1
 677 372 l 1,2,-1
 677 0 l 1,3,-1
 523 0 l 1,4,-1
 515 75 l 1,5,6
 464 -10 464 -10 336 -10 c 0,7,8
 201 -10 201 -10 115 78 c 128,-1,9
 29 166 29 166 29 328 c 128,-1,10
 29 490 29 490 119.5 580 c 128,-1,11
 210 670 210 670 371 670 c 0,12,13
 494 670 494 670 566.5 628 c 128,-1,14
 639 586 639 586 679 489 c 1,15,-1
 462 411 l 1,16,17
 449 495 449 495 379 495 c 0,18,19
 321 495 321 495 294 455.5 c 128,-1,20
 267 416 267 416 267 330 c 0,21,22
 267 238 267 238 296 198.5 c 128,-1,23
 325 159 325 159 387 159 c 0,24,25
 431 159 431 159 456.5 176.5 c 128,-1,26
 482 194 482 194 482 228 c 2,27,-1
 482 229 l 1,28,-1
 371 229 l 1,0,-1
272 -243 m 1,29,-1
 296 -50 l 1,30,-1
 489 -50 l 1,31,-1
 414 -243 l 1,32,-1
 272 -243 l 1,29,-1
EndSplineSet
Substitution2: "'ss04' Style Set 4 lookup 50 subtable" Gcommaaccent.ss04
Substitution2: "'salt' Stylistic Alternatives lookup 42 subtable" Gcommaaccent.ss04
Substitution2: "'c2sc' Capitals to Small Capitals lookup 11 subtable" Gcommaaccent.sc
AlternateSubs2: "'aalt' Access All Alternates lookup 1 subtable" Gcommaaccent.sc Gcommaaccent.ss04
EndChar

StartChar: uni0123
Encoding: 291 291 219
Width: 627
GlyphClass: 2
Flags: W
LayerCount: 2
Fore
SplineSet
448 768 m 1,0,-1
 416 547 l 1,1,-1
 238 547 l 1,2,-1
 309 768 l 1,3,-1
 448 768 l 1,0,-1
380 500 m 1,4,-1
 588 500 l 1,5,-1
 588 40 l 2,6,7
 588 -215 588 -215 290 -215 c 0,8,9
 180 -215 180 -215 116 -180.5 c 128,-1,10
 52 -146 52 -146 39 -54 c 1,11,-1
 260 -4 l 1,12,13
 257 -83 257 -83 310 -83 c 0,14,15
 358 -83 358 -83 358 -15 c 2,16,-1
 358 97 l 1,17,18
 309 23 309 23 216 23 c 0,19,20
 124 23 124 23 74.5 86 c 128,-1,21
 25 149 25 149 25 264 c 0,22,23
 25 381 25 381 75.5 445.5 c 128,-1,24
 126 510 126 510 217 510 c 0,25,26
 282 510 282 510 321 473.5 c 128,-1,27
 360 437 360 437 374 373 c 1,28,-1
 377 374 l 1,29,-1
 380 500 l 1,4,-1
309 184 m 0,30,31
 358 184 358 184 358 263 c 2,32,-1
 358 270 l 2,33,34
 358 348 358 348 309 348 c 0,35,36
 283 348 283 348 270 330.5 c 128,-1,37
 257 313 257 313 257 266 c 128,-1,38
 257 219 257 219 270 201.5 c 128,-1,39
 283 184 283 184 309 184 c 0,30,31
EndSplineSet
Substitution2: "'ss01' Style Set 1 lookup 47 subtable" gcommaaccent.ss01
Substitution2: "'salt' Stylistic Alternatives lookup 42 subtable" gcommaaccent.ss01
Substitution2: "'aalt' Access All Alternates lookup 0 subtable" gcommaaccent.ss01
EndChar

StartChar: Imacron
Encoding: 298 298 220
Width: 333
GlyphClass: 2
Flags: W
LayerCount: 2
Fore
SplineSet
330 841 m 1,0,-1
 330 711 l 1,1,-1
 1 711 l 1,2,-1
 1 841 l 1,3,-1
 330 841 l 1,0,-1
283 660 m 1,4,-1
 283 0 l 1,5,-1
 50 0 l 1,6,-1
 50 660 l 1,7,-1
 283 660 l 1,4,-1
EndSplineSet
Substitution2: "'c2sc' Capitals to Small Capitals lookup 11 subtable" imacron.sc
Substitution2: "'aalt' Access All Alternates lookup 0 subtable" imacron.sc
EndChar

StartChar: imacron
Encoding: 299 299 221
Width: 308
GlyphClass: 2
Flags: W
LayerCount: 2
Fore
SplineSet
309 681 m 1,0,-1
 309 551 l 1,1,-1
 -1 551 l 1,2,-1
 -1 681 l 1,3,-1
 309 681 l 1,0,-1
269 500 m 1,4,-1
 269 0 l 1,5,-1
 39 0 l 1,6,-1
 39 500 l 1,7,-1
 269 500 l 1,4,-1
EndSplineSet
Substitution2: "'smcp' Lowercase to Small Capitals lookup 12 subtable" imacron.sc
Substitution2: "'aalt' Access All Alternates lookup 0 subtable" imacron.sc
EndChar

StartChar: Iogonek
Encoding: 302 302 222
Width: 333
GlyphClass: 2
Flags: W
LayerCount: 2
Fore
SplineSet
259 -86 m 1,0,-1
 286 -189 l 1,1,2
 244 -215 244 -215 168 -215 c 0,3,4
 101 -215 101 -215 58.5 -185.5 c 128,-1,5
 16 -156 16 -156 16 -96 c 0,6,7
 16 -35 16 -35 72 0 c 1,8,-1
 50 0 l 1,9,-1
 50 660 l 1,10,-1
 283 660 l 1,11,-1
 283 0 l 1,12,13
 170 -7 170 -7 170 -56 c 0,14,15
 170 -94 170 -94 219 -94 c 0,16,17
 246 -94 246 -94 259 -86 c 1,0,-1
EndSplineSet
Substitution2: "'c2sc' Capitals to Small Capitals lookup 11 subtable" iogonek.sc
Substitution2: "'aalt' Access All Alternates lookup 0 subtable" iogonek.sc
EndChar

StartChar: iogonek
Encoding: 303 303 223
Width: 308
GlyphClass: 2
Flags: W
LayerCount: 2
Fore
SplineSet
154 532 m 128,-1,1
 86 532 86 532 57.5 554 c 128,-1,2
 29 576 29 576 29 628 c 128,-1,3
 29 680 29 680 57.5 702 c 128,-1,4
 86 724 86 724 154 724 c 128,-1,5
 222 724 222 724 250.5 702 c 128,-1,6
 279 680 279 680 279 628 c 128,-1,7
 279 576 279 576 250.5 554 c 128,-1,0
 222 532 222 532 154 532 c 128,-1,1
205 -94 m 0,8,9
 232 -94 232 -94 245 -86 c 1,10,-1
 272 -189 l 1,11,12
 230 -215 230 -215 154 -215 c 0,13,14
 87 -215 87 -215 44.5 -185.5 c 128,-1,15
 2 -156 2 -156 2 -96 c 0,16,17
 2 -35 2 -35 58 0 c 1,18,-1
 39 0 l 1,19,-1
 39 500 l 1,20,-1
 269 500 l 1,21,-1
 269 0 l 1,22,23
 218 0 218 0 187 -16 c 128,-1,24
 156 -32 156 -32 156 -56 c 0,25,26
 156 -94 156 -94 205 -94 c 0,8,9
EndSplineSet
Substitution2: "'smcp' Lowercase to Small Capitals lookup 12 subtable" iogonek.sc
Substitution2: "'aalt' Access All Alternates lookup 0 subtable" iogonek.sc
EndChar

